<svg width="24" height="23" viewBox="0 0 24 23" fill="none" xmlns="http://www.w3.org/2000/svg">
<path d="M22.9625 12.892H12.6388L19.5141 19.7674C19.7769 20.0302 20.2094 20.0515 20.4795 19.797C22.1632 18.2107 23.3214 16.0724 23.6612 13.6686C23.7195 13.2571 23.378 12.892 22.9625 12.892ZM22.2738 10.0728C21.9153 4.87552 17.7621 0.722373 12.5648 0.363878C12.168 0.336469 11.8339 0.671035 11.8339 1.06869V10.8037H21.5694C21.967 10.8037 22.3012 10.4696 22.2738 10.0728ZM9.74558 12.892V2.56836C9.74558 2.15287 9.38056 1.81134 8.96942 1.86964C3.78474 2.60229 -0.178282 7.13177 0.00618602 12.5601C0.195875 18.135 4.99596 22.7067 10.5735 22.6367C12.7662 22.6093 14.7924 21.9027 16.4582 20.7211C16.8019 20.4774 16.8245 19.9714 16.5265 19.6734L9.74558 12.892Z" fill="#fff"/>
</svg>
