<svg width="34" height="41" viewBox="0 0 34 41" fill="none" xmlns="http://www.w3.org/2000/svg">
<path d="M28.2283 38.8952C26.0508 41.006 23.6733 40.6727 21.3847 39.6728C18.9628 38.6507 16.7408 38.6063 14.1856 39.6728C10.986 41.0504 9.29732 40.6505 7.38645 38.8952C-3.45662 27.7188 -1.85683 10.6987 10.4527 10.0766C13.4524 10.2321 15.541 11.7208 17.2963 11.8541C19.9182 11.3209 22.429 9.78772 25.2286 9.98769C28.5838 10.2543 31.1168 11.5875 32.7832 13.9872C25.8508 18.1422 27.495 27.2744 33.8498 29.8296C32.5833 33.1625 30.939 36.4732 28.206 38.9174L28.2283 38.8952ZM17.0741 9.94325C16.7408 4.98832 20.7625 0.89995 25.3842 0.5C26.0285 6.23261 20.1848 10.4987 17.0741 9.94325Z" fill="#C7763E"/>
</svg>
