<svg width="28" height="32" viewBox="0 0 28 32" fill="none" xmlns="http://www.w3.org/2000/svg">
<path fill-rule="evenodd" clip-rule="evenodd" d="M6.00376 3.11068C6.00376 2.72229 10.0174 0 14.0026 0C17.9879 0 22.0015 2.72229 22.0015 3.11068C22.0015 4.49715 21.854 5.31837 21.7296 5.76542C21.6469 6.05871 21.3723 6.22136 21.0674 6.22136H6.93785C6.633 6.22136 6.35838 6.05871 6.27572 5.76542C6.15129 5.31837 6.00376 4.49715 6.00376 3.11068ZM12.6695 2.6663C12.4338 2.6663 12.2077 2.75993 12.041 2.92661C11.8744 3.09328 11.7807 3.31935 11.7807 3.55506C11.7807 3.79078 11.8744 4.01684 12.041 4.18351C12.2077 4.35019 12.4338 4.44383 12.6695 4.44383H15.3358C15.5715 4.44383 15.7976 4.35019 15.9642 4.18351C16.1309 4.01684 16.2246 3.79078 16.2246 3.55506C16.2246 3.31935 16.1309 3.09328 15.9642 2.92661C15.7976 2.75993 15.5715 2.6663 15.3358 2.6663H12.6695ZM6.9263 11.7477C3.96671 10.8323 4.71327 9.19694 5.842 7.99889H22.4104C23.3133 9.1525 23.7977 10.7087 21.0683 11.6402C21.098 11.9038 21.1128 12.1713 21.1128 12.4427C21.1124 13.4055 20.9165 14.3581 20.5369 15.2429C20.1574 16.1277 19.6021 16.9262 18.9047 17.59C18.2073 18.2538 17.3824 18.769 16.48 19.1045C15.5775 19.4399 14.6163 19.5886 13.6547 19.5415C12.6931 19.4944 11.7511 19.2525 10.8857 18.8304C10.0204 18.4083 9.24981 17.8149 8.62067 17.0862C7.99152 16.3574 7.51693 15.5085 7.22567 14.5908C6.93442 13.6731 6.83257 12.7059 6.9263 11.7477ZM13.7609 12.4427C16.109 12.4427 17.9292 12.3183 19.3246 12.1014C19.3317 12.214 19.3352 12.3278 19.3352 12.4427C19.3346 13.1544 19.1915 13.8587 18.9144 14.5142C18.6373 15.1698 18.2318 15.7632 17.7218 16.2595C17.2118 16.7559 16.6076 17.1451 15.9448 17.4043C15.282 17.6635 14.574 17.7874 13.8626 17.7687C13.1512 17.7501 12.4507 17.5892 11.8024 17.2955C11.1542 17.0019 10.5712 16.5815 10.088 16.059C9.60471 15.5366 9.23092 14.9227 8.98863 14.2535C8.74633 13.5844 8.64043 12.8735 8.67716 12.1628C9.97743 12.3423 11.6439 12.4427 13.7609 12.4427ZM21.4834 25.4187C20.6796 24.1643 19.5731 23.1324 18.2658 22.418C16.9585 21.7035 15.4924 21.3295 14.0026 21.3304C12.5122 21.3292 11.0455 21.7033 9.73772 22.4181C8.42991 23.1329 7.32307 24.1654 6.51924 25.4205C6.22024 24.9615 5.76225 24.6292 5.2332 24.4873L3.5161 24.0278C2.94697 23.8752 2.34054 23.9549 1.83019 24.2494C1.31984 24.5439 0.94737 25.0291 0.794705 25.5982L0.105024 28.1739C0.0294892 28.4557 0.0102168 28.7497 0.0483069 29.039C0.0863971 29.3283 0.181104 29.6073 0.327019 29.86C0.472934 30.1127 0.667199 30.3342 0.89872 30.5118C1.13024 30.6895 1.39448 30.8198 1.67636 30.8953L3.39257 31.3556C3.68129 31.433 3.98264 31.4513 4.2786 31.4094C4.57456 31.3676 4.85903 31.2665 5.11499 31.1121C5.1157 31.3478 5.21002 31.5736 5.37719 31.7398C5.54437 31.906 5.77071 31.9989 6.00642 31.9982C6.24214 31.9975 6.46792 31.9032 6.6341 31.736C6.80027 31.5688 6.89323 31.3425 6.89252 31.1068V30.218C6.89252 29.8791 6.91563 29.5464 6.96185 29.2199L11.587 30.4598C11.8017 30.9193 12.143 31.3081 12.5709 31.5804C12.9987 31.8528 13.4954 31.9975 14.0026 31.9975C14.5099 31.9975 15.0065 31.8528 15.4344 31.5804C15.8623 31.3081 16.2036 30.9193 16.4183 30.4598L21.0434 29.2199C21.0891 29.5464 21.1122 29.8791 21.1128 30.218V31.1068C21.1116 31.3425 21.2041 31.569 21.3699 31.7365C21.5358 31.904 21.7614 31.9988 21.9971 32C22.2328 32.0012 22.4593 31.9087 22.6268 31.7428C22.7943 31.577 22.8891 31.3514 22.8903 31.1157C23.388 31.4143 24.003 31.5183 24.6083 31.3556L26.3254 30.8961C26.6073 30.8206 26.8715 30.6904 27.103 30.5127C27.3345 30.3351 27.5288 30.1136 27.6747 29.8609C27.8206 29.6082 27.9153 29.3292 27.9534 29.0399C27.9915 28.7506 27.9722 28.4566 27.8967 28.1747L27.2061 25.5991C27.0535 25.03 26.681 24.5448 26.1707 24.2503C25.6603 23.9558 25.0539 23.8761 24.4847 24.0287L22.7676 24.4881C22.2398 24.6296 21.7826 24.9614 21.4834 25.4187ZM7.42845 27.5037C7.90883 26.3429 8.68785 25.3298 9.6864 24.5674C10.685 23.8051 11.8675 23.3205 13.1139 23.163V26.8149C12.7153 26.9558 12.356 27.1893 12.0654 27.4964C11.7749 27.8035 11.5616 28.1752 11.443 28.5809L7.42845 27.5037ZM20.5768 27.5037C20.0965 26.3429 19.3174 25.3298 18.3189 24.5674C17.3203 23.8051 16.1378 23.3205 14.8914 23.163V26.8149C15.6949 27.0993 16.3223 27.757 16.5623 28.5809L20.5768 27.5037ZM14.0026 30.218C14.2384 30.218 14.4644 30.1244 14.6311 29.9577C14.7978 29.791 14.8914 29.565 14.8914 29.3293C14.8914 29.0935 14.7978 28.8675 14.6311 28.7008C14.4644 28.5341 14.2384 28.4405 14.0026 28.4405C13.7669 28.4405 13.5409 28.5341 13.3742 28.7008C13.2075 28.8675 13.1139 29.0935 13.1139 29.3293C13.1139 29.565 13.2075 29.791 13.3742 29.9577C13.5409 30.1244 13.7669 30.218 14.0026 30.218Z" fill="white"/>
</svg>
