<svg width="13" height="12" viewBox="0 0 13 12" fill="none" xmlns="http://www.w3.org/2000/svg">
<path fill-rule="evenodd" clip-rule="evenodd" d="M5.02145 3.02145C5.21671 2.82618 5.53329 2.82618 5.72855 3.02145L8.35355 5.64645C8.54882 5.84171 8.54882 6.15829 8.35355 6.35355L5.72855 8.97855C5.53329 9.17382 5.21671 9.17382 5.02145 8.97855C4.82618 8.78329 4.82618 8.46671 5.02145 8.27145L7.29289 6L5.02145 3.72855C4.82618 3.53329 4.82618 3.21671 5.02145 3.02145Z" fill="#15253B"/>
<path fill-rule="evenodd" clip-rule="evenodd" d="M0.5 6C0.5 5.72386 0.723858 5.5 1 5.5H8C8.27614 5.5 8.5 5.72386 8.5 6C8.5 6.27614 8.27614 6.5 8 6.5H1C0.723858 6.5 0.5 6.27614 0.5 6Z" fill="#15253B"/>
<path fill-rule="evenodd" clip-rule="evenodd" d="M7.5 0.5C7.5 0.223858 7.72386 0 8 0H11.5C11.7652 0 12.0196 0.105357 12.2071 0.292893C12.3946 0.48043 12.5 0.734784 12.5 1V11C12.5 11.2652 12.3946 11.5196 12.2071 11.7071C12.0196 11.8946 11.7652 12 11.5 12H8C7.72386 12 7.5 11.7761 7.5 11.5C7.5 11.2239 7.72386 11 8 11H11.5V1L8 1C7.72386 1 7.5 0.776142 7.5 0.5Z" fill="#15253B"/>
</svg>
