<svg width="24" height="19" viewBox="0 0 24 19" fill="none" xmlns="http://www.w3.org/2000/svg">
<path d="M22.4843 4.76716H13.0172C12.7034 4.76716 12.4024 4.64248 12.1804 4.42055C11.9585 4.19863 11.8338 3.89763 11.8338 3.58378C11.8338 3.26992 11.9585 2.96892 12.1804 2.747C12.4024 2.52507 12.7034 2.40039 13.0172 2.40039H22.4843C22.7982 2.40039 23.0992 2.52507 23.3211 2.747C23.543 2.96892 23.6677 3.26992 23.6677 3.58378C23.6677 3.89763 23.543 4.19863 23.3211 4.42055C23.0992 4.64248 22.7982 4.76716 22.4843 4.76716ZM22.4843 9.5007H13.0172C12.7034 9.5007 12.4024 9.37602 12.1804 9.15409C11.9585 8.93216 11.8338 8.63117 11.8338 8.31731C11.8338 8.00346 11.9585 7.70246 12.1804 7.48053C12.4024 7.25861 12.7034 7.13393 13.0172 7.13393H22.4843C22.7982 7.13393 23.0992 7.25861 23.3211 7.48053C23.543 7.70246 23.6677 8.00346 23.6677 8.31731C23.6677 8.63117 23.543 8.93216 23.3211 9.15409C23.0992 9.37602 22.7982 9.5007 22.4843 9.5007Z" fill="white"/>
<path d="M8.28369 0.0332031H1.18338C0.529819 0.0332031 0 0.563022 0 1.21659V8.31689C0 8.97046 0.529819 9.50028 1.18338 9.50028H8.28369C8.93726 9.50028 9.46708 8.97046 9.46708 8.31689V1.21659C9.46708 0.563022 8.93726 0.0332031 8.28369 0.0332031Z" fill="white"/>
<path d="M22.4843 14.234H1.18338C0.869531 14.234 0.568533 14.1093 0.346605 13.8874C0.124678 13.6654 0 13.3644 0 13.0506C0 12.7367 0.124678 12.4357 0.346605 12.2138C0.568533 11.9919 0.869531 11.8672 1.18338 11.8672H22.4843C22.7982 11.8672 23.0992 11.9919 23.3211 12.2138C23.543 12.4357 23.6677 12.7367 23.6677 13.0506C23.6677 13.3644 23.543 13.6654 23.3211 13.8874C23.0992 14.1093 22.7982 14.234 22.4843 14.234ZM13.0172 18.9675H1.18338C0.869531 18.9675 0.568533 18.8428 0.346605 18.6209C0.124678 18.399 0 18.098 0 17.7841C0 17.4703 0.124678 17.1693 0.346605 16.9473C0.568533 16.7254 0.869531 16.6007 1.18338 16.6007H13.0172C13.3311 16.6007 13.6321 16.7254 13.854 16.9473C14.0759 17.1693 14.2006 17.4703 14.2006 17.7841C14.2006 18.098 14.0759 18.399 13.854 18.6209C13.6321 18.8428 13.3311 18.9675 13.0172 18.9675Z" fill="white"/>
</svg>
