<svg width="14" height="14" viewBox="0 0 14 14" fill="none" xmlns="http://www.w3.org/2000/svg">
<path fill-rule="evenodd" clip-rule="evenodd" d="M7 3C7.27614 3 7.5 3.22386 7.5 3.5V4.5C7.5 4.77614 7.27614 5 7 5C6.72386 5 6.5 4.77614 6.5 4.5V3.5C6.5 3.22386 6.72386 3 7 3Z" fill="#15253B"/>
<path fill-rule="evenodd" clip-rule="evenodd" d="M7 9C7.27614 9 7.5 9.22386 7.5 9.5V10.5C7.5 10.7761 7.27614 11 7 11C6.72386 11 6.5 10.7761 6.5 10.5V9.5C6.5 9.22386 6.72386 9 7 9Z" fill="#15253B"/>
<path fill-rule="evenodd" clip-rule="evenodd" d="M7 1.5C3.96243 1.5 1.5 3.96243 1.5 7C1.5 10.0376 3.96243 12.5 7 12.5C10.0376 12.5 12.5 10.0376 12.5 7C12.5 3.96243 10.0376 1.5 7 1.5ZM0.5 7C0.5 3.41015 3.41015 0.5 7 0.5C10.5899 0.5 13.5 3.41015 13.5 7C13.5 10.5899 10.5899 13.5 7 13.5C3.41015 13.5 0.5 10.5899 0.5 7Z" fill="#15253B"/>
<path fill-rule="evenodd" clip-rule="evenodd" d="M6.25 5C6.05109 5 5.86032 5.07902 5.71967 5.21967C5.57902 5.36032 5.5 5.55109 5.5 5.75C5.5 5.94891 5.57902 6.13968 5.71967 6.28033C5.86032 6.42098 6.05109 6.5 6.25 6.5H7.75C8.21413 6.5 8.65925 6.68437 8.98744 7.01256C9.31563 7.34075 9.5 7.78587 9.5 8.25C9.5 8.71413 9.31563 9.15925 8.98744 9.48744C8.65925 9.81563 8.21413 10 7.75 10H5.5C5.22386 10 5 9.77614 5 9.5C5 9.22386 5.22386 9 5.5 9H7.75C7.94891 9 8.13968 8.92098 8.28033 8.78033C8.42098 8.63968 8.5 8.44891 8.5 8.25C8.5 8.05109 8.42098 7.86032 8.28033 7.71967C8.13968 7.57902 7.94891 7.5 7.75 7.5H6.25C5.78587 7.5 5.34075 7.31563 5.01256 6.98744C4.68437 6.65925 4.5 6.21413 4.5 5.75C4.5 5.28587 4.68437 4.84075 5.01256 4.51256C5.34075 4.18437 5.78587 4 6.25 4H8.5C8.77614 4 9 4.22386 9 4.5C9 4.77614 8.77614 5 8.5 5H6.25Z" fill="#15253B"/>
</svg>
