<svg width="360" height="360" viewBox="0 0 360 360" fill="none" xmlns="http://www.w3.org/2000/svg">
<path d="M356.841 137.671C356.713 137.671 356.587 137.627 356.481 137.545L181.812 2.03479C181.281 1.62433 180.649 1.40497 180.002 1.4062C179.355 1.40742 178.724 1.62918 178.194 2.04166L4.78351 137.544C4.64635 137.651 4.47659 137.693 4.31158 137.661C4.14656 137.629 3.9998 137.525 3.9036 137.372C3.80739 137.219 3.76961 137.03 3.79857 136.846C3.82753 136.662 3.92086 136.499 4.05803 136.392L177.469 0.889424C178.211 0.312037 179.095 0.00166439 180 6.6752e-06C180.906 -0.00165103 181.79 0.305483 182.534 0.880148L357.203 136.39C357.313 136.476 357.396 136.599 357.44 136.74C357.483 136.882 357.485 137.036 357.444 137.179C357.404 137.322 357.324 137.446 357.215 137.535C357.107 137.624 356.976 137.671 356.841 137.671Z" fill="#808080"/>
<path d="M14.6934 142.475L180.175 5.85278L346.912 152.196L188.701 256.676L102.806 234.866L14.6934 142.475Z" fill="#80B2FF"/>
<path d="M110.057 321.209H28.3048C27.8028 321.21 27.3056 321.1 26.8416 320.887C26.3777 320.673 25.9561 320.36 25.6009 319.965C25.2457 319.57 24.9639 319.101 24.7717 318.584C24.5794 318.068 24.4805 317.514 24.4805 316.955C24.4805 316.396 24.5794 315.842 24.7717 315.325C24.9639 314.809 25.2457 314.34 25.6009 313.944C25.9561 313.549 26.3777 313.236 26.8416 313.022C27.3056 312.809 27.8028 312.699 28.3048 312.7H110.057C110.559 312.699 111.056 312.809 111.52 313.022C111.984 313.236 112.405 313.549 112.76 313.944C113.116 314.34 113.397 314.809 113.59 315.325C113.782 315.842 113.881 316.396 113.881 316.955C113.881 317.514 113.782 318.068 113.59 318.584C113.397 319.101 113.116 319.57 112.76 319.965C112.405 320.36 111.984 320.673 111.52 320.887C111.056 321.1 110.559 321.21 110.057 321.209Z" fill="#80B2FF"/>
<path d="M57.6355 302.916H28.3048C27.8028 302.917 27.3056 302.807 26.8416 302.594C26.3777 302.38 25.9561 302.067 25.6009 301.672C25.2457 301.277 24.9639 300.808 24.7717 300.291C24.5794 299.775 24.4805 299.221 24.4805 298.662C24.4805 298.103 24.5794 297.549 24.7717 297.032C24.9639 296.516 25.2457 296.047 25.6009 295.651C25.9561 295.256 26.3777 294.943 26.8416 294.729C27.3056 294.516 27.8028 294.407 28.3048 294.407H57.6355C58.1375 294.407 58.6347 294.516 59.0986 294.729C59.5626 294.943 59.9842 295.256 60.3394 295.651C60.6946 296.047 60.9764 296.516 61.1686 297.032C61.3609 297.549 61.4598 298.103 61.4598 298.662C61.4598 299.221 61.3609 299.775 61.1686 300.291C60.9764 300.808 60.6946 301.277 60.3394 301.672C59.9842 302.067 59.5626 302.38 59.0986 302.594C58.6347 302.807 58.1375 302.917 57.6355 302.916Z" fill="#80B2FF"/>
<path d="M182.5 218.571C181.879 218.572 181.263 218.438 180.688 218.176L78.6309 171.002V23.3408C78.6322 22.0351 79.0984 20.7832 79.9272 19.86C80.7561 18.9367 81.8798 18.4173 83.0519 18.4158H278.841C280.014 18.4173 281.137 18.9367 281.966 19.86C282.795 20.7832 283.261 22.0351 283.262 23.3408V171.105L283.071 171.197L184.367 218.153C183.776 218.43 183.141 218.572 182.5 218.571Z" fill="white"/>
<path d="M182.502 218.923C181.839 218.923 181.183 218.78 180.569 218.501L78.3164 171.237V23.3405C78.3178 21.9415 78.8173 20.6003 79.7054 19.611C80.5934 18.6218 81.7974 18.0653 83.0533 18.0637H278.843C280.099 18.0653 281.303 18.6218 282.191 19.611C283.079 20.6003 283.578 21.9415 283.58 23.3405V171.337L184.493 218.476C183.862 218.771 183.185 218.923 182.502 218.923ZM79.5795 170.297L181.051 217.2C181.997 217.628 183.057 217.621 183.999 217.181L282.317 170.408V23.3405C282.315 22.3146 281.949 21.331 281.298 20.6056C280.647 19.8802 279.764 19.4721 278.843 19.4709H83.0533C82.1323 19.4721 81.2494 19.8802 80.5982 20.6056C79.947 21.331 79.5807 22.3146 79.5796 23.3405L79.5795 170.297Z" fill="#808080"/>
<path d="M355.579 136.264H355.453L282.947 170.753L183.745 217.942C183.358 218.123 182.942 218.218 182.521 218.22C182.101 218.223 181.684 218.133 181.295 217.956L78.9474 170.655L4.66098 136.32L4.54749 136.264H4.42105C3.24892 136.265 2.12516 136.785 1.29633 137.708C0.467503 138.631 0.00130058 139.883 0 141.189V355.075C0.00130225 356.381 0.467503 357.632 1.29633 358.556C2.12516 359.479 3.24892 359.998 4.42105 360H355.579C356.751 359.998 357.875 359.479 358.704 358.556C359.533 357.632 359.999 356.381 360 355.075V141.189C359.999 139.883 359.533 138.631 358.704 137.708C357.875 136.785 356.751 136.265 355.579 136.264ZM358.737 355.075C358.737 356.008 358.404 356.902 357.812 357.562C357.22 358.222 356.417 358.592 355.579 358.593H4.42105C3.58363 358.592 2.78061 358.222 2.18846 357.562C1.59631 356.902 1.26349 356.008 1.26316 355.075V141.189C1.2643 140.279 1.58107 139.405 2.14723 138.75C2.71339 138.094 3.48512 137.708 4.30109 137.671L78.9474 172.174L180.809 219.257C181.911 219.757 183.147 219.749 184.244 219.236L282.947 172.28L355.706 137.671C356.52 137.71 357.29 138.098 357.854 138.753C358.419 139.408 358.735 140.281 358.737 141.189V355.075Z" fill="white"/>
<path d="M181.48 176.7C177.713 176.708 174.045 175.351 171.03 172.833L170.843 172.677L131.489 139.111C129.666 137.555 128.137 135.615 126.987 133.401C125.838 131.187 125.091 128.742 124.79 126.206C124.489 123.671 124.639 121.094 125.231 118.623C125.824 116.151 126.848 113.835 128.244 111.804C129.641 109.774 131.382 108.07 133.37 106.789C135.358 105.509 137.552 104.677 139.828 104.341C142.105 104.006 144.418 104.173 146.636 104.833C148.854 105.493 150.934 106.634 152.757 108.19L178.248 129.964L238.486 42.4485C239.883 40.4187 241.626 38.7153 243.614 37.4356C245.602 36.1559 247.797 35.325 250.073 34.9903C252.349 34.6555 254.662 34.8235 256.88 35.4847C259.099 36.1459 261.178 37.2873 263 38.8438L262.625 39.4103L263.01 38.852C266.685 41.9988 269.09 46.6412 269.697 51.7607C270.303 56.8802 269.062 62.0587 266.246 66.1601L195.39 169.099C193.752 171.471 191.644 173.39 189.232 174.709C186.82 176.027 184.167 176.708 181.48 176.7Z" fill="#01327E"/>
</svg>
