<svg width="576" height="384" viewBox="0 0 576 384" fill="none" xmlns="http://www.w3.org/2000/svg">
<path d="M0.946047 300.609C2.02286 310.464 15.2153 308.292 23.9589 315.647C32.7025 323.001 24.0399 333.048 44.0855 335.203C56.4317 336.53 55.5617 331.359 67.8374 344.053C78.6451 355.229 80.6595 336.799 92.7504 339.715C108.351 343.477 109.535 312.765 95.1688 306.792C80.803 300.82 73.758 309.184 71.1229 296.282C68.4878 283.381 58.8077 278.538 46.513 281.421C31.2957 284.99 33.4448 298.299 25.6057 290.979C17.7663 283.66 -0.478396 287.574 0.946047 300.609Z" fill="#80B2FF"/>
<path d="M114.01 340.821C70.1708 306.817 18.6114 301.626 18.0927 301.577C16.1291 301.388 16.3559 299.026 18.3196 299.215C18.8454 299.266 71.4264 304.664 115.803 339.085L114.01 340.821Z" fill="#005CEA"/>
<path d="M51.228 266.777C48.6768 273.069 57.337 276.044 60.2209 283.318C63.1045 290.593 55.4228 296.783 66.8101 304.592C73.8235 309.402 76.7654 300.25 83.4526 308.536C90.1398 316.822 86.8803 319.208 92.7913 321.4C103.096 325.221 113.933 309.2 107.21 300.933C100.488 292.666 91.3214 295.607 93.9226 286.972C96.5235 278.337 97.3895 274.674 89.0395 272.42C78.7048 269.63 71.574 275.939 69.2245 268.979C66.8753 262.019 54.6025 258.454 51.228 266.777Z" fill="#4D93FF"/>
<path d="M114.012 340.821L115.805 339.34C100.225 304.174 62.4589 271.78 62.1577 271.579C60.8746 270.72 59.9712 272.07 61.2543 272.929C61.5514 273.128 98.6292 306.099 114.012 340.821Z" fill="#005CEA"/>
<path d="M547.867 134.629H528.07V110.178H547.867V134.629ZM529.119 133.58H546.818V111.227H529.119V133.58Z" fill="#80B2FF"/>
<path d="M544.426 114.545H534.729V116.067H544.426V114.545Z" fill="#0041A6"/>
<path d="M544.425 118.12H531.859V119.642H544.425V118.12Z" fill="#0041A6"/>
<path d="M544.425 121.696H531.859V123.218H544.425V121.696Z" fill="#0041A6"/>
<path d="M544.425 125.272H531.859V126.794H544.425V125.272Z" fill="#0041A6"/>
<path d="M544.425 128.848H531.859V130.37H544.425V128.848Z" fill="#0041A6"/>
<path d="M550.344 113.571H531.596V136.973H550.344V113.571Z" fill="#80B2FF"/>
<path d="M547.426 117.413H537.729V118.935H547.426V117.413Z" fill="#005CEA"/>
<path d="M547.427 120.989H534.861V122.511H547.427V120.989Z" fill="#005CEA"/>
<path d="M547.427 124.565H534.861V126.087H547.427V124.565Z" fill="#005CEA"/>
<path d="M547.427 128.141H534.861V129.663H547.427V128.141Z" fill="#005CEA"/>
<path d="M547.427 131.717H534.861V133.239H547.427V131.717Z" fill="#005CEA"/>
<path d="M442.13 42.8081H440.381V44.1195H442.13V42.8081Z" fill="#97C6FF"/>
<path d="M442.13 93.4711H440.381V90.7294H442.13V93.4711ZM442.13 87.9877H440.381V85.2459H442.13V87.9877ZM442.13 82.5042H440.381V79.7624H442.13V82.5042ZM442.13 77.0207H440.381V74.279H442.13V77.0207ZM442.13 71.5372H440.381V68.7955H442.13V71.5372ZM442.13 66.0537H440.381V63.312H442.13V66.0537ZM442.13 60.5703H440.381V57.8285H442.13V60.5703ZM442.13 55.0868H440.381V52.3451H442.13V55.0868ZM442.13 49.6033H440.381V46.8616H442.13V49.6033Z" fill="#97C6FF"/>
<path d="M442.13 96.2129H440.381V97.5243H442.13V96.2129Z" fill="#97C6FF"/>
<path d="M427.841 42.8081H426.092V44.1195H427.841V42.8081Z" fill="#97C6FF"/>
<path d="M59.5532 160.031H57.8047V157.403H59.5532V160.031ZM59.5866 154.841L57.8429 154.712C57.9116 153.78 58.074 152.852 58.3263 151.957L60.0096 152.43C59.7889 153.214 59.6468 154.025 59.5866 154.841ZM60.9066 150.155L59.3528 149.353C59.7804 148.525 60.2934 147.736 60.878 147.008L62.2415 148.103C61.7296 148.74 61.2804 149.431 60.9066 150.155ZM63.957 146.356L62.8377 145.013C63.5551 144.415 64.3348 143.888 65.1551 143.446L65.9848 144.985C65.2671 145.372 64.5849 145.833 63.957 146.356ZM68.2442 144.046L67.7397 142.372C68.6311 142.104 69.5553 141.924 70.4865 141.839L70.6461 143.58C69.8314 143.655 69.0233 143.812 68.2442 144.046ZM412.155 143.529H409.528V141.78H412.155V143.529ZM406.9 143.529H404.272V141.78H406.9V143.529ZM401.645 143.529H399.017V141.78H401.645V143.529ZM396.39 143.529H393.762V141.78H396.39V143.529ZM391.135 143.529H388.507V141.78H391.135V143.529ZM385.879 143.529H383.252V141.78H385.879V143.529ZM380.624 143.529H377.996V141.78H380.624V143.529ZM375.369 143.529H372.741V141.78H375.369V143.529ZM370.113 143.529H367.486V141.78H370.113V143.529ZM364.858 143.529H362.23V141.78H364.858V143.529ZM359.603 143.529H356.975V141.78H359.603V143.529ZM354.348 143.529H351.72V141.78H354.348V143.529ZM349.093 143.529H346.465V141.78H349.093V143.529ZM343.837 143.529H341.21V141.78H343.837V143.529ZM338.582 143.529H335.955V141.78H338.582V143.529ZM333.327 143.529H330.699V141.78H333.327V143.529ZM328.072 143.529H325.444V141.78H328.072V143.529ZM322.817 143.529H320.189V141.78H322.817V143.529ZM317.561 143.529H314.934V141.78H317.561V143.529ZM312.306 143.529H309.678V141.78H312.306V143.529ZM307.051 143.529H304.423V141.78H307.051V143.529ZM301.795 143.529H299.168V141.78H301.795V143.529ZM296.54 143.529H293.912V141.78H296.54V143.529ZM291.285 143.529H288.657V141.78H291.285V143.529ZM286.03 143.529H283.402V141.78H286.03V143.529ZM280.775 143.529H278.147V141.78H280.775V143.529ZM275.519 143.529H272.892V141.78H275.519V143.529ZM270.264 143.529H267.636V141.78H270.264V143.529ZM265.009 143.529H262.381V141.78H265.009V143.529ZM259.753 143.529H257.126V141.78H259.753V143.529ZM254.498 143.529H251.871V141.78H254.498V143.529ZM249.243 143.529H246.615V141.78H249.243V143.529ZM243.988 143.529H241.36V141.78H243.988V143.529ZM238.732 143.529H236.105V141.78H238.732V143.529ZM233.477 143.529H230.85V141.78H233.477V143.529ZM228.222 143.529H225.594V141.78H228.222V143.529ZM222.967 143.529H220.339V141.78H222.967V143.529ZM217.712 143.529H215.084V141.78H217.712V143.529ZM212.456 143.529H209.829V141.78H212.456V143.529ZM207.201 143.529H204.573V141.78H207.201V143.529ZM201.946 143.529H199.318V141.78H201.946V143.529ZM196.69 143.529H194.063V141.78H196.69V143.529ZM191.435 143.529H188.808V141.78H191.435V143.529ZM186.18 143.529H183.552V141.78H186.18V143.529ZM180.925 143.529H178.297V141.78H180.925V143.529ZM175.669 143.529H173.042V141.78H175.669V143.529ZM170.414 143.529H167.786V141.78H170.414V143.529ZM165.159 143.529H162.531V141.78H165.159V143.529ZM159.904 143.529H157.276V141.78H159.904V143.529ZM154.648 143.529H152.021V141.78H154.648V143.529ZM149.393 143.529H146.765V141.78H149.393V143.529ZM144.138 143.529H141.51V141.78H144.138V143.529ZM138.883 143.529H136.255V141.78H138.883V143.529ZM133.627 143.529H131V141.78H133.627V143.529ZM128.372 143.529H125.745V141.78H128.372V143.529ZM123.117 143.529H120.489V141.78H123.117V143.529ZM117.862 143.529H115.234V141.78H117.862V143.529ZM112.606 143.529H109.979V141.78H112.606V143.529ZM107.351 143.529H104.723V141.78H107.351V143.529ZM102.096 143.529H99.4681V141.78H102.096V143.529ZM96.8405 143.529H94.2128V141.78H96.8405V143.529ZM91.5852 143.529H88.9575V141.78H91.5852V143.529ZM86.3299 143.529H83.7025V141.78H86.3299V143.529ZM81.0746 143.529H78.447V141.78H81.0746V143.529ZM75.8193 143.529H73.1917V141.78H75.8193V143.529ZM414.842 143.496L414.722 141.751C415.539 141.695 416.35 141.557 417.134 141.34L417.6 143.025C416.703 143.273 415.775 143.432 414.842 143.496ZM420.209 142.011L419.414 140.453C420.14 140.083 420.832 139.638 421.472 139.129L422.561 140.497C421.83 141.079 421.038 141.588 420.209 142.011ZM424.565 138.546L423.227 137.421C423.754 136.795 424.218 136.115 424.608 135.399L426.143 136.236C425.698 137.054 425.167 137.831 424.565 138.546ZM427.229 133.657L425.557 133.144C425.795 132.366 425.956 131.559 426.035 130.745L427.775 130.913C427.686 131.843 427.502 132.767 427.229 133.657ZM427.84 128.204H426.091V125.576H427.84V128.204ZM427.84 122.948H426.091V120.321H427.84V122.948ZM427.84 117.693H426.091V115.065H427.84V117.693ZM427.84 112.438H426.091V109.81H427.84V112.438ZM427.84 107.183H426.091V104.555H427.84V107.183ZM427.84 101.927H426.091V99.2997H427.84V101.927ZM427.84 96.672H426.091V94.0444H427.84V96.672ZM427.84 91.4167H426.091V88.7891H427.84V91.4167ZM427.84 86.1615H426.091V83.5338H427.84V86.1615ZM427.84 80.9062H426.091V78.2785H427.84V80.9062ZM427.84 75.6511H426.091V73.0238H427.84V75.6511ZM427.84 70.3959H426.091V67.7682H427.84V70.3959ZM427.84 65.1406H426.091V62.5129H427.84V65.1406ZM427.84 59.8853H426.091V57.2576H427.84V59.8853ZM427.84 54.6302H426.091V52.0026H427.84V54.6302ZM427.84 49.375H426.091V46.7473H427.84V49.375Z" fill="#97C6FF"/>
<path d="M59.5532 162.685H57.8047V163.997H59.5532V162.685Z" fill="#97C6FF"/>
<path d="M452.643 42.8081H450.895V44.1195H452.643V42.8081Z" fill="#97C6FF"/>
<path d="M452.643 71.4065H450.895V68.6778H452.643V71.4065ZM452.643 65.9492H450.895V63.2205H452.643V65.9492ZM452.643 60.4919H450.895V57.7632H452.643V60.4919ZM452.643 55.0343H450.895V52.3057H452.643V55.0343ZM452.643 49.577H450.895V46.8484H452.643V49.577Z" fill="#97C6FF"/>
<path d="M453.08 76.3209H450.895V74.1353H452.643V74.5724H453.08V76.3209Z" fill="#97C6FF"/>
<path d="M516.146 153.457H514.397V150.849H516.146V153.457ZM516.146 148.24H514.397V145.632H516.146V148.24ZM516.146 143.023H514.397V140.415H516.146V143.023ZM516.146 137.806H514.397V135.198H516.146V137.806ZM516.146 132.589H514.397V129.981H516.146V132.589ZM516.146 127.372H514.397V124.764H516.146V127.372ZM516.146 122.155H514.397V119.547H516.146V122.155ZM516.146 116.938H514.397V114.33H516.146V116.938ZM516.146 111.721H514.397V109.113H516.146V111.721ZM516.146 106.505H514.397V103.896H516.146V106.505ZM516.146 101.287H514.397V98.6791H516.146V101.287ZM516.146 96.0704H514.397V93.462H516.146V96.0704ZM516.146 90.8536H514.397V88.2452H516.146V90.8536ZM514.388 85.6728C514.355 84.8726 514.224 84.0803 513.999 83.3177L515.676 82.8231C515.942 83.7231 516.096 84.6575 516.135 85.6004L514.388 85.6728ZM513.047 81.1294C512.642 80.4429 512.153 79.8062 511.592 79.2365L512.838 78.0098C513.499 78.681 514.076 79.4316 514.554 80.2409L513.047 81.1294ZM509.721 77.7504C509.04 77.3333 508.309 77.0014 507.548 76.7638L508.07 75.0946C508.968 75.3752 509.831 75.7669 510.635 76.2591L509.721 77.7504ZM505.2 76.3371C505.012 76.3264 504.823 76.3208 504.633 76.3208H502.642V74.5723H504.633C504.856 74.5723 505.08 74.5787 505.3 74.5912L505.2 76.3371ZM500.034 76.3208H497.425V74.5723H500.034V76.3208ZM494.817 76.3208H492.208V74.5723H494.817V76.3208ZM489.6 76.3208H486.991V74.5723H489.6V76.3208ZM484.383 76.3208H481.774V74.5723H484.383V76.3208ZM479.166 76.3208H476.557V74.5723H479.166V76.3208ZM473.949 76.3208H471.34V74.5723H473.949V76.3208ZM468.732 76.3208H466.123V74.5723H468.732V76.3208ZM463.515 76.3208H460.906V74.5723H463.515V76.3208ZM458.298 76.3208H455.689V74.5723H458.298V76.3208Z" fill="#97C6FF"/>
<path d="M516.145 156.077H514.396V157.388H516.145V156.077Z" fill="#97C6FF"/>
<path d="M429.441 42.6967C429.476 42.2481 429.499 41.7962 429.499 41.339C429.499 31.7682 421.74 24.0095 412.169 24.0095C402.599 24.0095 394.84 31.7682 394.84 41.339C394.84 41.7965 394.863 42.2483 394.898 42.6967H429.441Z" fill="#80B2FF"/>
<path d="M486.373 42.6967C486.407 42.2481 486.431 41.7962 486.431 41.339C486.431 31.7682 478.672 24.0095 469.101 24.0095C459.53 24.0095 451.771 31.7682 451.771 41.339C451.771 41.7965 451.795 42.2483 451.829 42.6967H486.373Z" fill="#80B2FF"/>
<path d="M466.439 42.6967C466.573 41.6389 466.642 40.5607 466.642 39.4663C466.642 25.4457 455.277 14.0796 441.256 14.0796C427.235 14.0796 415.869 25.4457 415.869 39.4663C415.869 40.5604 415.939 41.6386 416.073 42.6967H466.439Z" fill="#80B2FF"/>
<path d="M151.481 239.996H33.4016C30.9156 239.996 28.9004 237.981 28.9004 235.495V168.498C28.9004 166.012 30.9156 163.996 33.4016 163.996H151.481C153.967 163.996 155.982 166.012 155.982 168.498V235.495C155.982 237.981 153.967 239.996 151.481 239.996Z" fill="#4D93FF"/>
<path d="M155.982 178.35H28.9004V191.464H155.982V178.35Z" fill="#0046B3"/>
<path d="M58.0093 225.415H39.3243C38.1366 225.415 37.1738 226.378 37.1738 227.565C37.1738 228.753 38.1366 229.716 39.3243 229.716H58.0093C59.197 229.716 60.1597 228.753 60.1597 227.565C60.1597 226.378 59.197 225.415 58.0093 225.415Z" fill="#D1F5FF"/>
<path d="M86.7439 225.415H68.0589C66.8712 225.415 65.9082 226.378 65.9082 227.565C65.9082 228.753 66.8712 229.716 68.0589 229.716H86.7439C87.9316 229.716 88.8944 228.753 88.8944 227.566C88.8946 226.378 87.9316 225.415 86.7439 225.415Z" fill="#D1F5FF"/>
<path d="M115.476 225.415H96.7913C95.6036 225.415 94.6406 226.378 94.6406 227.566C94.6406 228.753 95.6033 229.716 96.7913 229.716H115.476C116.664 229.716 117.627 228.753 117.627 227.566C117.627 226.378 116.664 225.415 115.476 225.415Z" fill="#D1F5FF"/>
<path d="M144.211 225.415H125.526C124.338 225.415 123.375 226.378 123.375 227.566C123.375 228.753 124.338 229.716 125.526 229.716H144.211C145.398 229.716 146.361 228.753 146.361 227.566C146.361 226.378 145.398 225.415 144.211 225.415Z" fill="#D1F5FF"/>
<path d="M38.4634 167.854C37.1525 167.854 36.0898 168.917 36.0898 170.228V171.061C36.0898 172.372 37.1525 173.435 38.4634 173.435C39.7743 173.435 40.8369 172.372 40.8369 171.061V170.228C40.8369 168.917 39.7743 167.854 38.4634 167.854Z" fill="#D1F5FF"/>
<path d="M43.5762 170.644C43.5762 172.186 44.8256 173.435 46.3668 173.435H56.257C57.7982 173.435 59.0473 172.186 59.0473 170.645C59.0473 169.103 57.7979 167.854 56.257 167.854H46.3668C44.8256 167.854 43.5762 169.103 43.5762 170.644Z" fill="#D1F5FF"/>
<path d="M42.2794 198.518H55.0532C57.1005 198.518 58.7603 200.178 58.7603 202.225V213.238C58.7603 215.286 57.1007 216.945 55.0532 216.945H42.2794C40.2321 216.945 38.5723 215.286 38.5723 213.238V202.225C38.5725 200.178 40.2321 198.518 42.2794 198.518Z" fill="#FFBD73"/>
<path d="M247.45 75.6339C249.248 68.5374 249.543 61.3692 248.517 54.5358L250.687 54.2098L254.974 53.5688L255.029 53.5571C253.866 45.7356 251.193 38.2791 247.19 31.5943L241.544 34.9578C237.921 28.9103 233.145 23.5497 227.365 19.3018L231.284 14.0056C225.172 9.44075 218.057 5.98826 210.209 3.99975L208.589 10.3938C201.468 8.58918 194.324 8.30007 187.491 9.32639L186.512 2.81445C178.69 3.97704 171.228 6.67416 164.549 10.6528L167.913 16.2995C161.865 19.9222 156.505 24.6987 152.256 30.4785L146.96 26.5589C142.396 32.6708 138.943 39.7864 136.954 47.634L143.349 49.2544C141.545 56.3755 141.255 63.5191 142.281 70.3522L137.673 71.0405L135.794 71.3376L135.77 71.3315C136.932 79.1524 139.629 86.6153 143.608 93.294L149.255 89.9302C152.877 95.978 157.678 101.344 163.457 105.593L159.538 110.889C165.65 115.453 172.741 118.9 180.589 120.889L182.209 114.494C189.33 116.299 196.498 116.595 203.331 115.568L204.084 120.63L204.31 122.08C212.132 120.917 219.57 118.214 226.248 114.236L222.885 108.589C228.933 104.966 234.299 100.166 238.572 94.3919L243.868 98.3115C248.409 92.1934 251.855 85.1016 253.844 77.2542L247.45 75.6339ZM188.236 90.7099C172.614 86.7511 163.174 70.9037 167.133 55.2813C171.086 39.6832 186.933 30.2441 202.555 34.203C218.153 38.1557 227.593 54.0025 223.64 69.6006C219.682 85.2229 203.834 94.6626 188.236 90.7099Z" stroke="#D2E4FF" stroke-width="3.9266" stroke-miterlimit="10"/>
<path d="M117.848 83.9468C115.447 80.9317 112.536 78.5239 109.345 76.7767L109.9 75.763L110.998 73.7619L111.01 73.7355C107.361 71.7307 103.384 70.4751 99.3071 70.0227L98.9178 73.461C95.2288 73.0525 91.4597 73.3464 87.8378 74.4155L86.8668 71.0851C83.006 72.1924 79.2917 74.0748 75.9575 76.7302L78.1213 79.4469C75.0958 81.8567 72.6985 84.7588 70.9513 87.9497L67.91 86.285C65.9049 89.9339 64.6577 93.9211 64.1973 97.9881L67.6359 98.3774C67.227 102.067 67.5212 105.835 68.59 109.458L65.2596 110.428C66.3672 114.289 68.2491 118.004 70.9048 121.338L73.6217 119.174C76.0313 122.199 78.9333 124.597 82.1245 126.344L80.9448 128.495L80.4705 129.377L80.4601 129.385C84.1087 131.39 88.0962 132.638 92.1629 133.098L92.5525 129.66C96.2418 130.068 100.021 129.766 103.643 128.697L104.614 132.028C108.475 130.921 112.179 129.046 115.513 126.391L113.349 123.674C116.374 121.265 118.782 118.354 120.53 115.163L122.891 116.461L123.571 116.828C125.576 113.179 126.813 109.2 127.273 105.133L123.835 104.743C124.244 101.055 123.942 97.2755 122.883 93.6451L126.213 92.6743C125.096 88.8216 123.221 85.1174 120.566 81.7832L117.848 83.9468ZM105.3 113.569C98.6623 118.856 89.0121 117.763 83.7256 111.126C78.4473 104.499 79.5404 94.8485 86.1777 89.5622C92.8045 84.284 102.454 85.3771 107.733 92.0039C113.02 98.6409 111.926 108.291 105.3 113.569Z" stroke="#D2E4FF" stroke-width="3.9266" stroke-miterlimit="10"/>
<path d="M544.746 296.502C541.975 293.023 538.617 290.244 534.934 288.228L535.574 287.058L536.841 284.749L536.855 284.718C532.644 282.405 528.055 280.956 523.35 280.434L522.901 284.402C518.644 283.93 514.295 284.269 510.115 285.503L508.994 281.66C504.539 282.938 500.252 285.11 496.405 288.174L498.902 291.309C495.411 294.09 492.644 297.439 490.628 301.121L487.119 299.2C484.805 303.411 483.365 308.012 482.834 312.705L486.802 313.155C486.33 317.412 486.67 321.761 487.903 325.941L484.06 327.061C485.338 331.516 487.51 335.803 490.574 339.65L493.709 337.153C496.49 340.645 499.839 343.412 503.521 345.428L502.16 347.909L501.613 348.928L501.601 348.937C505.811 351.251 510.412 352.69 515.105 353.222L515.555 349.254C519.812 349.725 524.172 349.377 528.353 348.143L529.473 351.987C533.928 350.708 538.203 348.546 542.05 345.481L539.553 342.346C543.044 339.566 545.823 336.208 547.839 332.525L550.565 334.022L551.349 334.446C553.662 330.235 555.09 325.644 555.621 320.95L551.653 320.501C552.125 316.244 551.776 311.883 550.554 307.693L554.398 306.573C553.108 302.127 550.945 297.853 547.881 294.005L544.746 296.502ZM530.266 330.686C522.607 336.786 511.471 335.525 505.37 327.866C499.279 320.219 500.541 309.083 508.2 302.982C515.847 296.891 526.983 298.153 533.074 305.8C539.174 313.459 537.913 324.595 530.266 330.686Z" stroke="#00224D" stroke-width="3.9266" stroke-miterlimit="10"/>
<path d="M545.317 383.185H51.8905C50.2758 383.185 48.9668 381.876 48.9668 380.262C48.9668 378.647 50.2758 377.338 51.8905 377.338H545.317C546.932 377.338 548.241 378.647 548.241 380.262C548.241 381.876 546.932 383.185 545.317 383.185Z" fill="#003C99"/>
<path d="M498.105 362.484H102.089C96.761 362.484 92.4414 358.164 92.4414 352.836V107.078C92.4414 101.75 96.761 97.4307 102.089 97.4307H498.105C503.433 97.4307 507.753 101.75 507.753 107.078V352.836C507.752 358.164 503.433 362.484 498.105 362.484Z" fill="#B3D1FF"/>
<path d="M102.089 360.693C97.757 360.693 94.2324 357.169 94.2324 352.836V107.078C94.2324 102.746 97.757 99.2214 102.089 99.2214H498.105C502.438 99.2214 505.962 102.746 505.962 107.078V352.836C505.962 357.169 502.438 360.693 498.105 360.693H102.089Z" fill="black"/>
<path d="M494.144 108.147H106.469V350.537H494.144V108.147Z" fill="#01327E"/>
<path d="M536.16 362.483V368.938C536.16 369.268 536.143 369.594 536.102 369.911C535.623 374.092 532.07 377.339 527.76 377.339H67.0773C62.7668 377.339 59.2173 374.092 58.7385 369.911C58.6973 369.594 58.6797 369.268 58.6797 368.938V362.483H536.16Z" fill="#599AFF"/>
<path d="M536.102 369.911C535.623 374.092 532.07 377.339 527.76 377.339H67.0771C62.7666 377.339 59.2171 374.092 58.7383 369.911H536.102Z" fill="#406EFF"/>
<path opacity="0.3" d="M408.851 305.179H194.208C188.34 305.179 183.582 300.421 183.582 294.552V170.189C183.582 164.32 188.34 159.563 194.208 159.563H408.851C414.72 159.563 419.477 164.32 419.477 170.189V294.552C419.477 300.421 414.72 305.179 408.851 305.179Z" fill="#80B2FF"/>
<path d="M337.277 267.405H302.622C299.69 267.405 297.291 265.005 297.291 262.073C297.291 259.141 299.69 256.742 302.622 256.742H337.277C340.209 256.742 342.608 259.141 342.608 262.073C342.608 265.006 340.209 267.405 337.277 267.405Z" fill="#FF9F34"/>
<path d="M362.444 224.927H286.827C283.895 224.927 281.496 222.528 281.496 219.596C281.496 216.664 283.895 214.265 286.827 214.265H362.444C365.376 214.265 367.775 216.664 367.775 219.596C367.776 222.528 365.376 224.927 362.444 224.927Z" fill="white"/>
<path d="M362.444 244.998H286.827C283.895 244.998 281.496 242.599 281.496 239.667C281.496 236.734 283.895 234.335 286.827 234.335H362.444C365.376 234.335 367.775 236.735 367.775 239.667C367.776 242.599 365.376 244.998 362.444 244.998Z" fill="white"/>
<path d="M299.621 240.139C299.621 241.176 298.781 242.016 297.744 242.016C296.708 242.016 295.867 241.176 295.867 240.139C295.867 239.102 296.708 238.262 297.744 238.262C298.781 238.262 299.621 239.103 299.621 240.139Z" fill="#80B2FF"/>
<path d="M306.057 240.139C306.057 241.176 305.217 242.016 304.18 242.016C303.143 242.016 302.303 241.176 302.303 240.139C302.303 239.102 303.143 238.262 304.18 238.262C305.217 238.262 306.057 239.103 306.057 240.139Z" fill="#80B2FF"/>
<path d="M312.492 240.139C312.492 241.176 311.652 242.016 310.615 242.016C309.579 242.016 308.738 241.176 308.738 240.139C308.738 239.102 309.579 238.262 310.615 238.262C311.652 238.262 312.492 239.103 312.492 240.139Z" fill="#80B2FF"/>
<path d="M318.928 240.139C318.928 241.176 318.088 242.016 317.051 242.016C316.014 242.016 315.174 241.176 315.174 240.139C315.174 239.102 316.014 238.262 317.051 238.262C318.087 238.262 318.928 239.103 318.928 240.139Z" fill="#80B2FF"/>
<path d="M325.364 240.139C325.364 241.176 324.523 242.016 323.486 242.016C322.45 242.016 321.609 241.176 321.609 240.139C321.609 239.102 322.45 238.262 323.486 238.262C324.523 238.262 325.364 239.103 325.364 240.139Z" fill="#80B2FF"/>
<path d="M331.797 240.139C331.797 241.176 330.957 242.016 329.92 242.016C328.883 242.016 328.043 241.176 328.043 240.139C328.043 239.102 328.883 238.262 329.92 238.262C330.957 238.262 331.797 239.103 331.797 240.139Z" fill="#80B2FF"/>
<path d="M338.233 240.139C338.233 241.176 337.392 242.016 336.356 242.016C335.319 242.016 334.479 241.176 334.479 240.139C334.479 239.102 335.319 238.262 336.356 238.262C337.392 238.262 338.233 239.103 338.233 240.139Z" fill="#80B2FF"/>
<path d="M344.668 240.139C344.668 241.176 343.828 242.016 342.791 242.016C341.754 242.016 340.914 241.176 340.914 240.139C340.914 239.102 341.754 238.262 342.791 238.262C343.828 238.262 344.668 239.103 344.668 240.139Z" fill="#80B2FF"/>
<path d="M351.104 240.139C351.104 241.176 350.263 242.016 349.227 242.016C348.19 242.016 347.35 241.176 347.35 240.139C347.35 239.102 348.19 238.262 349.227 238.262C350.263 238.262 351.104 239.103 351.104 240.139Z" fill="#80B2FF"/>
<path d="M322.306 202.11C328.456 202.11 333.442 197.124 333.442 190.973C333.442 184.823 328.456 179.837 322.306 179.837C316.156 179.837 311.17 184.823 311.17 190.973C311.17 197.124 316.156 202.11 322.306 202.11Z" fill="white"/>
<path d="M322.321 190.525C323.408 190.525 324.412 189.995 325.054 189.187C325.527 188.601 325.806 187.849 325.806 187.012C325.806 185.089 324.245 183.499 322.321 183.499C320.37 183.499 318.809 185.089 318.809 187.012C318.809 187.849 319.087 188.601 319.561 189.187C320.203 189.996 321.206 190.525 322.321 190.525Z" fill="#005CEA"/>
<path d="M328.494 196.784C328.494 199.001 316.115 199.001 316.115 196.784L316.119 194.201C316.608 190.67 327.488 190.521 328.497 194.201L328.494 196.784Z" fill="#005CEA"/>
<path d="M298.266 238.684V238.398C298.266 237.241 297.325 236.3 296.168 236.3C295.011 236.3 294.07 237.241 294.07 238.398V238.684H293.752V242.464C293.752 243.118 298.598 243.118 298.598 242.464V238.684H298.266ZM294.818 238.398C294.818 237.672 295.266 237.013 296.168 237.013C297.07 237.013 297.533 237.63 297.533 238.398V238.684H294.818V238.398ZM296.525 240.588V241.68C296.525 241.876 296.357 242.016 296.161 242.016C295.965 242.016 295.825 241.877 295.825 241.68V240.588C295.629 240.476 295.489 240.28 295.489 240.028C295.489 239.664 295.797 239.356 296.161 239.356C296.525 239.356 296.833 239.664 296.833 240.028C296.833 240.28 296.693 240.476 296.525 240.588Z" fill="#4D4D4D"/>
<path d="M289.18 219.209C289.604 219.209 289.996 219.002 290.246 218.687C290.431 218.458 290.54 218.165 290.54 217.838C290.54 217.087 289.93 216.467 289.18 216.467C288.418 216.467 287.809 217.087 287.809 217.838C287.809 218.165 287.917 218.458 288.103 218.687C288.352 219.003 288.744 219.209 289.18 219.209Z" fill="#4D4D4D"/>
<path d="M291.589 221.653C291.589 222.518 286.732 222.518 286.732 221.653L286.759 220.644C286.95 219.266 291.196 219.208 291.59 220.644L291.589 221.653Z" fill="#4D4D4D"/>
<path d="M317.068 221.161H297.432C296.571 221.161 295.867 220.457 295.867 219.596C295.867 218.736 296.571 218.032 297.432 218.032H317.068C317.929 218.032 318.633 218.736 318.633 219.596C318.633 220.457 317.929 221.161 317.068 221.161Z" fill="#80B2FF"/>
<path d="M304.9 209.745H285.939C285.079 209.745 284.375 209.041 284.375 208.181C284.375 207.321 285.079 206.616 285.939 206.616H304.9C305.76 206.616 306.464 207.321 306.464 208.181C306.464 209.041 305.76 209.745 304.9 209.745Z" fill="#80B2FF"/>
<path d="M342.969 221.161H323.332C322.472 221.161 321.768 220.457 321.768 219.596C321.768 218.736 322.472 218.032 323.332 218.032H342.969C343.829 218.032 344.533 218.736 344.533 219.596C344.533 220.457 343.829 221.161 342.969 221.161Z" fill="#80B2FF"/>
<path d="M222.307 218.896V246.551C222.307 249.624 259.909 249.624 259.909 246.551V218.896H222.307Z" fill="white"/>
<path d="M241.107 233.984C243.671 233.984 245.75 231.906 245.75 229.342C245.75 226.778 243.671 224.699 241.107 224.699C238.543 224.699 236.465 226.778 236.465 229.342C236.465 231.906 238.543 233.984 241.107 233.984Z" fill="#005CEA"/>
<path d="M241.108 243.323C240.057 243.323 239.205 242.471 239.205 241.42V230.772H243.011V241.42C243.011 242.471 242.159 243.323 241.108 243.323Z" fill="#005CEA"/>
<path d="M256.614 216.926H252.809V215.064C252.809 208.612 247.56 203.363 241.108 203.363C234.656 203.363 229.407 208.612 229.407 215.064V216.926H225.602V215.064C225.602 206.513 232.558 199.558 241.108 199.558C249.658 199.558 256.614 206.514 256.614 215.064L256.614 216.926Z" fill="white"/>
<path d="M455.674 174.539C455.675 174.339 455.675 174.251 455.675 174.23C455.675 174.268 455.674 174.539 455.674 174.539Z" fill="#D9FFFF"/>
<path d="M455.674 174.539C455.675 174.339 455.675 174.251 455.675 174.23C455.675 174.268 455.674 174.539 455.674 174.539Z" fill="#D9FFFF"/>
<path d="M575.131 175.073C575.131 175.073 575.132 174.802 575.132 174.765C575.132 174.785 575.132 174.873 575.131 175.073Z" fill="#D9FFFF"/>
<path d="M575.131 175.073C575.131 175.073 575.132 174.802 575.132 174.765C575.132 174.785 575.132 174.873 575.131 175.073Z" fill="#D9FFFF"/>
<path d="M515.623 146.469C502.4 160.633 481.3 172.242 458.721 177.188C458.714 178.696 458.677 187.051 458.505 225.56C458.275 276.93 507.164 302.033 514.754 305.886C522.108 302.501 571.614 277.437 571.844 226.066C572.016 187.557 572.053 179.203 572.06 177.695C549.526 172.547 528.72 160.751 515.623 146.469Z" fill="white"/>
<path d="M515.504 152.04C501.872 164.545 482.986 174.374 462.219 179.731L462.014 225.55C461.921 246.516 470.25 265.482 486.771 281.925C497.626 292.729 509.04 299.429 514.831 302.442C515.08 302.316 515.353 302.173 515.622 302.033V152.147C515.583 152.111 515.542 152.076 515.504 152.04Z" fill="#80B2FF"/>
<path d="M515.623 152.147V302.033C521.645 298.9 532.592 292.424 543.074 282.177C559.741 265.883 568.24 246.991 568.333 226.026L568.538 180.205C547.879 174.68 529.133 164.722 515.623 152.147Z" fill="#4D93FF"/>
<path d="M557.232 198.073C541.422 200.511 519.894 214.931 506.312 232.269C504.407 224.094 495.854 216.63 491.38 214.999L477.824 228.625C486.288 232.439 495.538 243.247 496.764 254.311L510.306 256.409C516.015 245.131 530.76 218.155 560.095 203.649C559.53 201.442 557.459 198.388 557.232 198.073Z" fill="#0046B3"/>
</svg>
