<svg width="88" height="82" viewBox="0 0 88 82" fill="none" xmlns="http://www.w3.org/2000/svg">
<g filter="url(#filter0_d_110_929)">
<rect width="48" height="48" rx="24" transform="matrix(-1 0 0 1 68 10)" fill="#C7763E" shape-rendering="crispEdges"/>
<path d="M38.9982 24.9849C39.1143 24.8685 39.2522 24.7761 39.4041 24.7131C39.5559 24.6501 39.7187 24.6177 39.8832 24.6177C40.0476 24.6177 40.2104 24.6501 40.3622 24.7131C40.5141 24.7761 40.652 24.8685 40.7682 24.9849L49.0782 33.2949C49.1709 33.3874 49.2444 33.4973 49.2946 33.6183C49.3448 33.7393 49.3706 33.8689 49.3706 33.9999C49.3706 34.1309 49.3448 34.2606 49.2946 34.3815C49.2444 34.5025 49.1709 34.6124 49.0782 34.7049L40.7682 43.0149C40.2782 43.5049 39.4882 43.5049 38.9982 43.0149C38.5082 42.5249 38.5082 41.7349 38.9982 41.2449L46.2382 33.9949L38.9882 26.7449C38.5082 26.2649 38.5082 25.4649 38.9982 24.9849Z" fill="#FFF0D9"/>
</g>
<defs>
<filter id="filter0_d_110_929" x="0" y="0" width="88" height="88" filterUnits="userSpaceOnUse" color-interpolation-filters="sRGB">
<feFlood flood-opacity="0" result="BackgroundImageFix"/>
<feColorMatrix in="SourceAlpha" type="matrix" values="0 0 0 0 0 0 0 0 0 0 0 0 0 0 0 0 0 0 127 0" result="hardAlpha"/>
<feOffset dy="10"/>
<feGaussianBlur stdDeviation="10"/>
<feComposite in2="hardAlpha" operator="out"/>
<feColorMatrix type="matrix" values="0 0 0 0 0 0 0 0 0 0 0 0 0 0 0 0 0 0 0.25 0"/>
<feBlend mode="normal" in2="BackgroundImageFix" result="effect1_dropShadow_110_929"/>
<feBlend mode="normal" in="SourceGraphic" in2="effect1_dropShadow_110_929" result="shape"/>
</filter>
</defs>
</svg>
