<svg width="32" height="33" viewBox="0 0 32 33" fill="none" xmlns="http://www.w3.org/2000/svg">
  <path
    d="M31.6888 13.3664H30.4V13.3H16V19.7H25.0424C23.7232 23.4256 20.1784 26.1 16 26.1C10.6984 26.1 6.4 21.8016 6.4 16.5C6.4 11.1984 10.6984 6.9 16 6.9C18.4472 6.9 20.6736 7.8232 22.3688 9.3312L26.8944 4.8056C24.0368 2.1424 20.2144 0.5 16 0.5C7.164 0.5 0 7.664 0 16.5C0 25.336 7.164 32.5 16 32.5C24.836 32.5 32 25.336 32 16.5C32 15.4272 31.8896 14.38 31.6888 13.3664Z"
    fill="#FFC107" />
  <path
    d="M1.84473 9.0528L7.10152 12.908C8.52392 9.3864 11.9687 6.9 15.9999 6.9C18.4471 6.9 20.6735 7.8232 22.3687 9.3312L26.8943 4.8056C24.0367 2.1424 20.2143 0.5 15.9999 0.5C9.85432 0.5 4.52473 3.9696 1.84473 9.0528Z"
    fill="#FF3D00" />
  <path
    d="M16.0001 32.5C20.1329 32.5 23.8881 30.9184 26.7273 28.3464L21.7753 24.156C20.1152 25.4192 18.0862 26.1022 16.0001 26.1C11.8385 26.1 8.3049 23.4464 6.9737 19.7432L1.7561 23.7632C4.4041 28.9448 9.7817 32.5 16.0001 32.5Z"
    fill="#4CAF50" />
  <path
    d="M31.6888 13.3664H30.4V13.3H16V19.7H25.0424C24.4114 21.4731 23.2747 23.0225 21.7728 24.1568L21.7752 24.1552L26.7272 28.3456C26.3768 28.664 32 24.5 32 16.5C32 15.4272 31.8896 14.38 31.6888 13.3664Z"
    fill="#1976D2" />
</svg>