<svg width="37" height="41" viewBox="0 0 37 41" fill="none" xmlns="http://www.w3.org/2000/svg">
<path d="M17.3038 19.605L0.524414 37.1847C0.712845 37.8525 1.05146 38.4684 1.51438 38.9852C1.9773 39.5021 2.55226 39.9062 3.19531 40.1668C3.83837 40.4274 4.53249 40.5375 5.22462 40.4887C5.91675 40.4399 6.58856 40.2335 7.18871 39.8853L26.0687 29.1326L17.3038 19.605Z" fill="#EA4335"/>
<path d="M34.2703 16.6168L26.106 11.9404L16.916 20.0049L26.1434 29.1074L34.2456 24.4811C34.9633 24.1053 35.5645 23.5402 35.984 22.847C36.4035 22.1539 36.6252 21.3591 36.6252 20.5489C36.6252 19.7387 36.4035 18.944 35.984 18.2508C35.5645 17.5577 34.9633 16.9925 34.2456 16.6167L34.2703 16.6168Z" fill="#FBBC04"/>
<path d="M0.52417 3.82617C0.422807 4.20113 0.372321 4.58802 0.374067 4.97644V36.0346C0.375068 36.4229 0.425508 36.8095 0.52417 37.185L17.8788 20.0554L0.52417 3.82617Z" fill="#4285F4"/>
<path d="M17.4288 20.5053L26.1062 11.9405L7.2513 1.13766C6.54188 0.722219 5.73505 0.502199 4.91294 0.500009C2.87282 0.496044 1.07923 1.85009 0.524414 3.81346L17.4288 20.5053Z" fill="#34A853"/>
</svg>
