<svg width="80" height="80" viewBox="0 0 80 80" fill="none" xmlns="http://www.w3.org/2000/svg">
<rect width="80" height="80" rx="40" fill="#FFF0D9"/>
<path d="M35.9578 56L31.8225 48.1924L23.9753 44.0176L26.1182 41.8866L32.9483 43.048L38.9831 37.0133L24.1396 30.6778L26.8859 27.9473L44.9407 31.0438L51.1139 24.833C51.6679 24.2777 52.3472 24 53.1519 24C53.9565 24 54.6358 24.2777 55.1898 24.833C55.7465 25.3883 56.0248 26.0663 56.0248 26.867C56.0248 27.6677 55.7471 28.3457 55.1918 28.901L48.9691 35.0842L52.0676 53.129L49.3094 55.8872L42.9996 41.0437L36.9649 47.0785L38.0986 53.8591L35.9578 56Z" fill="#15253B"/>
</svg>
