<svg width="80" height="80" viewBox="0 0 80 80" fill="none" xmlns="http://www.w3.org/2000/svg">
<rect width="80" height="80" rx="40" fill="#C7763E"/>
<path d="M25.7778 38.2222C25.2741 38.2222 24.8521 38.0516 24.512 37.7102C24.1719 37.3689 24.0012 36.947 24 36.4444V25.7778C24 25.2741 24.1707 24.8521 24.512 24.512C24.8533 24.1719 25.2753 24.0012 25.7778 24H36.4444C36.9481 24 37.3707 24.1707 37.712 24.512C38.0533 24.8533 38.2234 25.2753 38.2222 25.7778V36.4444C38.2222 36.9481 38.0516 37.3707 37.7102 37.712C37.3689 38.0533 36.947 38.2234 36.4444 38.2222H25.7778ZM43.5556 38.2222C43.0518 38.2222 42.6299 38.0516 42.2898 37.7102C41.9496 37.3689 41.779 36.947 41.7778 36.4444V25.7778C41.7778 25.2741 41.9484 24.8521 42.2898 24.512C42.6311 24.1719 43.053 24.0012 43.5556 24H54.2222C54.7259 24 55.1484 24.1707 55.4898 24.512C55.8311 24.8533 56.0012 25.2753 56 25.7778V36.4444C56 36.9481 55.8293 37.3707 55.488 37.712C55.1467 38.0533 54.7247 38.2234 54.2222 38.2222H43.5556ZM25.7778 56C25.2741 56 24.8521 55.8293 24.512 55.488C24.1719 55.1467 24.0012 54.7247 24 54.2222V43.5556C24 43.0518 24.1707 42.6299 24.512 42.2898C24.8533 41.9496 25.2753 41.779 25.7778 41.7778H36.4444C36.9481 41.7778 37.3707 41.9484 37.712 42.2898C38.0533 42.6311 38.2234 43.053 38.2222 43.5556V54.2222C38.2222 54.7259 38.0516 55.1484 37.7102 55.4898C37.3689 55.8311 36.947 56.0012 36.4444 56H25.7778ZM48.8889 56C48.3852 56 47.9633 55.8293 47.6231 55.488C47.283 55.1467 47.1123 54.7247 47.1111 54.2222V50.6667H43.5111C43.0074 50.6667 42.5926 50.496 42.2667 50.1547C41.9407 49.8133 41.7778 49.3914 41.7778 48.8889C41.7778 48.3864 41.9484 47.9644 42.2898 47.6231C42.6311 47.2818 43.053 47.1111 43.5556 47.1111H47.1111V43.5111C47.1111 43.0074 47.2818 42.5926 47.6231 42.2667C47.9644 41.9407 48.3864 41.7778 48.8889 41.7778C49.3914 41.7778 49.8139 41.9484 50.1564 42.2898C50.499 42.6311 50.669 43.053 50.6667 43.5556V47.1111H54.2667C54.7704 47.1111 55.1852 47.2818 55.5111 47.6231C55.837 47.9644 56 48.3864 56 48.8889C56 49.3914 55.8293 49.8139 55.488 50.1564C55.1467 50.499 54.7247 50.669 54.2222 50.6667H50.6667V54.2667C50.6667 54.7704 50.496 55.1852 50.1547 55.5111C49.8133 55.837 49.3914 56 48.8889 56Z" fill="white"/>
</svg>
