<svg width="24" height="25" viewBox="0 0 24 25" fill="none" xmlns="http://www.w3.org/2000/svg">
<path d="M13.2337 0.263672C14.5837 0.267272 15.2689 0.274472 15.8605 0.291272L16.0933 0.299672C16.3621 0.309272 16.6273 0.321272 16.9477 0.335672C18.2245 0.395671 19.0957 0.597271 19.8601 0.893669C20.6521 1.19847 21.3193 1.61127 21.9865 2.27726C22.5969 2.87694 23.0691 3.60263 23.3701 4.40366C23.6665 5.16805 23.8681 6.03925 23.9281 7.31724C23.9425 7.63644 23.9545 7.90164 23.9641 8.17164L23.9713 8.40444C23.9893 8.99484 23.9965 9.68003 23.9989 11.03L24.0001 11.9252V13.4972C24.003 14.3725 23.9938 15.2478 23.9725 16.1228L23.9653 16.3556C23.9557 16.6256 23.9437 16.8908 23.9293 17.21C23.8693 18.488 23.6653 19.358 23.3701 20.1236C23.0691 20.9246 22.5969 21.6503 21.9865 22.25C21.3868 22.8604 20.6611 23.3326 19.8601 23.6336C19.0957 23.93 18.2245 24.1316 16.9477 24.1916L16.0933 24.2276L15.8605 24.2348C15.2689 24.2516 14.5837 24.26 13.2337 24.2624L12.3385 24.2636H10.7678C9.89207 24.2667 9.01639 24.2575 8.14096 24.236L7.90816 24.2288C7.6233 24.218 7.33849 24.2056 7.05377 24.1916C5.77697 24.1316 4.90578 23.93 4.14018 23.6336C3.33958 23.3324 2.61432 22.8603 2.01499 22.25C1.40412 21.6504 0.931521 20.9247 0.630192 20.1236C0.333793 19.3592 0.132194 18.488 0.0721939 17.21L0.0361941 16.3556L0.0301943 16.1228C0.00807361 15.2478 -0.00192743 14.3725 0.000194272 13.4972V11.03C-0.00312719 10.1548 0.00567371 9.27947 0.0265943 8.40444L0.0349942 8.17164C0.0445942 7.90164 0.0565941 7.63644 0.070994 7.31724C0.130994 6.03925 0.332593 5.16925 0.628992 4.40366C0.931024 3.6023 1.40446 2.87658 2.01619 2.27726C2.61517 1.66712 3.34001 1.19496 4.14018 0.893669C4.90578 0.597271 5.77577 0.395671 7.05377 0.335672C7.37296 0.321272 7.63936 0.309272 7.90816 0.299672L8.14096 0.292472C9.01599 0.271151 9.89127 0.26195 10.7666 0.264872L13.2337 0.263672ZM12.0001 6.26365C10.4089 6.26365 8.88274 6.89579 7.75752 8.021C6.63231 9.14621 6.00017 10.6723 6.00017 12.2636C6.00017 13.8549 6.63231 15.381 7.75752 16.5062C8.88274 17.6315 10.4089 18.2636 12.0001 18.2636C13.5914 18.2636 15.1176 17.6315 16.2428 16.5062C17.368 15.381 18.0001 13.8549 18.0001 12.2636C18.0001 10.6723 17.368 9.14621 16.2428 8.021C15.1176 6.89579 13.5914 6.26365 12.0001 6.26365ZM12.0001 8.66364C12.4729 8.66356 12.941 8.7566 13.3778 8.93744C13.8146 9.11829 14.2116 9.38339 14.5459 9.71763C14.8802 10.0519 15.1455 10.4487 15.3265 10.8854C15.5075 11.3222 15.6007 11.7903 15.6007 12.263C15.6008 12.7358 15.5078 13.2039 15.3269 13.6407C15.1461 14.0775 14.881 14.4744 14.5467 14.8088C14.2125 15.1431 13.8157 15.4084 13.379 15.5893C12.9422 15.7703 12.4741 15.8635 12.0013 15.8636C11.0466 15.8636 10.1309 15.4843 9.45577 14.8092C8.78064 14.1341 8.40136 13.2184 8.40136 12.2636C8.40136 11.3088 8.78064 10.3932 9.45577 9.71805C10.1309 9.04292 11.0466 8.66364 12.0013 8.66364M18.3013 4.46365C17.9035 4.46365 17.522 4.62169 17.2407 4.90299C16.9594 5.1843 16.8013 5.56583 16.8013 5.96365C16.8013 6.36147 16.9594 6.743 17.2407 7.0243C17.522 7.30561 17.9035 7.46364 18.3013 7.46364C18.6991 7.46364 19.0807 7.30561 19.362 7.0243C19.6433 6.743 19.8013 6.36147 19.8013 5.96365C19.8013 5.56583 19.6433 5.1843 19.362 4.90299C19.0807 4.62169 18.6991 4.46365 18.3013 4.46365Z" fill="#15253B"/>
</svg>
