<svg width="33" height="25" viewBox="0 0 33 25" fill="none" xmlns="http://www.w3.org/2000/svg">
<path fill-rule="evenodd" clip-rule="evenodd" d="M11.9752 14.3981L16.5032 17.4941L20.868 14.4829L30.652 24.1357C30.3944 24.2189 30.1192 24.2637 29.8328 24.2637H3.1672C2.8152 24.2637 2.4792 24.1949 2.1704 24.0717L11.9752 14.3981ZM32.5 6.46527V21.5965C32.5 21.9917 32.4136 22.3661 32.26 22.7037L22.6696 13.2413L32.5 6.46527ZM0.500002 6.55007L10.1672 13.1613L0.669602 22.5341C0.557115 22.2343 0.49966 21.9167 0.500002 21.5965V6.55007ZM29.8328 0.263672C31.3048 0.263672 32.5 1.45727 32.5 2.93087V3.86847L16.4968 14.9005L0.500002 3.95967V2.93087C0.500002 1.45887 1.6936 0.263672 3.1672 0.263672H29.8328Z" fill="#C7763E"/>
</svg>
