<svg width="25" height="24" viewBox="0 0 25 24" fill="none" xmlns="http://www.w3.org/2000/svg">
<path d="M23.1 24C20.2333 24 17.4391 23.3609 14.7173 22.0827C11.9956 20.8044 9.58444 19.1156 7.484 17.016C5.38356 14.9164 3.69467 12.5053 2.41733 9.78267C1.14 7.06 0.500889 4.26578 0.5 1.4C0.5 1 0.633333 0.666667 0.9 0.4C1.16667 0.133333 1.5 0 1.9 0H7.3C7.61111 0 7.88889 0.0999999 8.13333 0.3C8.37778 0.5 8.52222 0.755556 8.56667 1.06667L9.43333 5.73333C9.47778 6.04444 9.472 6.328 9.416 6.584C9.36 6.84 9.23244 7.06756 9.03333 7.26667L5.83333 10.5333C6.76667 12.1333 7.93333 13.6333 9.33333 15.0333C10.7333 16.4333 12.2778 17.6444 13.9667 18.6667L17.1 15.5333C17.3 15.3333 17.5613 15.1836 17.884 15.084C18.2067 14.9844 18.5231 14.9564 18.8333 15L23.4333 15.9333C23.7444 16 24 16.1502 24.2 16.384C24.4 16.6178 24.5 16.8898 24.5 17.2V22.6C24.5 23 24.3667 23.3333 24.1 23.6C23.8333 23.8667 23.5 24 23.1 24Z" fill="white"/>
</svg>
