<svg width="21" height="21" viewBox="0 0 21 21" fill="none" xmlns="http://www.w3.org/2000/svg">
<path d="M19.8878 17.2324C20.3967 17.4301 20.9995 17.1336 20.9995 16.6766V0.618143C20.9995 0.161096 20.3967 -0.135368 19.8878 0.0622744C19.0441 0.568733 18.2683 1.08754 17.5173 1.5903C14.8738 3.35672 12.5528 4.90945 8.76667 4.94157H3.70579C1.65525 4.94157 0 6.59682 0 8.64736C0 10.6979 1.65525 12.3532 3.70579 12.3532H8.64685C12.5046 12.3532 14.8479 13.9195 17.5185 15.7057C18.2683 16.2072 19.0453 16.726 19.8878 17.2324ZM9.88211 21H8.90625C8.37509 21 7.90569 20.6665 7.74511 20.1724L5.02752 14.8237H9.88211C10.2097 14.8237 10.5239 14.9538 10.7556 15.1855C10.9872 15.4171 11.1174 15.7313 11.1174 16.0589V19.7647C11.1174 20.4441 10.5615 21 9.88211 21Z" fill="white"/>
</svg>
