<svg width="20" height="20" viewBox="0 0 20 20" fill="none" xmlns="http://www.w3.org/2000/svg">
<path d="M19.202 6.12501C18.7012 4.92977 17.9726 3.84337 17.0569 2.92636C16.1439 2.00776 15.0594 1.27743 13.8649 0.776806C12.6413 0.261469 11.3266 -0.0026898 9.99886 2.06485e-05H9.95422C8.60378 0.00671707 7.29797 0.274574 6.06806 0.801359C4.88385 1.30712 3.80952 2.03875 2.90512 2.95537C1.99827 3.87032 1.27805 4.95292 0.784586 6.14287C0.272349 7.38029 0.0127936 8.70766 0.0211937 10.0469C0.0278901 11.596 0.398425 13.1339 1.09039 14.5089V17.9018C1.09039 18.4688 1.55021 18.9286 2.11494 18.9286H5.50333C6.88474 19.6257 8.40915 19.9924 9.95645 20H10.0033C11.3381 20 12.6306 19.7411 13.8493 19.2344C15.0377 18.7397 16.1182 18.0179 17.0301 17.1094C17.9497 16.1964 18.673 15.1295 19.1797 13.9397C19.7042 12.7076 19.9721 11.3973 19.9788 10.0447C19.9832 8.68528 19.7198 7.36608 19.202 6.12501ZM5.54351 11.0714C4.95422 11.0714 4.47431 10.5915 4.47431 10C4.47431 9.40849 4.95422 8.92858 5.54351 8.92858C6.1328 8.92858 6.61271 9.40849 6.61271 10C6.61271 10.5915 6.13503 11.0714 5.54351 11.0714ZM9.99886 11.0714C9.40958 11.0714 8.92967 10.5915 8.92967 10C8.92967 9.40849 9.40958 8.92858 9.99886 8.92858C10.5881 8.92858 11.0681 9.40849 11.0681 10C11.0681 10.5915 10.5881 11.0714 9.99886 11.0714ZM14.4542 11.0714C13.8649 11.0714 13.385 10.5915 13.385 10C13.385 9.40849 13.8649 8.92858 14.4542 8.92858C15.0435 8.92858 15.5234 9.40849 15.5234 10C15.5234 10.5915 15.0435 11.0714 14.4542 11.0714Z" fill="white"/>
</svg>
