<svg width="20" height="16" viewBox="0 0 20 16" fill="none" xmlns="http://www.w3.org/2000/svg">
<path d="M3.21429 0C2.3618 0 1.54424 0.338647 0.941442 0.941442C0.338647 1.54424 0 2.3618 0 3.21429V4.28571H20V3.21429C20 2.3618 19.6614 1.54424 19.0586 0.941442C18.4558 0.338647 17.6382 0 16.7857 0H3.21429ZM0 12.5V5.71429H20V12.5C20 13.3525 19.6614 14.17 19.0586 14.7728C18.4558 15.3756 17.6382 15.7143 16.7857 15.7143H3.21429C2.3618 15.7143 1.54424 15.3756 0.941442 14.7728C0.338647 14.17 0 13.3525 0 12.5ZM13.5714 10C13.382 10 13.2003 10.0753 13.0664 10.2092C12.9324 10.3432 12.8571 10.5248 12.8571 10.7143C12.8571 10.9037 12.9324 11.0854 13.0664 11.2194C13.2003 11.3533 13.382 11.4286 13.5714 11.4286H15.7143C15.9037 11.4286 16.0854 11.3533 16.2194 11.2194C16.3533 11.0854 16.4286 10.9037 16.4286 10.7143C16.4286 10.5248 16.3533 10.3432 16.2194 10.2092C16.0854 10.0753 15.9037 10 15.7143 10H13.5714Z" fill="white"/>
</svg>
