<svg width="24" height="25" viewBox="0 0 24 25" fill="none" xmlns="http://www.w3.org/2000/svg">
<path d="M22.6 24.2637C19.7333 24.2637 16.9391 23.6246 14.2173 22.3463C11.4956 21.0681 9.08444 19.3792 6.984 17.2797C4.88356 15.1801 3.19467 12.769 1.91733 10.0463C0.64 7.32367 0.000888889 4.52945 0 1.66367C0 1.26367 0.133333 0.930339 0.4 0.663672C0.666667 0.397005 1 0.263672 1.4 0.263672H6.8C7.11111 0.263672 7.38889 0.363672 7.63333 0.563672C7.87778 0.763672 8.02222 1.01923 8.06667 1.33034L8.93333 5.99701C8.97778 6.30812 8.972 6.59167 8.916 6.84767C8.86 7.10367 8.73244 7.33123 8.53333 7.53034L5.33333 10.797C6.26667 12.397 7.43333 13.897 8.83333 15.297C10.2333 16.697 11.7778 17.9081 13.4667 18.9303L16.6 15.797C16.8 15.597 17.0613 15.4472 17.384 15.3477C17.7067 15.2481 18.0231 15.2201 18.3333 15.2637L22.9333 16.197C23.2444 16.2637 23.5 16.4139 23.7 16.6477C23.9 16.8815 24 17.1535 24 17.4637V22.8637C24 23.2637 23.8667 23.597 23.6 23.8637C23.3333 24.1303 23 24.2637 22.6 24.2637Z" fill="#C7763E"/>
</svg>
