<svg width="33" height="24" viewBox="0 0 33 24" fill="none" xmlns="http://www.w3.org/2000/svg">
<path fill-rule="evenodd" clip-rule="evenodd" d="M11.9752 14.1344L16.5032 17.2304L20.868 14.2192L30.652 23.872C30.3944 23.9552 30.1192 24 29.8328 24H3.1672C2.8152 24 2.4792 23.9312 2.1704 23.808L11.9752 14.1344ZM32.5 6.2016V21.3328C32.5 21.728 32.4136 22.1024 32.26 22.44L22.6696 12.9776L32.5 6.2016ZM0.500002 6.2864L10.1672 12.8976L0.669602 22.2704C0.557115 21.9706 0.49966 21.653 0.500002 21.3328V6.2864ZM29.8328 0C31.3048 0 32.5 1.1936 32.5 2.6672V3.6048L16.4968 14.6368L0.500002 3.696V2.6672C0.500002 1.1952 1.6936 0 3.1672 0H29.8328Z" fill="white"/>
</svg>
