<svg width="101" height="81" viewBox="0 0 101 81" fill="none" xmlns="http://www.w3.org/2000/svg">
<path d="M8.48644 11.96C15.5014 4.355 26.1164 0.5 40.0314 0.5H45.0314V14.595L41.0114 15.4C34.1614 16.77 29.3964 19.465 26.8464 23.42C25.5155 25.5505 24.7608 27.9901 24.6564 30.5H40.0314C41.3575 30.5 42.6293 31.0268 43.567 31.9645C44.5047 32.9021 45.0314 34.1739 45.0314 35.5V70.5C45.0314 76.015 40.5464 80.5 35.0314 80.5H5.03144C3.70536 80.5 2.43359 79.9732 1.49591 79.0355C0.558223 78.0979 0.0314392 76.8261 0.0314392 75.5V50.5L0.0464393 35.905C0.00143926 35.35 -0.948561 22.2 8.48644 11.96ZM90.0314 80.5H60.0314C58.7054 80.5 57.4336 79.9732 56.4959 79.0355C55.5582 78.0979 55.0314 76.8261 55.0314 75.5V50.5L55.0464 35.905C55.0014 35.35 54.0514 22.2 63.4864 11.96C70.5014 4.355 81.1164 0.5 95.0314 0.5H100.031V14.595L96.0114 15.4C89.1614 16.77 84.3964 19.465 81.8465 23.42C80.5155 25.5505 79.7608 27.9901 79.6564 30.5H95.0314C96.3575 30.5 97.6293 31.0268 98.567 31.9645C99.5047 32.9021 100.031 34.1739 100.031 35.5V70.5C100.031 76.015 95.5464 80.5 90.0314 80.5Z" fill="#FFF0D9" fill-opacity="0.2"/>
</svg>
