<svg width="36" height="30" viewBox="0 0 36 30" fill="none" xmlns="http://www.w3.org/2000/svg">
<path fill-rule="evenodd" clip-rule="evenodd" d="M13.1293 0.262555C5.5993 5.09855 1.41596 10.7276 0.579296 17.1496C-0.723704 27.1466 8.2163 32.0396 12.7463 27.6436C17.2763 23.2476 14.5613 17.6666 11.2813 16.1406C8.0013 14.6146 5.9953 15.1466 6.3453 13.1076C6.6953 11.0686 11.3613 5.41755 15.4613 2.78555C15.6064 2.66187 15.6989 2.48758 15.7201 2.29811C15.7413 2.10864 15.6895 1.91822 15.5753 1.76555L14.5613 0.446555C14.1213 -0.125445 13.6993 -0.103446 13.1293 0.261554M32.9553 0.262555C25.4253 5.09855 21.242 10.7276 20.4053 17.1496C19.1013 27.1466 28.0413 32.0396 32.5713 27.6436C37.1013 23.2476 34.3863 17.6666 31.1053 16.1406C27.8243 14.6146 25.8193 15.1466 26.1693 13.1076C26.5193 11.0686 31.1863 5.41755 35.2863 2.78555C35.4312 2.66173 35.5236 2.48737 35.5446 2.29791C35.5656 2.10844 35.5136 1.9181 35.3993 1.76555L34.3863 0.446555C33.9463 -0.125445 33.5243 -0.103446 32.9553 0.261554" fill="#15253B"/>
</svg>
