<svg width="342" height="200" viewBox="0 0 342 200" fill="none" xmlns="http://www.w3.org/2000/svg">
<g opacity="0.68">
<g opacity="0.47">
<path d="M37.4092 107.347C38.7616 94.4363 45.2673 81.5042 56.5346 72.2618C74.0917 57.8608 100.65 54.2313 123.926 57.5603C133.675 58.9547 143.343 61.4248 153.326 60.6476C167.886 59.5141 180.711 51.7406 193.967 46.0427C212.012 38.2864 232.696 34.1118 251.88 37.4872C273.631 41.314 291.464 55.7685 293.592 74.9474C294.556 83.6376 284.758 98.9471 287.851 107.183C290.987 115.536 313.885 141.122 313.32 160.583C312.758 179.972 307.484 186.002 300.032 195.856H294.075H69.5947H56.675C52.0347 185.872 48.399 177.886 53.8323 164.775C58.1736 154.299 46.3793 145.671 41.8164 135.92C37.7555 127.24 36.4185 116.803 37.4092 107.347Z" fill="#9FBFFF"/>
</g>
</g>
<g opacity="0.41">
<path d="M339.303 54.3403C345.029 43.1274 340.579 29.3966 329.367 23.6715C318.154 17.9463 296.632 18.4178 290.907 29.6307C285.182 40.8436 302.441 50.417 309.493 60.8465C319.329 75.3917 333.578 65.5532 339.303 54.3403Z" fill="#9FBFFF"/>
</g>
<g opacity="0.41">
<path d="M22.722 141.183C17.4688 144.65 16.0205 151.719 19.4876 156.972C22.9542 162.225 32.4326 167.324 37.6857 163.857C42.9389 160.389 37.7904 151.972 37.2926 145.698C36.5985 136.948 27.9757 137.716 22.722 141.183Z" fill="#9FBFFF"/>
</g>
<g opacity="0.41">
<path d="M142.358 47.4268C143.843 52.5534 150.862 55.0245 158.037 52.947C165.211 50.8695 174.809 43.5857 173.324 38.4596C171.84 33.3334 160.519 36.3123 153.52 35.655C143.759 34.7379 140.873 42.3002 142.358 47.4268Z" fill="#9FBFFF"/>
</g>
<g opacity="0.43">
<path d="M70.1323 184.432C67.8547 173.109 71.5057 163.45 72.4167 152.346C73.2789 141.834 69.5452 132.993 67.4735 122.981C65.6301 114.071 66.2444 103.978 68.5583 95.2209C71.7178 83.2642 78.994 72.1932 89.477 65.4439C105.812 54.927 127.596 56.1657 145.639 63.3994C153.197 66.4294 160.517 70.4611 168.611 71.481C180.415 72.968 191.905 67.8801 203.404 64.8277C219.058 60.6722 236.241 60.3641 251.011 66.9223C267.756 74.3581 279.663 91.1442 278.272 109.632C277.642 118.01 274.417 126.277 275.559 134.599C276.717 143.039 281.731 150.101 284.385 158.05C288.008 168.9 288.338 184.846 282.513 195.855H74.0537C72.2557 192.255 70.9306 188.4 70.1323 184.432Z" fill="#9FBFFF"/>
</g>
<g opacity="0.47">
<path d="M108.896 148.956C109.561 142.115 112.762 135.262 118.307 130.365C126.946 122.734 140.015 120.811 151.468 122.575C156.265 123.314 161.023 124.623 165.935 124.21C173.099 123.61 179.41 119.491 185.933 116.471C194.812 112.361 204.99 110.15 214.43 111.938C225.133 113.966 233.908 121.625 234.955 131.788C235.429 136.393 230.609 144.505 232.13 148.869C233.673 153.295 244.941 166.853 244.663 177.165C244.386 187.439 241.791 190.634 238.124 195.856H235.193H124.733H118.376C116.093 190.565 114.304 186.333 116.977 179.386C119.114 173.835 113.31 169.263 111.065 164.096C109.066 159.497 108.409 153.966 108.896 148.956Z" fill="#9FBFFF"/>
</g>
<path d="M341.244 197.35H30.68C30.263 197.35 29.9248 197.012 29.9248 196.595C29.9248 196.178 30.263 195.84 30.68 195.84H341.244C341.661 195.84 341.999 196.178 341.999 196.595C341.999 197.012 341.661 197.35 341.244 197.35Z" fill="#17014C"/>
<path d="M339.651 111.924C340.838 111.924 341.8 110.962 341.8 109.775C341.8 108.587 340.838 107.625 339.651 107.625C338.463 107.625 337.501 108.587 337.501 109.775C337.501 110.962 338.463 111.924 339.651 111.924Z" fill="#17014C"/>
<path d="M314.109 187.256C315.033 187.256 315.781 186.507 315.781 185.584C315.781 184.661 315.033 183.912 314.109 183.912C313.186 183.912 312.438 184.661 312.438 185.584C312.438 186.507 313.186 187.256 314.109 187.256Z" fill="#4E69FF"/>
<path d="M54.7229 53.5004C55.9101 53.5004 56.8725 52.538 56.8725 51.3508C56.8725 50.1636 55.9101 49.2012 54.7229 49.2012C53.5357 49.2012 52.5732 50.1636 52.5732 51.3508C52.5732 52.538 53.5357 53.5004 54.7229 53.5004Z" fill="#4E69FF"/>
<path d="M26.5001 115.018C27.1306 115.018 27.6418 114.507 27.6418 113.876C27.6418 113.246 27.1306 112.734 26.5001 112.734C25.8695 112.734 25.3584 113.246 25.3584 113.876C25.3584 114.507 25.8695 115.018 26.5001 115.018Z" fill="#17014C"/>
<path d="M40.8699 62.5776C41.2656 62.5776 41.5864 62.2568 41.5864 61.8611C41.5864 61.4653 41.2656 61.1445 40.8699 61.1445C40.4741 61.1445 40.1533 61.4653 40.1533 61.8611C40.1533 62.2568 40.4741 62.5776 40.8699 62.5776Z" fill="#17014C"/>
<path d="M224.36 24.7107C223.698 27.8104 220.648 29.7866 217.548 29.1246C214.449 28.4625 212.473 25.4129 213.135 22.3131C213.797 19.2134 216.846 17.2372 219.946 17.8993C223.046 18.5618 225.022 21.6109 224.36 24.7107Z" fill="#4E69FF"/>
<path d="M326.776 88.8494C326.575 89.7909 325.649 90.3909 324.707 90.1898C323.766 89.9887 323.166 89.063 323.367 88.1214C323.568 87.1799 324.494 86.5799 325.435 86.781C326.377 86.9816 326.977 87.9079 326.776 88.8494Z" fill="#FFB54A"/>
<path d="M90.14 31.6365C89.9389 32.5781 89.0131 33.178 88.0716 32.9769C87.1301 32.7758 86.5301 31.8496 86.7312 30.9085C86.9323 29.967 87.8581 29.367 88.7996 29.5681C89.7412 29.7692 90.3411 30.695 90.14 31.6365Z" fill="#FFB54A"/>
<path d="M277.219 31.6365C277.018 32.5781 276.092 33.178 275.151 32.9769C274.209 32.7758 273.609 31.8496 273.81 30.9085C274.011 29.967 274.938 29.367 275.879 29.5681C276.82 29.7692 277.42 30.695 277.219 31.6365Z" fill="#4E69FF"/>
<path d="M203.773 30.1717C203.616 30.9098 202.89 31.3803 202.151 31.2231C201.413 31.0655 200.942 30.3394 201.1 29.6009C201.257 28.8628 201.983 28.3923 202.722 28.55C203.46 28.7076 203.931 29.4337 203.773 30.1717Z" fill="#17014C"/>
<path d="M326.613 160.964L322.085 148.624L315.48 130.617C315.474 130.6 315.467 130.582 315.461 130.565L315.421 130.456L315.418 130.457C313.519 125.439 308.671 121.871 302.988 121.871H282.061C270.445 121.871 263.36 130.504 263.36 142.12L260.032 195.928H316.278V162.227L325.796 161.062L326.613 160.964Z" fill="#F13C45"/>
<path d="M313.622 94.988C310.262 88.2391 305.663 79.3345 304.091 77.866C302.785 74.7615 300.621 72.1457 297.926 70.2741C295.305 67.7041 291.717 66.1172 287.756 66.1172H279.466C271.442 66.1172 264.938 72.6219 264.938 80.6453V88.9351C264.938 91.0394 265.389 93.0376 266.194 94.8428C265.592 96.8505 264.998 98.8559 264.457 100.699C262.969 105.766 264.462 111.236 268.314 114.848C268.414 114.94 268.576 114.903 268.624 114.775L270.683 109.368C270.763 109.159 271.075 109.233 271.053 109.456L270.386 115.909C270.377 115.997 270.429 116.08 270.513 116.109C271.801 116.543 281.459 119.762 285.247 119.91C288.475 120.035 290.536 119.518 291.247 119.3C291.987 119.356 294.111 119.405 297.232 118.569C300.894 117.588 309.601 112.314 310.762 111.606C310.838 111.559 310.87 111.467 310.841 111.382L308.765 105.236C308.694 105.024 308.982 104.882 309.106 105.069L312.309 109.888C312.385 110.001 312.551 110.002 312.627 109.89C315.622 105.464 316.004 99.7711 313.622 94.988Z" fill="#1B1B25"/>
<path d="M299.451 90.0376L295.603 89.8131C292.706 89.3918 290.548 85.4647 290.333 83.0203C290.315 82.8082 289.935 78.4139 289.64 74.9941L289.612 78.5123C289.567 84.3163 284.826 88.9848 279.022 88.9394L267.873 88.853L267.249 99.4458C267.052 102.784 268.124 105.902 270.045 108.336C271.78 111.186 274.564 113.345 277.897 114.243V124.23C277.897 128.246 281.184 131.533 285.2 131.533H286.956C290.972 131.533 294.259 128.247 294.259 124.23V110.658C294.259 110.648 294.257 110.638 294.257 110.628C296.261 108.459 297.555 105.61 297.743 102.432L297.802 101.426L298.777 101.484C301.587 101.649 304.021 99.4859 304.187 96.6757L304.259 95.4475C304.425 92.6377 302.261 90.2029 299.451 90.0376Z" fill="#FEC29E"/>
<path opacity="0.32" d="M296.571 101.172C296.145 108.4 289.939 113.915 282.711 113.489L279.564 113.303C275.677 113.074 272.287 111.172 270.049 108.34C271.845 111.284 274.764 113.49 278.251 114.327C279.862 117.063 283.001 118.738 286.337 118.315C290.011 117.849 292.815 114.978 293.379 111.489C295.878 109.242 297.528 106.049 297.741 102.43L297.8 101.424L296.571 101.172Z" fill="#FF887C"/>
<path d="M300.343 97.3476C300.302 97.3476 300.26 97.3366 300.222 97.3146L298.014 96.01C297.955 95.9742 297.913 95.9145 297.901 95.8457C297.889 95.7769 297.908 95.7067 297.952 95.6527L300.133 92.9996C300.217 92.8974 300.368 92.8826 300.469 92.9666C300.571 93.0502 300.586 93.2012 300.502 93.3029L298.498 95.7406L300.465 96.9033C300.578 96.9707 300.616 97.1168 300.549 97.2305C300.504 97.3055 300.425 97.3476 300.343 97.3476Z" fill="#FB8E77"/>
<path d="M282.316 90.473C282.553 90.4405 282.819 90.5427 283.081 90.6263C283.344 90.7166 283.611 90.8002 283.844 90.8652C284.079 90.9301 284.35 90.9956 284.622 91.0538C284.891 91.1174 285.173 91.1675 285.356 91.3166C285.533 91.4575 285.547 91.7236 285.226 91.9572C284.922 92.1869 284.249 92.3417 283.473 92.1282C282.699 91.9113 282.211 91.4346 282.077 91.0835C281.933 90.7204 282.089 90.5016 282.316 90.473Z" fill="#1B1B25"/>
<path d="M273.245 90.2426C273.007 90.2221 272.747 90.3377 272.489 90.4351C272.231 90.5383 271.969 90.6358 271.739 90.7127C271.508 90.7896 271.24 90.8689 270.971 90.941C270.706 91.0184 270.427 91.0824 270.252 91.2405C270.082 91.39 270.082 91.6571 270.414 91.8735C270.73 92.087 271.41 92.2074 272.174 91.9547C272.936 91.6986 273.398 91.1975 273.514 90.8402C273.641 90.4705 273.474 90.2598 273.245 90.2426Z" fill="#1B1B25"/>
<path d="M279.662 101.952C279.591 101.952 279.52 101.92 279.472 101.859C279.392 101.754 279.412 101.604 279.516 101.524C279.601 101.459 281.6 99.9396 282.992 100.13C283.382 100.182 283.694 100.36 283.919 100.656C283.998 100.761 283.978 100.911 283.872 100.991C283.768 101.07 283.618 101.05 283.538 100.945C283.391 100.751 283.191 100.639 282.928 100.604C281.734 100.442 279.826 101.888 279.807 101.903C279.764 101.936 279.713 101.952 279.662 101.952Z" fill="#FB8E77"/>
<path d="M283.927 95.7479L284.069 95.7508C284.394 95.757 284.665 95.4962 284.671 95.1713L284.69 94.2264C284.696 93.9016 284.435 93.6303 284.11 93.6241L283.968 93.6212C283.643 93.615 283.372 93.8758 283.366 94.2006L283.348 95.146C283.342 95.4704 283.602 95.7412 283.927 95.7479Z" fill="#1B1B25"/>
<path d="M279.305 99.3743H276.016C275.501 99.3743 275.082 98.9554 275.082 98.44V97.7024C275.082 97.0594 275.605 96.5364 276.249 96.5364C276.768 96.5364 277.19 96.1141 277.19 95.5948V93.7681C277.19 93.6363 277.297 93.5293 277.429 93.5293C277.561 93.5293 277.668 93.6363 277.668 93.7681V95.5948C277.668 96.3773 277.031 97.0141 276.249 97.0141C275.869 97.0141 275.56 97.3227 275.56 97.7024V98.44C275.56 98.6917 275.765 98.8967 276.016 98.8967H279.305C279.437 98.8967 279.544 99.0037 279.544 99.1355C279.544 99.2673 279.437 99.3743 279.305 99.3743Z" fill="#FB8E77"/>
<path d="M272.558 95.7987L272.7 95.8015C273.025 95.8077 273.296 95.5469 273.302 95.2221L273.32 94.2772C273.327 93.9524 273.066 93.6811 272.741 93.6748L272.599 93.672C272.274 93.6658 272.003 93.9266 271.997 94.2514L271.979 95.1963C271.972 95.5211 272.233 95.792 272.558 95.7987Z" fill="#1B1B25"/>
<path opacity="0.17" d="M284.862 98.6176L287.308 98.4862C287.71 98.4647 288.021 98.1179 288 97.7162L287.99 97.5404C287.969 97.1382 287.622 96.8272 287.22 96.8487L284.774 96.9801C284.372 97.0016 284.061 97.3484 284.082 97.7501L284.092 97.9259C284.113 98.3281 284.46 98.6391 284.862 98.6176Z" fill="#FF887C"/>
<path opacity="0.17" d="M269.483 98.7621L271.929 98.6308C272.331 98.6093 272.642 98.2625 272.621 97.8607L272.611 97.6849C272.59 97.2827 272.243 96.9717 271.841 96.9932L269.395 97.1246C268.993 97.1461 268.682 97.4929 268.703 97.8946L268.713 98.0704C268.734 98.4722 269.081 98.7836 269.483 98.7621Z" fill="#FF887C"/>
<path d="M278.07 109.257C278.01 109.257 277.95 109.235 277.903 109.189C277.809 109.096 277.807 108.946 277.899 108.851C279.067 107.655 280.627 108.382 280.642 108.39C280.761 108.447 280.811 108.589 280.754 108.708C280.697 108.827 280.555 108.876 280.436 108.821C280.385 108.797 279.167 108.237 278.24 109.185C278.194 109.233 278.132 109.257 278.07 109.257Z" fill="#FB8E77"/>
<path d="M327.283 166.06L325.792 161.062L304.4 163.68L306.253 171.973C307.091 175.722 312.212 177.75 317.674 176.495C323.972 175.049 328.274 170.377 327.283 166.06Z" fill="#FFB894"/>
<path opacity="0.18" d="M293.48 114.581C293.577 114.405 293.657 114.221 293.727 114.033C294.224 112.697 294.539 111.252 294.94 109.881C295.349 108.483 295.758 107.084 296.166 105.685L297.04 102.692C297.297 101.813 296.905 100.836 296.067 100.469C295.458 100.202 294.812 100.305 294.324 100.644L294.493 100.066C294.761 99.1494 294.317 98.1343 293.422 97.8023C292.654 97.5181 291.839 97.7913 291.377 98.3922C290.997 98.1524 290.55 97.9977 289.856 98.2757C289.26 98.5145 288.813 99.0252 288.633 99.6409L288.615 99.7045C288.281 99.5373 287.884 99.4546 287.397 99.5884C286.747 99.7666 286.248 100.292 286.047 100.934L285.742 101.903C284.963 103.649 283.769 107.369 282.683 110.963C282.154 112.716 281.908 114.515 281.925 116.302C282.383 121.19 283.912 125.916 286.404 130.145L287.455 131.929C287.485 131.828 293.423 114.684 293.48 114.581Z" fill="#FF887C"/>
<path d="M323.221 159.096C322.942 158.69 322.662 158.284 322.383 157.878C321.626 156.778 320.87 155.678 320.113 154.578C319.001 152.962 317.889 151.346 316.777 149.73C315.432 147.775 314.087 145.819 312.742 143.864C311.285 141.747 309.828 139.629 308.372 137.512C306.926 135.41 305.479 133.308 304.033 131.205C302.72 129.296 301.405 127.386 300.092 125.476C299.032 123.936 297.973 122.396 296.913 120.856C296.527 120.295 296.141 119.734 295.755 119.173C295.291 118.497 294.729 117.825 294.355 117.102C294.176 116.757 293.791 116.043 293.886 115.64C293.909 115.542 294.124 115.356 294.182 115.25C294.279 115.074 294.359 114.889 294.429 114.702C294.926 113.366 295.242 111.921 295.642 110.55C296.051 109.151 296.459 107.753 296.868 106.353C297.167 105.329 297.466 104.305 297.765 103.28C298.043 102.33 297.498 101.334 296.547 101.057C296.006 100.899 295.455 101.014 295.025 101.312L295.218 100.653C295.495 99.7026 294.95 98.7071 294 98.4295C293.27 98.216 292.516 98.4916 292.079 99.0601C291.94 98.9731 291.794 98.8972 291.629 98.8494C290.678 98.5719 289.683 99.1174 289.405 100.068L289.317 100.372C289.231 100.33 289.142 100.293 289.049 100.263C288.104 99.9658 287.098 100.491 286.801 101.436L286.444 102.571C285.665 104.317 284.471 108.036 283.385 111.631C281.777 116.955 282.736 122.713 285.966 127.222L302.852 169.717C305.328 175.743 312.295 178.529 318.244 175.872C324.696 172.99 327.058 165.031 323.221 159.096Z" fill="#FEC29E"/>
<path d="M289.053 106.729C289.041 106.729 289.029 106.727 289.017 106.723C288.954 106.703 288.919 106.636 288.939 106.573L290.037 103.161C290.341 102.181 290.029 101.122 289.242 100.463C289.191 100.42 289.184 100.345 289.227 100.295C289.269 100.244 289.344 100.238 289.395 100.28C290.257 101.001 290.598 102.16 290.264 103.233L289.167 106.646C289.15 106.697 289.103 106.729 289.053 106.729Z" fill="#FB8E77"/>
<path d="M291.807 105.365C291.795 105.365 291.783 105.363 291.771 105.359C291.708 105.339 291.673 105.273 291.693 105.209L292.896 101.392C293.161 100.553 292.851 99.6544 292.127 99.1557L291.73 98.8819C291.675 98.8442 291.661 98.7702 291.699 98.7157C291.737 98.6612 291.811 98.6479 291.865 98.6851L292.263 98.9588C293.074 99.5173 293.421 100.524 293.124 101.464L291.921 105.282C291.904 105.332 291.858 105.365 291.807 105.365Z" fill="#FB8E77"/>
<path d="M293.905 106.101C293.895 106.101 293.885 106.1 293.875 106.097C293.811 106.08 293.772 106.015 293.789 105.951L295.023 101.265C295.374 100.439 295.153 99.5138 294.48 98.9473L294.112 98.6368C294.061 98.5943 294.055 98.5188 294.097 98.4681C294.14 98.418 294.215 98.4113 294.265 98.4538L294.635 98.7643C295.388 99.3996 295.635 100.435 295.248 101.341L294.021 106.011C294.006 106.065 293.958 106.101 293.905 106.101Z" fill="#FB8E77"/>
<path d="M193.473 161.343L185.302 140.008L186.864 138.642L184.595 140.489L172.894 106.225C172.383 104.705 171.48 103.321 170.225 102.243C170.128 102.16 170.031 102.073 169.933 101.983C167.071 99.3431 163.385 99.7639 163.385 99.7639C161.406 98.4532 159.618 96.8787 157.668 95.5249C157.465 95.3835 157.244 95.2383 156.997 95.2383C156.721 95.2383 156.478 95.4203 156.288 95.62C155.181 96.7841 155.347 98.4383 156.243 99.6479C156.768 100.356 157.424 100.949 158.119 101.487C158.497 101.779 159.695 102.932 160.163 102.916C160.162 102.916 157.848 103.304 146.753 100.51C144.918 100.048 144.112 103.299 144.112 103.299C139.736 111.653 161.825 115.91 161.825 115.91L162.5 116.036L167.139 160.406C168.454 166.786 174.784 170.816 181.122 169.308C181.211 169.287 181.297 169.261 181.385 169.238C183.345 168.915 185.25 168.092 186.896 166.741L193.473 161.343Z" fill="#FEC29E"/>
<path d="M144.404 102.51C145.934 103.432 147.537 104.259 149.194 104.922C150.022 105.256 150.869 105.543 151.731 105.738C152.588 105.93 153.477 106.059 154.32 105.929L154.324 105.929C154.454 105.908 154.576 105.998 154.596 106.128C154.616 106.259 154.527 106.38 154.397 106.4C154.396 106.4 154.393 106.401 154.392 106.401C153.442 106.528 152.518 106.369 151.631 106.155C150.742 105.937 149.884 105.628 149.05 105.274C147.377 104.57 145.785 103.712 144.25 102.749C144.184 102.708 144.163 102.62 144.205 102.553C144.247 102.487 144.333 102.467 144.399 102.507L144.404 102.51Z" fill="#FB8E77"/>
<path d="M143.723 104.686C144.24 105.399 144.99 105.979 145.755 106.46C146.534 106.94 147.38 107.306 148.247 107.602C149.111 107.911 150.014 108.099 150.915 108.269C151.369 108.34 151.826 108.395 152.281 108.457L153.657 108.56L153.67 108.561C153.802 108.571 153.901 108.686 153.89 108.817C153.88 108.949 153.766 109.048 153.634 109.038C153.633 109.038 153.632 109.037 153.631 109.037L152.23 108.909C151.766 108.838 151.301 108.775 150.839 108.695C149.92 108.506 149.001 108.299 148.119 107.968C147.234 107.649 146.371 107.259 145.574 106.75C144.784 106.231 144.035 105.647 143.47 104.842C143.423 104.775 143.44 104.683 143.506 104.636C143.573 104.59 143.664 104.605 143.711 104.671L143.723 104.686Z" fill="#FB8E77"/>
<path d="M144.418 107.88C145.022 108.37 145.672 108.819 146.335 109.232C147 109.645 147.69 110.017 148.406 110.321C149.12 110.624 149.859 110.884 150.618 110.991C151.372 111.105 152.143 111.091 152.851 110.863L152.858 110.86C152.984 110.82 153.118 110.889 153.159 111.014C153.199 111.14 153.13 111.275 153.005 111.315C153.004 111.315 153.001 111.316 153 111.316C152.191 111.56 151.347 111.55 150.548 111.413C149.742 111.28 148.983 110.993 148.253 110.667C147.522 110.338 146.826 109.943 146.159 109.509C145.492 109.073 144.849 108.61 144.237 108.091C144.178 108.042 144.171 107.954 144.221 107.895C144.27 107.837 144.356 107.829 144.414 107.877L144.418 107.88Z" fill="#FB8E77"/>
<path d="M197.766 138.695C197.766 134.286 199.105 130.197 201.389 126.817C202.171 125.66 203.062 124.584 204.05 123.609L185.302 140.006L193.472 161.341L196.053 159.223L197.766 138.695Z" fill="#FFA63B"/>
<path d="M268.084 158.719L257.176 128.984C256.241 122.577 250.805 117.66 244.238 117.66H218.471C212.863 117.66 207.78 119.929 204.051 123.607C200.177 127.429 197.767 132.773 197.767 138.692L196.054 159.221L192.995 195.894L257.939 196.299L257.587 159.19L267.325 158.753L268.084 158.719Z" fill="#FFB54A"/>
<path d="M267.324 158.752L245.286 159.741L253.093 194.266C253.25 194.96 253.456 195.627 253.701 196.267L275.51 195.929C275.373 194.18 267.324 158.752 267.324 158.752Z" fill="#FEC29E"/>
<path opacity="0.17" d="M245.272 159.809C245.272 159.809 261.101 158.694 267.323 158.752C267.908 162.568 268.087 160.811 268.672 164.628L245.272 159.809Z" fill="#FF887C"/>
<path d="M240.216 142.858L239.751 142.969L243.712 159.616L244.177 159.505L240.216 142.858Z" fill="#FFA63B"/>
<path d="M252.788 68.6025C252.482 67.1604 251.84 65.799 250.808 64.6783C249.263 62.9997 247.074 61.482 244.717 61.3129C242.614 56.6359 236.995 50.6174 229.578 50.315C224.177 50.0948 221.618 52.4904 219.874 53.2266C219.617 53.335 217.939 52.4011 217.577 52.2879C216.786 52.0414 215.971 51.8661 215.144 51.8016C213.653 51.685 212.146 51.944 210.828 52.6681C207.969 54.2393 205.865 57.8645 206.107 61.1338C206.231 62.8033 206.947 64.384 207.892 65.765C208.984 67.3586 210.369 68.6417 211.948 69.7394C212.441 70.0824 212.424 70.1006 212.355 70.6117C212.31 70.9418 212.231 71.2704 212.17 71.5977C211.758 73.797 211.347 75.9963 210.935 78.196C210.568 80.1551 210.202 82.1136 209.835 84.0726C209.318 86.8313 211.136 89.4863 213.895 90.0027L240.408 94.9659C243.166 95.4823 245.821 93.6647 246.338 90.9055C246.555 89.7481 246.771 88.5906 246.988 87.4332C247.167 86.4759 247.347 85.5181 247.526 84.5603C247.705 83.603 247.738 82.4231 248.169 81.5509C248.352 81.1821 248.637 80.8768 248.908 80.5663C250.644 78.5715 251.958 76.0579 252.634 73.5013C253.053 71.9172 253.129 70.21 252.788 68.6025Z" fill="#A1525A"/>
<path d="M245.887 84.9331L245.128 84.7912L245.13 84.7774C244.208 85.6358 243.585 86.1288 243.585 86.1288L243.104 76.2152C238.586 75.7051 238.2 71.9609 238.563 69.1836C237.237 69.2381 235.89 69.2218 234.576 69.2882C232.322 69.4029 230.052 69.956 227.788 70.1223C223.238 70.4557 218.656 70.3439 214.128 69.7845C214.083 69.7788 214.037 69.7731 213.992 69.7678C213.101 73.0218 212.631 76.413 212.01 79.7287C211.493 82.4921 210.976 85.2556 210.458 88.019C210.338 88.6649 210.217 89.3112 210.096 89.957C209.406 93.6448 210.123 97.2681 211.864 100.28C211.86 100.272 211.857 100.263 211.854 100.254C213.16 103.312 215.443 105.908 218.396 107.568V118.891C218.396 122.908 221.682 126.194 225.699 126.194H230.035C234.051 126.194 237.338 122.908 237.338 118.891V106.508C240.07 104.309 242.063 101.165 242.759 97.4477L242.821 97.1162L243.58 97.2581C246.766 97.8542 249.86 95.7357 250.457 92.5499L250.596 91.809C251.191 88.6242 249.073 85.5298 245.887 84.9331Z" fill="#FEC29E"/>
<path opacity="0.32" d="M241.549 96.4674C239.751 104.325 232.05 109.425 224.056 107.929L222.159 107.574C217.651 106.73 213.993 103.962 211.865 100.28C213.222 103.44 215.619 106.106 218.723 107.751C219.776 111.236 223.022 113.794 226.839 113.794H228.855C233.081 113.794 236.601 110.657 237.226 106.598C240.016 104.396 242.054 101.217 242.76 97.4486L242.822 97.1171C242.822 97.1171 241.593 96.2697 241.549 96.4674Z" fill="#FF887C"/>
<path d="M246.171 93.0233C246.12 93.0233 246.068 93.0071 246.024 92.9732L243.809 91.2535C243.754 91.211 243.72 91.146 243.717 91.0763C243.713 91.007 243.741 90.9392 243.792 90.8909L246.524 88.3128C246.62 88.223 246.771 88.2268 246.861 88.3228C246.952 88.4189 246.947 88.5703 246.851 88.6606L244.322 91.0471L246.317 92.5958C246.421 92.6765 246.44 92.8265 246.359 92.9311C246.313 92.9918 246.242 93.0233 246.171 93.0233Z" fill="#FB8E77"/>
<path d="M213.377 79.6632C213.888 79.5624 214.48 79.7506 215.062 79.9001C215.646 80.0625 216.236 80.2116 216.753 80.3229C217.272 80.4347 217.871 80.5426 218.47 80.6348C219.063 80.739 219.683 80.812 220.1 81.113C220.504 81.3967 220.569 81.9747 219.9 82.5236C219.266 83.062 217.821 83.4843 216.106 83.1188C214.393 82.7453 213.272 81.7698 212.936 81.0222C212.573 80.2503 212.886 79.754 213.377 79.6632Z" fill="#A1525A"/>
<path d="M233.492 80.5198C232.98 80.237 232.272 80.1988 231.589 80.1266C230.9 80.0669 230.21 79.9919 229.612 79.9078C229.012 79.8238 228.326 79.7067 227.647 79.5749C226.97 79.4564 226.275 79.2988 225.715 79.4311C225.174 79.552 224.889 80.076 225.406 80.8413C225.888 81.5831 227.287 82.5127 229.27 82.7945C231.252 83.0678 232.822 82.5538 233.462 81.9691C234.139 81.3705 233.986 80.7858 233.492 80.5198Z" fill="#A1525A"/>
<path d="M227.787 87.3226L228.048 87.3718C228.368 87.4316 228.678 87.219 228.738 86.8994L228.949 85.7744C229.008 85.4549 228.796 85.1444 228.477 85.0846L228.215 85.0354C227.896 84.9757 227.585 85.1883 227.526 85.5079L227.315 86.6328C227.255 86.9524 227.467 87.2629 227.787 87.3226Z" fill="#1B1B25"/>
<path d="M215.514 85.3285L215.776 85.3777C216.095 85.4374 216.406 85.2248 216.466 84.9053L216.676 83.7803C216.736 83.4607 216.523 83.1502 216.204 83.0905L215.943 83.0413C215.623 82.9816 215.313 83.1942 215.253 83.5137L215.043 84.6387C214.982 84.9583 215.194 85.2688 215.514 85.3285Z" fill="#1B1B25"/>
<path d="M221.568 99.3019C221.507 99.3019 221.447 99.279 221.4 99.2331C221.355 99.1887 220.288 98.1621 218.976 98.8137C218.86 98.8725 218.714 98.8247 218.656 98.7062C218.597 98.5882 218.645 98.4444 218.764 98.3862C220.385 97.5803 221.723 98.8815 221.737 98.8944C221.83 98.9871 221.83 99.1381 221.738 99.2317C221.691 99.278 221.63 99.3019 221.568 99.3019Z" fill="#FB8E77"/>
<path d="M222.778 94.8741C222.722 94.8741 222.666 94.8545 222.621 94.8149C222.521 94.7279 222.511 94.577 222.598 94.4776C222.684 94.3792 224.732 92.0653 227.094 92.007C228.118 91.9812 229.053 92.3906 229.854 93.2223C229.946 93.3173 229.943 93.4687 229.848 93.56C229.754 93.6522 229.602 93.6493 229.51 93.5538C228.805 92.8219 227.987 92.4622 227.106 92.4847C224.95 92.5377 222.977 94.7695 222.958 94.792C222.91 94.8464 222.844 94.8741 222.778 94.8741Z" fill="#FB8E77"/>
<path d="M223.852 90.8747C223.84 90.8747 223.827 90.8737 223.815 90.8718L220.944 90.4328C219.524 90.2159 218.433 89.0661 218.29 87.6369L218.108 85.8183C218.061 85.3473 218.405 84.9226 218.875 84.8706L220.722 84.6651C221.273 84.604 221.71 84.1779 221.786 83.6295L222.54 78.1709C222.558 78.04 222.683 77.9497 222.81 77.9669C222.94 77.9851 223.032 78.1055 223.014 78.2359L222.259 83.6945C222.154 84.4597 221.544 85.054 220.776 85.1395L218.928 85.3449C218.717 85.3683 218.562 85.5589 218.583 85.7705L218.766 87.5891C218.887 88.801 219.812 89.776 221.017 89.9604L223.887 90.3989C224.018 90.4185 224.108 90.5408 224.088 90.6712C224.069 90.7901 223.967 90.8747 223.852 90.8747Z" fill="#FB8E77"/>
<path d="M103.073 115.123C104.936 114.107 106.42 112.392 107.089 110.203C108.056 107.043 107.064 103.758 104.816 101.631C105.344 100.544 105.801 99.4069 106.165 98.215C110.022 85.6078 102.928 72.2611 90.3206 68.4042C77.7133 64.5473 64.3666 71.641 60.5102 84.2487C60.1423 85.4511 59.8758 86.6597 59.7024 87.8663C56.6824 88.3956 54.0594 90.5543 53.1011 93.687C52.558 95.4631 52.6397 97.2778 53.2077 98.9072C49.249 101.641 46.1459 105.674 44.6293 110.631C41.0537 122.319 47.6301 134.693 59.3183 138.268C66.435 140.445 73.8019 138.853 79.2863 134.64C81.1393 136.879 83.64 138.623 86.627 139.537C94.7555 142.023 103.361 137.45 105.847 129.321C107.402 124.235 106.188 118.966 103.073 115.123Z" fill="#FA445C"/>
<path d="M102.178 82.5723C102.195 82.663 102.213 82.7562 102.228 82.8446C102.439 84.0593 101.319 85.009 100.129 84.6884C96.8592 83.8071 94.0924 86.9197 92.1262 90.3071C89.968 94.0245 85.224 95.3004 81.5668 93.0419L70.5207 90.6739C68.2855 90.7871 66.2936 92.3693 65.7781 94.6526L65.5073 95.8526C64.8872 98.5984 66.627 101.352 69.3728 101.972L70.3253 102.187L70.1032 103.17C69.2758 106.834 70.0592 110.485 71.981 113.388V126.86C71.981 130.876 72.5169 140.56 76.5339 140.56L84.5132 139.994C88.5297 139.994 88.3419 130.876 88.3419 126.86V119.832C90.8737 119.399 93.213 118.236 95.0798 116.52C97.5991 114.714 99.4932 112.016 100.229 108.755L103.901 92.4887C104.701 88.9452 103.983 85.4136 102.178 82.5723Z" fill="#FFCEB6"/>
<path opacity="0.32" d="M84.5517 118.655L81.4772 117.961C74.4141 116.367 69.9801 109.348 71.5747 102.285L70.3231 102.186L70.101 103.169C69.2005 107.157 70.2056 111.132 72.5138 114.141V114.518C72.5138 118.535 75.8003 121.821 79.8168 121.821H81.5723C83.4 121.821 85.0719 121.136 86.3564 120.016C89.6162 119.959 92.6853 118.686 95.0265 116.556C92.0968 118.634 88.3312 119.509 84.5517 118.655Z" fill="#FF887C"/>
<path d="M69.0782 97.5746C68.9722 97.5746 68.8752 97.5034 68.8475 97.3955C68.8145 97.2679 68.891 97.1375 69.019 97.1045L71.2317 96.5323L69.982 93.6346C69.93 93.5133 69.9854 93.3728 70.1067 93.3207C70.228 93.2677 70.3685 93.3241 70.4205 93.4454L71.781 96.5991C71.8087 96.6632 71.8068 96.7362 71.7762 96.7988C71.7452 96.8614 71.6888 96.9077 71.6215 96.9249L69.1389 97.567C69.1184 97.5722 69.0983 97.5746 69.0782 97.5746Z" fill="#FB8E77"/>
<path d="M68.3137 99.9613C68.735 99.9613 69.0765 99.6197 69.0765 99.1984C69.0765 98.7771 68.735 98.4355 68.3137 98.4355C67.8923 98.4355 67.5508 98.7771 67.5508 99.1984C67.5508 99.6197 67.8923 99.9613 68.3137 99.9613Z" fill="white"/>
<path d="M84.8261 96.7963C85.1165 96.9119 85.4867 96.865 85.8474 96.8407C86.21 96.8082 86.5749 96.7853 86.8926 96.7762C87.2112 96.7666 87.5766 96.7686 87.9406 96.78C88.3022 96.7834 88.6763 96.8077 88.9553 96.6759C89.2251 96.5522 89.3264 96.2183 88.9911 95.8208C88.6758 95.4334 87.869 95.0259 86.8152 95.0541C85.7633 95.0876 84.9942 95.5409 84.7138 95.9455C84.4157 96.3611 84.5462 96.6883 84.8261 96.7963Z" fill="#FA445C"/>
<path d="M100.461 100.43C100.152 100.382 99.8569 100.153 99.5588 99.9487C99.2631 99.7366 98.9612 99.5307 98.6923 99.3611C98.4229 99.1911 98.1071 99.0062 97.7885 98.8309C97.4756 98.6499 97.1408 98.4808 96.9678 98.2247C96.7987 97.9811 96.8809 97.6419 97.372 97.4704C97.8406 97.2975 98.7425 97.3577 99.6353 97.918C100.524 98.4822 100.955 99.2637 100.99 99.7548C101.035 100.265 100.756 100.48 100.461 100.43Z" fill="#FA445C"/>
<path d="M92.0395 106.503C91.8661 106.503 91.6917 106.485 91.5183 106.447L89.8163 106.08C89.6873 106.052 89.6056 105.925 89.6333 105.796C89.6615 105.667 89.7895 105.586 89.9171 105.613L91.6191 105.981C92.1321 106.091 92.6586 105.996 93.0999 105.711C93.5413 105.427 93.8456 104.987 93.9569 104.474C94.04 104.089 93.795 103.709 93.4104 103.626C92.9781 103.533 92.6084 103.276 92.3686 102.905C92.1293 102.534 92.0485 102.091 92.1417 101.659L92.5926 99.5714C92.6208 99.4425 92.7479 99.3598 92.8764 99.3885C93.0054 99.4167 93.087 99.5433 93.0593 99.6722L92.6084 101.76C92.542 102.068 92.5993 102.382 92.7694 102.646C92.9399 102.911 93.2031 103.093 93.5103 103.159C94.1523 103.298 94.5612 103.933 94.4227 104.575C94.2851 105.213 93.9063 105.759 93.3579 106.113C92.959 106.37 92.5038 106.503 92.0395 106.503Z" fill="#FB8E77"/>
<path d="M85.8396 102.054C85.4842 101.974 85.2592 101.618 85.3395 101.263L85.5162 100.479C85.5363 100.39 85.5736 100.31 85.6237 100.24C85.7742 100.031 86.0412 99.9189 86.3078 99.9791C86.6632 100.059 86.8882 100.416 86.8079 100.771L86.6312 101.554C86.5514 101.909 86.195 102.134 85.8396 102.054Z" fill="#1B1B25"/>
<path d="M96.9352 104.837L96.7966 104.806C96.4794 104.734 96.2788 104.416 96.3505 104.099L96.5587 103.177C96.6304 102.86 96.9481 102.66 97.2652 102.731L97.4038 102.762C97.721 102.834 97.9216 103.152 97.8499 103.469L97.6417 104.391C97.5705 104.708 97.2523 104.909 96.9352 104.837Z" fill="#1B1B25"/>
<path d="M84.5488 99.8086L85.4135 100.941L85.8706 100.036L84.5488 99.8086Z" fill="#1B1B25"/>
<path d="M98.9409 103.916L97.7566 103.125L97.6162 104.129L98.9409 103.916Z" fill="#1B1B25"/>
<path opacity="0.17" d="M84.3141 104.633L81.9701 103.921C81.5851 103.804 81.3653 103.393 81.4829 103.007L81.534 102.839C81.651 102.454 82.0618 102.234 82.4473 102.352L84.7909 103.064C85.1759 103.181 85.3956 103.592 85.2786 103.978L85.2275 104.146C85.1105 104.531 84.6992 104.75 84.3141 104.633Z" fill="#FF887C"/>
<path opacity="0.17" d="M99.2143 108.452L96.8708 107.739C96.4857 107.622 96.266 107.212 96.383 106.826L96.4341 106.658C96.5512 106.273 96.962 106.053 97.3475 106.17L99.6915 106.882C100.077 106.999 100.296 107.41 100.179 107.796L100.128 107.964C100.01 108.349 99.5993 108.569 99.2143 108.452Z" fill="#FF887C"/>
<path d="M86.562 115.769C86.4803 115.769 86.4006 115.727 86.3561 115.651C85.6831 114.51 84.3675 114.762 84.3111 114.773C84.1826 114.8 84.0561 114.715 84.0293 114.587C84.003 114.458 84.0852 114.332 84.2142 114.305C84.2318 114.302 85.9176 113.968 86.7674 115.409C86.8343 115.522 86.7966 115.668 86.6829 115.736C86.6452 115.758 86.6031 115.769 86.562 115.769Z" fill="#FB8E77"/>
<path d="M87.6027 112.73L85.102 111.97C82.5779 111.203 81.1534 108.534 81.9206 106.01L82.0878 105.461L90.295 107.955L89.0841 111.939C88.8935 112.567 88.2299 112.921 87.6027 112.73Z" fill="white"/>
<path d="M97.6807 104.709C97.6807 104.271 97.3262 103.917 96.8887 103.917C97.3258 103.917 97.6807 103.563 97.6807 103.125C97.6807 103.562 98.0351 103.917 98.4727 103.917C98.0351 103.917 97.6807 104.271 97.6807 104.709Z" fill="white"/>
<path d="M86.877 101.988C86.877 101.551 86.5225 101.196 86.085 101.196C86.522 101.196 86.877 100.842 86.877 100.404C86.877 100.841 87.2314 101.196 87.669 101.196C87.2314 101.197 86.877 101.551 86.877 101.988Z" fill="white"/>
<path d="M111.967 155.692L105.198 138.86C105.172 138.795 105.159 138.724 105.158 138.654C105.034 127.89 99.4062 124.452 88.7555 124.43C88.4608 124.429 88.21 124.652 88.1751 124.944L87.1237 133.801C86.498 139.072 79.3813 140.27 77.0645 135.494L71.9226 124.894C71.8247 124.692 71.6193 124.565 71.3952 124.567L64.2341 124.625C58.3518 124.672 53.4431 128.739 52.0931 134.199L43.8691 165.606L44.3564 165.622L51.3928 165.848C51.7047 165.858 51.9527 166.112 51.9555 166.424L52.1867 195.708C52.1891 196.027 52.4485 196.284 52.7671 196.284L105.021 196.331C105.328 196.332 105.581 196.094 105.602 195.789L107.345 169.879C107.353 169.774 107.388 169.673 107.449 169.586L110.962 164.542C112.768 161.951 113.146 158.623 111.967 155.692Z" fill="#4E69FF"/>
<path d="M109.993 149.217C109.993 149.217 109.844 149.269 109.587 149.358L108.562 159.23C111.426 155.922 113.213 152.082 109.993 149.217Z" fill="#FFCEB6"/>
<path d="M71.8496 106.866L95.6019 138.736L110.637 139.26L102.521 93.541L71.8496 106.866Z" fill="url(#paint0_linear_921_1084)"/>
<path d="M109.587 149.359L110.636 139.26C110.754 138.127 109.923 137.103 108.79 136.985L97.5754 135.82C96.4423 135.702 95.4186 136.533 95.3006 137.666L94.0935 149.284L92.6742 162.941C92.5563 164.074 93.3874 165.098 94.5205 165.216L100.923 165.881L105.736 166.381C106.869 166.499 107.893 165.668 108.011 164.535L108.562 159.231L109.587 149.359Z" fill="#1B1B25"/>
<path d="M106.624 143.089C106.828 141.381 105.609 139.83 103.9 139.626C105.609 139.83 107.159 138.611 107.364 136.902C107.16 138.611 108.379 140.162 110.087 140.366C108.379 140.162 106.828 141.381 106.624 143.089Z" fill="white"/>
<path d="M110.757 150.03C110.36 149.515 109.68 149.309 109.056 149.494C107.015 150.101 102.103 151.564 99.0973 152.458C97.4727 152.942 95.7468 152.953 94.1154 152.491L93.7691 152.393L94.0925 149.283C93.6134 150.225 93.129 151.163 92.5801 152.057C92.5801 152.057 89.3524 152.833 88.0406 156.134C87.327 157.929 86.2956 158.945 85.7286 159.4L85.7028 159.376L65.8165 169.083L66.1828 166.323L44.3585 165.623L41.4699 186.725C40.5933 193.127 45.0731 199.027 51.4752 199.904C53.9253 200.239 56.2894 199.667 58.2302 198.446C59.0261 198.083 59.7947 197.628 60.5169 197.069L95.7902 169.19L100.372 166.253C100.372 166.253 100.384 166.246 100.401 166.234C100.406 166.231 100.405 166.231 100.41 166.228C100.433 166.213 100.468 166.19 100.511 166.161C100.514 166.159 100.516 166.157 100.519 166.155C100.562 166.127 100.615 166.091 100.675 166.05C100.684 166.044 100.692 166.039 100.7 166.033C100.762 165.991 100.831 165.944 100.908 165.891C100.913 165.887 100.917 165.884 100.923 165.881C103.607 164.021 115.048 155.612 110.757 150.03Z" fill="#FFCEB6"/>
<path opacity="0.17" d="M65.918 167.695C65.9194 167.661 65.9208 167.633 65.9218 167.611C65.9213 167.632 65.9199 167.661 65.918 167.695Z" fill="#FF887C"/>
<path opacity="0.17" d="M65.9082 167.886C65.9101 167.844 65.912 167.804 65.9139 167.768C65.9125 167.802 65.9106 167.842 65.9082 167.886Z" fill="#FF887C"/>
<path opacity="0.17" d="M65.9141 167.768C65.9155 167.741 65.9165 167.717 65.9174 167.695C65.9165 167.718 65.9155 167.742 65.9141 167.768Z" fill="#FF887C"/>
<path opacity="0.17" d="M65.9238 167.58C65.9243 167.573 65.9243 167.568 65.9248 167.564C65.9243 167.568 65.9243 167.573 65.9238 167.58Z" fill="#FF887C"/>
<path opacity="0.17" d="M48.171 177.696L63.1027 170.408L65.8709 168.664C65.8709 168.664 50.4414 173.336 43.1533 175.543C42.8499 179.393 42.5738 179.678 42.2705 183.527L42.9909 183.074C44.027 180.846 45.7839 178.922 48.171 177.696Z" fill="#FF887C"/>
<path opacity="0.17" d="M65.8867 168.345C65.8877 168.32 65.8891 168.293 65.8905 168.27C65.8891 168.295 65.8882 168.321 65.8867 168.345Z" fill="#FF887C"/>
<path opacity="0.17" d="M65.8721 168.645C65.873 168.622 65.874 168.602 65.8754 168.58C65.874 168.608 65.873 168.63 65.8721 168.645Z" fill="#FF887C"/>
<path opacity="0.17" d="M65.875 168.579C65.8779 168.521 65.8817 168.439 65.8865 168.346C65.8826 168.418 65.8788 168.495 65.875 168.579Z" fill="#FF887C"/>
<path opacity="0.17" d="M65.8896 168.272C65.8911 168.238 65.893 168.204 65.8944 168.17C65.893 168.203 65.8916 168.235 65.8896 168.272Z" fill="#FF887C"/>
<path opacity="0.17" d="M65.8945 168.169C65.8998 168.057 65.9046 167.963 65.9084 167.885C65.9041 167.974 65.8993 168.072 65.8945 168.169Z" fill="#FF887C"/>
<path opacity="0.17" d="M65.8701 168.665C65.8701 168.665 65.8706 168.656 65.8711 168.645C65.8711 168.652 65.8706 168.658 65.8701 168.665Z" fill="#FF887C"/>
<path d="M95.7549 153.078C93.7142 153.078 93.0602 152.436 93.0201 152.395C92.9284 152.3 92.9313 152.149 93.0263 152.057C93.1209 151.967 93.2699 151.969 93.3617 152.061C93.3898 152.088 94.8353 153.378 100.244 151.868C100.371 151.833 100.503 151.907 100.539 152.034C100.574 152.161 100.5 152.293 100.373 152.328C98.3521 152.893 96.8526 153.078 95.7549 153.078Z" fill="#FB8E77"/>
<path d="M102.988 29.9018C102.97 24.566 98.6311 20.2543 93.2953 20.2715L73.0034 20.3365C67.6676 20.3537 63.3559 24.6931 63.3731 30.0289L63.4075 40.8138C63.4247 46.1496 67.764 50.4612 73.0999 50.444L75.227 50.4373L83.3889 58.5467L92.6695 48.9135L93.4615 47.3495C98.7973 47.3323 103.039 46.0225 103.022 40.6867L102.988 29.9018Z" fill="#FC9F24"/>
<path d="M104.993 28.4272C104.975 23.0914 100.636 18.7797 95.3002 18.7969L75.0083 18.8619C69.6724 18.8791 65.3608 23.2184 65.378 28.5543L65.4124 39.3387C65.4296 44.6745 69.7689 48.9861 75.1048 48.9689L77.2319 48.9623L84.9753 56.6565L92.6695 48.9131L95.3967 48.9045C100.732 48.8873 105.044 44.5479 105.027 39.2121L104.993 28.4272Z" fill="#FFB54A"/>
<path d="M86.1884 28.5136L87.7628 31.7036C87.9123 32.0064 88.2013 32.2166 88.5357 32.2654L92.0559 32.777C92.898 32.8993 93.2343 33.9344 92.6248 34.5282L90.0773 37.0112C89.8351 37.2472 89.7247 37.5869 89.782 37.9198L90.3834 41.4261C90.5272 42.2649 89.6468 42.9045 88.894 42.5085L85.7455 40.8533C85.4465 40.6962 85.0892 40.6962 84.7901 40.8533L81.6417 42.5085C80.8884 42.9045 80.008 42.2649 80.1522 41.4261L80.7536 37.9198C80.811 37.5869 80.7006 37.2467 80.4584 37.0112L77.9109 34.5282C77.3014 33.9344 77.6377 32.8993 78.4798 32.777L81.9999 32.2654C82.3343 32.2166 82.6233 32.0069 82.7729 31.7036L84.3473 28.5136C84.7233 27.7507 85.8115 27.7507 86.1884 28.5136Z" fill="white"/>
<path d="M79.9921 29.7158C79.9309 29.7158 79.8698 29.6924 79.823 29.6461L78.2896 28.1127C78.1964 28.0195 78.1964 27.8681 78.2896 27.7749C78.3827 27.6818 78.5342 27.6818 78.6273 27.7749L80.1607 29.3083C80.2539 29.4015 80.2539 29.5529 80.1607 29.6461C80.1144 29.6924 80.0532 29.7158 79.9921 29.7158Z" fill="white"/>
<path d="M90.0964 29.7158C90.0352 29.7158 89.9741 29.6924 89.9273 29.6461C89.8341 29.5529 89.8341 29.4015 89.9273 29.3083L91.4607 27.7749C91.5538 27.6818 91.7053 27.6818 91.7984 27.7749C91.8916 27.8681 91.8916 28.0195 91.7984 28.1127L90.265 29.6461C90.2187 29.6924 90.1575 29.7158 90.0964 29.7158Z" fill="white"/>
<path d="M85.4244 25.8014C85.2926 25.8014 85.1855 25.6944 85.1855 25.5625V23.4674C85.1855 23.3355 85.2926 23.2285 85.4244 23.2285C85.5562 23.2285 85.6632 23.3355 85.6632 23.4674V25.5625C85.6632 25.6944 85.5567 25.8014 85.4244 25.8014Z" fill="white"/>
<path d="M68.9906 89.6008C68.9906 86.2636 66.2854 83.5584 62.9482 83.5584C66.2854 83.5584 68.9906 80.8533 68.9906 77.5156C68.9906 80.8528 71.6957 83.5584 75.0334 83.5584C71.6957 83.558 68.9906 86.2636 68.9906 89.6008Z" fill="white"/>
<path d="M111.24 69.3587C111.24 66.7954 109.162 64.7174 106.599 64.7174C109.162 64.7174 111.24 62.6395 111.24 60.0762C111.24 62.6395 113.318 64.7174 115.881 64.7174C113.318 64.717 111.24 66.7949 111.24 69.3587Z" fill="white"/>
<path d="M118.657 97.7275C118.657 96.0479 117.295 94.686 115.615 94.686C117.295 94.686 118.657 93.3246 118.657 91.6445C118.657 93.3241 120.018 94.686 121.698 94.686C120.018 94.686 118.657 96.0479 118.657 97.7275Z" fill="white"/>
<path d="M137.169 114.142C137.169 113.985 137.163 113.831 137.157 113.676C137.152 113.836 137.15 113.996 137.138 114.154L137.169 114.142Z" fill="#C12736"/>
<path d="M137.169 113.377C137.169 107.934 132.756 103.521 127.313 103.521H126.55H123.442C117.999 103.521 113.587 107.934 113.587 113.377C113.587 117.589 116.229 121.184 119.946 122.595C121.033 123.007 121.284 123.1 122.512 123.233L125.378 126.991L128.495 123.233C129.72 123.048 129.627 123.025 130.676 122.644C134.231 121.354 136.833 118.076 137.139 114.153C137.151 113.995 137.153 113.834 137.158 113.675C137.16 113.575 137.169 113.478 137.169 113.377Z" fill="#FFB54A"/>
<path d="M126.558 111.793C127.156 111.296 127.538 110.547 127.538 109.709C127.538 108.212 126.325 107 124.829 107C123.333 107 122.121 108.212 122.121 109.709C122.121 110.547 122.502 111.296 123.1 111.793C121.179 112.499 119.806 114.339 119.806 116.504C119.806 119.278 129.852 119.278 129.852 116.504C129.852 114.339 128.479 112.499 126.558 111.793Z" fill="white"/>
<path d="M130.686 113.298H129.389V112.001C129.389 111.86 129.274 111.746 129.134 111.746H127.95C127.81 111.746 127.696 111.86 127.696 112.001V113.298H126.398C126.258 113.298 126.144 113.412 126.144 113.553V114.736C126.144 114.877 126.258 114.991 126.398 114.991H127.696V116.288C127.696 116.429 127.81 116.543 127.95 116.543H129.134C129.274 116.543 129.389 116.429 129.389 116.288V114.991H130.686C130.826 114.991 130.941 114.877 130.941 114.736V113.553C130.941 113.412 130.826 113.298 130.686 113.298Z" fill="white"/>
<path d="M129.134 116.783H127.95C127.677 116.783 127.456 116.562 127.456 116.29V115.231H126.398C126.125 115.231 125.904 115.01 125.904 114.737V113.553C125.904 113.281 126.125 113.06 126.398 113.06H127.456V112.001C127.456 111.729 127.677 111.508 127.95 111.508H129.134C129.406 111.508 129.627 111.729 129.627 112.001V113.06H130.686C130.957 113.06 131.179 113.281 131.179 113.553V114.737C131.179 115.01 130.958 115.231 130.686 115.231H129.627V116.29C129.627 116.561 129.406 116.783 129.134 116.783ZM126.398 113.538L126.382 114.737L127.934 114.753V116.29L129.134 116.305L129.15 114.753H130.686L130.702 113.553L130.686 113.538H129.15V112.001L127.95 111.986L127.934 113.538H126.398Z" fill="#FFB54A"/>
<path d="M102.754 117.625C102.755 117.565 102.757 117.505 102.761 117.445C102.762 117.507 102.762 117.569 102.765 117.63L102.754 117.625Z" fill="#C12736"/>
<path d="M102.757 117.33C102.784 115.228 104.511 113.545 106.613 113.573L106.908 113.576L108.108 113.592C110.211 113.619 111.893 115.346 111.866 117.449C111.845 119.076 110.806 120.451 109.363 120.977C108.942 121.131 108.844 121.166 108.369 121.211L107.243 122.648L106.059 121.181C105.586 121.103 105.623 121.095 105.219 120.942C103.852 120.426 102.863 119.147 102.765 117.63C102.761 117.569 102.761 117.507 102.76 117.445C102.76 117.407 102.756 117.369 102.757 117.33Z" fill="#4E69FF"/>
<path d="M105.605 118.258C105.51 118.258 105.415 118.236 105.326 118.19C105.03 118.036 104.915 117.67 105.069 117.374C105.224 117.079 105.59 116.963 105.885 117.117C106.181 117.272 106.296 117.638 106.142 117.934C106.034 118.14 105.823 118.258 105.605 118.258ZM105.606 117.356C105.499 117.356 105.395 117.414 105.342 117.516C105.266 117.661 105.322 117.841 105.468 117.917C105.614 117.993 105.794 117.937 105.87 117.791C105.946 117.646 105.889 117.466 105.743 117.39C105.7 117.367 105.653 117.356 105.606 117.356Z" fill="white"/>
<path d="M107.331 118.304C107.237 118.304 107.142 118.282 107.052 118.236C106.909 118.161 106.803 118.035 106.755 117.881C106.706 117.726 106.721 117.563 106.795 117.42C106.87 117.276 106.996 117.171 107.15 117.122C107.304 117.073 107.468 117.088 107.612 117.163C107.755 117.237 107.86 117.363 107.909 117.518C107.957 117.672 107.943 117.836 107.868 117.979C107.761 118.185 107.549 118.304 107.331 118.304ZM107.332 117.401C107.302 117.401 107.272 117.405 107.243 117.415C107.167 117.439 107.105 117.491 107.068 117.562C107.031 117.632 107.024 117.713 107.048 117.789C107.072 117.864 107.124 117.926 107.194 117.963C107.34 118.038 107.52 117.982 107.596 117.837C107.633 117.766 107.64 117.686 107.616 117.61C107.592 117.534 107.54 117.472 107.47 117.435C107.427 117.413 107.379 117.401 107.332 117.401Z" fill="white"/>
<path d="M109.018 118.347C108.923 118.347 108.828 118.325 108.739 118.278C108.443 118.124 108.328 117.758 108.483 117.462C108.637 117.167 109.003 117.051 109.298 117.205C109.594 117.36 109.709 117.726 109.555 118.022C109.447 118.228 109.236 118.347 109.018 118.347ZM109.02 117.444C108.912 117.444 108.808 117.502 108.755 117.604C108.679 117.749 108.736 117.93 108.881 118.005C109.027 118.081 109.207 118.025 109.283 117.879C109.359 117.734 109.302 117.554 109.157 117.478C109.113 117.455 109.065 117.444 109.02 117.444Z" fill="white"/>
<path d="M110.371 133.336L117.044 133.391C117.642 133.396 118.13 132.916 118.136 132.318L118.173 127.766C118.178 127.169 117.698 126.68 117.1 126.675L110.427 126.619C109.83 126.614 109.341 127.095 109.336 127.693L109.298 132.244C109.293 132.843 109.773 133.331 110.371 133.336Z" fill="#F13C45"/>
<path d="M115.617 133.26L113.761 135.086L112.015 133.311L115.617 133.26Z" fill="#F13C45"/>
<path d="M112.465 130.718C112.575 130.816 113.719 131.853 113.756 131.822C114.212 131.438 114.65 131.028 115.087 130.622C115.447 130.287 115.805 129.866 115.763 129.341C115.719 128.788 115.276 128.378 114.719 128.385C114.262 128.391 113.879 128.686 113.734 129.092C113.578 128.689 113.188 128.404 112.731 128.41C112.305 128.415 111.915 128.682 111.757 129.077C111.701 129.215 111.679 129.353 111.684 129.487C111.705 130.005 112.104 130.395 112.465 130.718Z" fill="white"/>
<path d="M135.791 169.32C135.793 169.174 135.8 169.031 135.808 168.887C135.81 169.035 135.81 169.185 135.82 169.332L135.791 169.32Z" fill="#C12736"/>
<path d="M135.801 168.61C135.866 163.548 140.023 159.498 145.085 159.563L145.795 159.572L148.686 159.61C153.748 159.675 157.798 163.832 157.733 168.894C157.682 172.811 155.181 176.122 151.707 177.39C150.692 177.761 150.457 177.844 149.313 177.953L146.602 181.412L143.75 177.88C142.613 177.694 142.699 177.674 141.728 177.307C138.437 176.064 136.057 172.984 135.82 169.332C135.81 169.184 135.81 169.035 135.808 168.886C135.807 168.795 135.8 168.703 135.801 168.61Z" fill="#4E69FF"/>
<path d="M142.656 170.713C142.449 170.713 142.24 170.664 142.045 170.563C141.397 170.224 141.145 169.422 141.483 168.774C141.821 168.127 142.623 167.875 143.271 168.212C143.585 168.376 143.817 168.652 143.923 168.99C144.029 169.328 143.998 169.687 143.834 170.001C143.597 170.453 143.134 170.713 142.656 170.713ZM142.659 168.539C142.353 168.539 142.057 168.706 141.906 168.995C141.69 169.409 141.851 169.922 142.265 170.139C142.681 170.357 143.193 170.194 143.409 169.78C143.515 169.579 143.535 169.349 143.467 169.133C143.399 168.917 143.251 168.741 143.05 168.636C142.926 168.57 142.792 168.539 142.659 168.539Z" fill="white"/>
<path d="M146.815 170.818C146.609 170.818 146.4 170.77 146.204 170.668C145.557 170.33 145.304 169.528 145.642 168.88C145.98 168.232 146.784 167.98 147.431 168.318C148.078 168.656 148.331 169.459 147.993 170.106C147.756 170.559 147.294 170.818 146.815 170.818ZM146.819 168.645C146.513 168.645 146.217 168.811 146.066 169.101C145.849 169.515 146.011 170.028 146.425 170.245C146.839 170.462 147.353 170.3 147.569 169.885C147.786 169.471 147.624 168.958 147.21 168.741C147.085 168.675 146.951 168.645 146.819 168.645Z" fill="white"/>
<path d="M150.873 170.926C150.667 170.926 150.457 170.877 150.262 170.776C149.614 170.438 149.362 169.635 149.7 168.987C150.038 168.34 150.84 168.088 151.488 168.425C152.136 168.763 152.388 169.566 152.05 170.213C151.814 170.666 151.351 170.926 150.873 170.926ZM150.877 168.752C150.571 168.752 150.274 168.919 150.123 169.208C149.907 169.623 150.069 170.136 150.483 170.352C150.898 170.569 151.41 170.407 151.627 169.993C151.843 169.578 151.682 169.065 151.267 168.849C151.142 168.783 151.009 168.752 150.877 168.752Z" fill="white"/>
<path d="M123.253 161.422L148.342 161.63C148.939 161.635 149.428 161.154 149.433 160.557L149.587 142.009C149.592 141.412 149.112 140.923 148.514 140.918L123.426 140.709C122.828 140.704 122.339 141.185 122.334 141.782L122.18 160.33C122.174 160.928 122.655 161.417 123.253 161.422Z" fill="#F13C45"/>
<path d="M141.685 161.207L135.959 166.838L130.575 161.364L141.685 161.207Z" fill="#F13C45"/>
<path d="M131.971 153.37C132.309 153.672 135.838 156.87 135.951 156.774C137.358 155.59 138.709 154.326 140.055 153.074C141.166 152.042 142.269 150.742 142.139 149.125C142.003 147.417 140.637 146.154 138.92 146.176C137.51 146.194 136.329 147.103 135.881 148.358C135.401 147.115 134.198 146.236 132.787 146.253C131.477 146.27 130.273 147.094 129.784 148.31C129.612 148.736 129.544 149.162 129.561 149.576C129.626 151.172 130.857 152.373 131.971 153.37Z" fill="white"/>
<path d="M151.527 144.19C152.065 142.13 150.832 140.024 148.772 139.486C146.712 138.948 144.607 140.182 144.069 142.241C143.531 144.301 144.764 146.407 146.824 146.945C148.884 147.483 150.989 146.249 151.527 144.19Z" fill="#4E69FF"/>
<path d="M146.278 142.497L145.819 142.603L145.675 142.019L146.473 141.793H147.021V144.537H146.278V142.497Z" fill="white"/>
<path d="M148.702 144.592C148.507 144.592 148.332 144.556 148.177 144.482C148.021 144.409 147.89 144.306 147.782 144.179C147.675 144.05 147.591 143.901 147.533 143.729C147.474 143.558 147.445 143.376 147.445 143.184V143.177C147.445 142.985 147.475 142.803 147.535 142.63C147.595 142.457 147.679 142.307 147.788 142.178C147.897 142.05 148.029 141.948 148.185 141.872C148.341 141.797 148.515 141.76 148.71 141.76C148.904 141.76 149.079 141.797 149.233 141.87C149.388 141.945 149.519 142.045 149.628 142.173C149.737 142.302 149.821 142.452 149.879 142.623C149.937 142.794 149.967 142.976 149.967 143.168V143.176C149.967 143.368 149.937 143.55 149.879 143.722C149.821 143.895 149.736 144.046 149.626 144.174C149.516 144.302 149.383 144.404 149.227 144.479C149.072 144.555 148.897 144.592 148.702 144.592ZM148.71 143.923C148.785 143.923 148.854 143.905 148.916 143.868C148.979 143.832 149.031 143.781 149.074 143.715C149.116 143.649 149.15 143.571 149.173 143.481C149.196 143.392 149.208 143.292 149.208 143.183V143.176C149.208 143.067 149.195 142.967 149.171 142.876C149.146 142.785 149.112 142.707 149.068 142.641C149.024 142.574 148.971 142.523 148.908 142.484C148.846 142.447 148.777 142.428 148.702 142.428C148.627 142.428 148.559 142.446 148.498 142.483C148.437 142.519 148.384 142.569 148.34 142.635C148.296 142.7 148.262 142.777 148.239 142.868C148.215 142.959 148.204 143.059 148.204 143.168V143.176C148.204 143.285 148.216 143.386 148.241 143.478C148.265 143.57 148.299 143.649 148.344 143.715C148.388 143.781 148.441 143.832 148.503 143.868C148.566 143.905 148.635 143.923 148.71 143.923Z" fill="white"/>
<path d="M82.9703 144.695C81.9887 144.695 81.1904 143.897 81.1904 142.915C81.1904 141.933 81.9887 141.135 82.9703 141.135C83.952 141.135 84.7502 141.933 84.7502 142.915C84.7502 143.897 83.9515 144.695 82.9703 144.695ZM82.9703 141.613C82.2523 141.613 81.6681 142.197 81.6681 142.916C81.6681 143.634 82.2523 144.218 82.9703 144.218C83.6883 144.218 84.2725 143.634 84.2725 142.916C84.2725 142.197 83.6883 141.613 82.9703 141.613Z" fill="white"/>
<path d="M117.186 157.72C116.38 157.72 115.725 157.064 115.725 156.259C115.725 155.453 116.38 154.797 117.186 154.797C117.992 154.797 118.649 155.452 118.649 156.259C118.649 157.065 117.993 157.72 117.186 157.72ZM117.186 155.275C116.644 155.275 116.202 155.716 116.202 156.259C116.202 156.801 116.644 157.243 117.186 157.243C117.729 157.243 118.171 156.801 118.171 156.259C118.171 155.716 117.729 155.275 117.186 155.275Z" fill="#4E69FF"/>
<path d="M87.8121 135.194C87.6802 135.194 87.5732 135.087 87.5732 134.955V132.602C87.5732 132.47 87.6802 132.363 87.8121 132.363C87.9439 132.363 88.0509 132.47 88.0509 132.602V134.955C88.0509 135.087 87.9439 135.194 87.8121 135.194Z" fill="white"/>
<path d="M88.988 134.017H86.6353C86.5035 134.017 86.3965 133.91 86.3965 133.778C86.3965 133.646 86.5035 133.539 86.6353 133.539H88.988C89.1198 133.539 89.2268 133.646 89.2268 133.778C89.2268 133.91 89.1198 134.017 88.988 134.017Z" fill="white"/>
<path d="M105.659 151.134C105.527 151.134 105.42 151.027 105.42 150.895V148.542C105.42 148.41 105.527 148.303 105.659 148.303C105.791 148.303 105.898 148.41 105.898 148.542V150.895C105.898 151.027 105.791 151.134 105.659 151.134Z" fill="white"/>
<path d="M106.835 149.956H104.482C104.35 149.956 104.243 149.849 104.243 149.717C104.243 149.586 104.35 149.479 104.482 149.479H106.835C106.966 149.479 107.073 149.586 107.073 149.717C107.073 149.849 106.966 149.956 106.835 149.956Z" fill="white"/>
<path d="M112.918 143.154C111.936 143.154 111.138 142.355 111.138 141.374C111.138 140.392 111.936 139.594 112.918 139.594C113.899 139.594 114.697 140.392 114.697 141.374C114.697 142.355 113.899 143.154 112.918 143.154ZM112.918 140.072C112.2 140.072 111.615 140.656 111.615 141.374C111.615 142.093 112.2 142.677 112.918 142.677C113.636 142.677 114.22 142.093 114.22 141.374C114.22 140.656 113.636 140.072 112.918 140.072Z" fill="#FA445C"/>
<path d="M102.957 127.317C102.957 127.236 102.955 127.156 102.951 127.076C102.949 127.159 102.948 127.242 102.941 127.324L102.957 127.317Z" fill="#C12736"/>
<path d="M102.958 126.924C102.958 124.109 100.676 121.826 97.8602 121.826H97.4656H95.8582C93.0432 121.826 90.7607 124.108 90.7607 126.924C90.7607 129.102 92.1274 130.961 94.0497 131.691C94.6114 131.905 94.7414 131.952 95.3767 132.021L96.859 133.964L98.4707 132.021C99.1041 131.926 99.0564 131.914 99.599 131.717C101.438 131.049 102.784 129.354 102.941 127.325C102.948 127.243 102.949 127.16 102.951 127.077C102.953 127.026 102.958 126.975 102.958 126.924Z" fill="#FFB54A"/>
<path d="M97.47 126.108C97.7795 125.851 97.9763 125.464 97.9763 125.03C97.9763 124.256 97.3491 123.629 96.5752 123.629C95.8014 123.629 95.1742 124.256 95.1742 125.03C95.1742 125.464 95.3714 125.851 95.681 126.108C94.6874 126.473 93.9775 127.425 93.9775 128.545C93.9775 129.98 99.1734 129.98 99.1734 128.545C99.1734 127.425 98.4631 126.473 97.47 126.108Z" fill="white"/>
<path d="M99.6042 126.885H98.933V126.214C98.933 126.141 98.8738 126.082 98.8012 126.082H98.1888C98.1161 126.082 98.0569 126.141 98.0569 126.214V126.885H97.3857C97.3131 126.885 97.2539 126.944 97.2539 127.017V127.629C97.2539 127.702 97.3127 127.761 97.3857 127.761H98.0569V128.432C98.0569 128.505 98.1157 128.564 98.1888 128.564H98.8012C98.8738 128.564 98.933 128.505 98.933 128.432V127.761H99.6042C99.6768 127.761 99.736 127.702 99.736 127.629V127.017C99.736 126.944 99.6768 126.885 99.6042 126.885Z" fill="white"/>
<path d="M98.8016 128.7H98.1892C98.042 128.7 97.9221 128.58 97.9221 128.433V127.897H97.3862C97.239 127.897 97.1191 127.777 97.1191 127.63V127.017C97.1191 126.87 97.239 126.75 97.3862 126.75H97.9221V126.214C97.9221 126.067 98.042 125.947 98.1892 125.947H98.8016C98.9487 125.947 99.0686 126.067 99.0686 126.214V126.75H99.6046C99.7517 126.75 99.8716 126.87 99.8716 127.017V127.63C99.8716 127.777 99.7522 127.897 99.6046 127.897H99.0686V128.433C99.0686 128.58 98.9487 128.7 98.8016 128.7ZM98.0578 127.627H98.193V128.433L98.802 128.43L98.7987 127.627H99.6051L99.6017 127.022H98.7992V126.216L98.1901 126.219L98.1935 127.022H97.3871L97.3905 127.631L98.0578 127.627Z" fill="#FFB54A"/>
<path d="M124.227 171.098C124.227 171.017 124.224 170.937 124.221 170.857C124.219 170.94 124.218 171.023 124.211 171.105L124.227 171.098Z" fill="#C12736"/>
<path d="M124.227 170.705C124.227 167.89 121.945 165.607 119.13 165.607H118.735H117.128C114.313 165.607 112.03 167.889 112.03 170.705C112.03 172.883 113.397 174.742 115.319 175.472C115.881 175.685 116.011 175.734 116.646 175.802L118.128 177.746L119.74 175.802C120.374 175.707 120.326 175.695 120.869 175.498C122.708 174.831 124.053 173.135 124.211 171.106C124.217 171.024 124.218 170.941 124.221 170.859C124.223 170.807 124.227 170.756 124.227 170.705Z" fill="#FFB54A"/>
<path d="M118.747 169.885C119.057 169.628 119.254 169.241 119.254 168.807C119.254 168.033 118.627 167.406 117.854 167.406C117.08 167.406 116.452 168.033 116.452 168.807C116.452 169.241 116.65 169.628 116.959 169.885C115.966 170.25 115.256 171.202 115.256 172.322C115.256 173.757 120.452 173.757 120.452 172.322C120.451 171.202 119.741 170.25 118.747 169.885Z" fill="white"/>
<path d="M120.88 170.662H120.208V169.991C120.208 169.919 120.15 169.859 120.077 169.859H119.464C119.392 169.859 119.332 169.919 119.332 169.991V170.662H118.661C118.589 170.662 118.529 170.722 118.529 170.794V171.407C118.529 171.479 118.589 171.538 118.661 171.538H119.332V172.21C119.332 172.282 119.391 172.341 119.464 172.341H120.077C120.149 172.341 120.208 172.282 120.208 172.21V171.538H120.88C120.952 171.538 121.011 171.479 121.011 171.407V170.794C121.011 170.722 120.953 170.662 120.88 170.662Z" fill="white"/>
<path d="M120.077 172.477H119.465C119.317 172.477 119.198 172.357 119.198 172.21V171.674H118.662C118.514 171.674 118.395 171.554 118.395 171.407V170.795C118.395 170.648 118.514 170.528 118.662 170.528H119.198V169.992C119.198 169.845 119.317 169.725 119.465 169.725H120.077C120.224 169.725 120.344 169.845 120.344 169.992V170.528H120.88C121.027 170.528 121.147 170.648 121.147 170.795V171.407C121.147 171.554 121.027 171.674 120.88 171.674H120.344V172.21C120.344 172.357 120.224 172.477 120.077 172.477ZM119.333 171.404H119.468V172.211L120.077 172.207L120.074 171.404H120.88L120.877 170.799H120.074V169.993L119.465 169.996L119.468 170.799H118.662L118.665 171.408L119.333 171.404Z" fill="#FFB54A"/>
<path d="M150.462 132.767L141.681 132.853C139.371 132.875 137.481 131.022 137.458 128.712L137.412 124.045C137.39 121.736 139.243 119.845 141.553 119.823L150.334 119.737C152.644 119.714 154.534 121.568 154.557 123.877L154.603 128.544C154.626 130.853 152.772 132.744 150.462 132.767Z" fill="#4E69FF"/>
<path d="M142.368 132.613L145.975 136.151L149.357 132.702L142.368 132.613Z" fill="#4E69FF"/>
<path d="M141.801 127.933C141.618 127.933 141.432 127.896 141.254 127.815C140.93 127.668 140.683 127.404 140.557 127.071C140.431 126.738 140.443 126.376 140.59 126.052C140.737 125.727 141.001 125.48 141.334 125.354C141.668 125.228 142.029 125.24 142.353 125.387C143.021 125.69 143.32 126.481 143.017 127.15C142.795 127.642 142.309 127.933 141.801 127.933ZM141.804 125.745C141.702 125.745 141.6 125.764 141.502 125.801C141.289 125.882 141.119 126.04 141.025 126.248C140.931 126.456 140.923 126.688 141.004 126.901C141.084 127.115 141.243 127.285 141.451 127.379C141.881 127.572 142.388 127.382 142.582 126.953C142.776 126.524 142.585 126.016 142.156 125.821C142.043 125.771 141.924 125.745 141.804 125.745Z" fill="white"/>
<path d="M145.984 127.809C145.797 127.809 145.61 127.769 145.435 127.689C145.111 127.543 144.863 127.279 144.738 126.946C144.612 126.613 144.624 126.251 144.771 125.927C144.917 125.602 145.181 125.355 145.515 125.229C145.848 125.103 146.21 125.115 146.534 125.262C146.858 125.409 147.106 125.673 147.231 126.006C147.356 126.339 147.344 126.701 147.198 127.025C147.051 127.349 146.787 127.597 146.454 127.722C146.301 127.78 146.143 127.809 145.984 127.809ZM145.984 125.621C145.883 125.621 145.781 125.64 145.683 125.676C145.47 125.757 145.3 125.916 145.206 126.123C145.112 126.332 145.104 126.563 145.185 126.777C145.266 126.991 145.424 127.16 145.632 127.254C145.841 127.349 146.072 127.356 146.286 127.275C146.5 127.195 146.669 127.036 146.764 126.828C146.858 126.619 146.865 126.388 146.785 126.174C146.704 125.961 146.545 125.791 146.337 125.697C146.224 125.647 146.104 125.621 145.984 125.621Z" fill="white"/>
<path d="M150.065 127.687C149.881 127.687 149.695 127.649 149.517 127.568C149.193 127.421 148.945 127.158 148.82 126.824C148.694 126.491 148.706 126.13 148.853 125.805C148.999 125.481 149.263 125.233 149.596 125.108C149.929 124.982 150.291 124.994 150.615 125.141C151.284 125.444 151.582 126.234 151.28 126.903C151.058 127.395 150.572 127.687 150.065 127.687ZM150.067 125.5C149.965 125.5 149.863 125.518 149.765 125.555C149.552 125.636 149.382 125.794 149.288 126.002C149.194 126.21 149.186 126.442 149.267 126.656C149.347 126.869 149.506 127.039 149.714 127.132C150.143 127.327 150.65 127.135 150.845 126.707C151.039 126.278 150.848 125.77 150.419 125.575C150.306 125.525 150.187 125.5 150.067 125.5Z" fill="white"/>
<path d="M153.095 123.152C154.767 123.152 156.123 121.796 156.123 120.124C156.123 118.451 154.767 117.096 153.095 117.096C151.422 117.096 150.066 118.451 150.066 120.124C150.066 121.796 151.422 123.152 153.095 123.152Z" fill="#F13C45"/>
<path d="M153.095 123.152C154.767 123.152 156.123 121.796 156.123 120.124C156.123 118.451 154.767 117.096 153.095 117.096C151.422 117.096 150.066 118.451 150.066 120.124C150.066 121.796 151.422 123.152 153.095 123.152Z" fill="#F13C45"/>
<path d="M152.985 121.319C152.777 121.319 152.598 121.285 152.445 121.218C152.294 121.151 152.156 121.061 152.033 120.946L152.405 120.511C152.501 120.591 152.595 120.655 152.687 120.699C152.778 120.743 152.874 120.766 152.975 120.766C153.082 120.766 153.167 120.741 153.228 120.692C153.29 120.644 153.32 120.576 153.32 120.492V120.484C153.32 120.4 153.288 120.333 153.225 120.285C153.161 120.237 153.077 120.213 152.975 120.213C152.903 120.213 152.837 120.224 152.776 120.247C152.714 120.269 152.655 120.297 152.6 120.331L152.214 120.116L152.281 118.926H153.85V119.462H152.794L152.774 119.817C152.827 119.793 152.884 119.773 152.943 119.757C153.002 119.742 153.071 119.734 153.149 119.734C153.254 119.734 153.355 119.749 153.452 119.779C153.549 119.81 153.634 119.854 153.708 119.915C153.782 119.975 153.842 120.053 153.886 120.146C153.931 120.24 153.954 120.35 153.954 120.478V120.484C153.954 120.617 153.929 120.733 153.881 120.837C153.833 120.939 153.767 121.027 153.682 121.098C153.597 121.169 153.495 121.224 153.377 121.262C153.259 121.299 153.128 121.319 152.985 121.319Z" fill="white"/>
<defs>
<linearGradient id="paint0_linear_921_1084" x1="86.4142" y1="97.7767" x2="104.55" y2="154.831" gradientUnits="userSpaceOnUse">
<stop offset="0.0267" stop-color="white" stop-opacity="0"/>
<stop offset="0.9302" stop-color="white" stop-opacity="0.8"/>
</linearGradient>
</defs>
</svg>
