<svg width="22" height="21" viewBox="0 0 22 21" fill="none" xmlns="http://www.w3.org/2000/svg">
<path d="M7.42788 6.75286L1.34982 7.63408L1.24217 7.656C1.07921 7.69926 0.930641 7.785 0.81165 7.90445C0.692658 8.02391 0.607503 8.17281 0.564879 8.33594C0.522255 8.49908 0.52369 8.6706 0.569038 8.833C0.614385 8.9954 0.70202 9.14285 0.822994 9.2603L5.22625 13.5464L4.18784 19.6006L4.17545 19.7054C4.16548 19.874 4.20048 20.0421 4.27687 20.1927C4.35325 20.3433 4.46829 20.4709 4.61019 20.5624C4.75209 20.6539 4.91577 20.706 5.08445 20.7134C5.25313 20.7209 5.42075 20.6834 5.57017 20.6047L11.0061 17.7467L16.4297 20.6047L16.525 20.6486C16.6822 20.7105 16.8531 20.7295 17.0201 20.7036C17.1871 20.6777 17.3442 20.6078 17.4753 20.5011C17.6064 20.3945 17.7068 20.2549 17.7661 20.0966C17.8255 19.9384 17.8416 19.7672 17.813 19.6006L16.7736 13.5464L21.1788 9.25935L21.2531 9.17837C21.3592 9.04763 21.4288 8.89109 21.4548 8.7247C21.4807 8.55831 21.4621 8.38801 21.4008 8.23115C21.3395 8.0743 21.2378 7.93649 21.1059 7.83178C20.974 7.72706 20.8167 7.65917 20.65 7.63504L14.572 6.75286L11.855 1.24641C11.7763 1.08687 11.6546 0.952521 11.5036 0.858577C11.3526 0.764634 11.1783 0.714844 11.0004 0.714844C10.8225 0.714844 10.6482 0.764634 10.4972 0.858577C10.3462 0.952521 10.2245 1.08687 10.1459 1.24641L7.42788 6.75286Z" fill="white"/>
</svg>
