<svg width="476" height="290" viewBox="0 0 476 290" fill="none" xmlns="http://www.w3.org/2000/svg">
<path d="M381.299 81.7589L380.723 81.5925L380.807 81.3011L381.384 81.4691L381.299 81.7589ZM382.338 78.4299L381.769 78.2377C382.119 77.2017 382.49 76.1861 382.869 75.2189L383.427 75.4385C383.052 76.3963 382.685 77.4031 382.338 78.4299ZM384.67 72.5093L384.125 72.2593C384.578 71.2687 385.06 70.2995 385.557 69.3781L386.085 69.6633C385.595 70.5729 385.119 71.5303 384.67 72.5093ZM387.694 66.9257L387.189 66.6023C387.779 65.6809 388.402 64.7933 389.041 63.9641L389.516 64.3305C388.887 65.1457 388.274 66.0191 387.694 66.9257ZM413.893 62.5315C413.195 62.5315 412.49 62.4029 411.852 62.1601L412.066 61.5991C412.991 61.9527 414.074 62.0273 415.039 61.8011L415.175 62.3855C414.76 62.4823 414.329 62.5315 413.893 62.5315ZM391.566 61.9155L391.128 61.5045C391.873 60.7107 392.658 59.9589 393.458 59.2697L393.85 59.7243C393.065 60.3999 392.296 61.1369 391.566 61.9155ZM417.984 60.4963L417.71 60.3677L417.473 60.1821C417.869 59.5731 418.065 58.8875 418.065 58.1317C418.065 57.8759 418.041 57.6133 417.996 57.3517L418.587 57.2485C418.638 57.5443 418.665 57.8411 418.665 58.1317C418.665 59.0053 418.436 59.8011 417.984 60.4963ZM409.247 60.0925C408.628 59.2355 408.181 58.1843 407.955 57.0527L408.544 56.9347C408.753 57.9831 409.165 58.9535 409.733 59.7417L409.247 60.0925ZM396.358 57.7975L396.02 57.3021C396.904 56.6989 397.834 56.1377 398.785 55.6337L399.066 56.1641C398.134 56.6577 397.223 57.2073 396.358 57.7975ZM401.937 54.8355L401.713 54.2785C402.693 53.8871 403.72 53.5331 404.765 53.2265L404.934 53.8023C403.906 54.1035 402.898 54.4511 401.937 54.8355ZM416.684 54.6519C416.235 54.1343 415.698 53.7011 415.132 53.3999C414.831 53.2405 414.512 53.1035 414.182 52.9925L414.373 52.4237C414.734 52.5449 415.084 52.6953 415.413 52.8703C416.044 53.2059 416.641 53.6863 417.137 54.2589L416.684 54.6519ZM408.499 53.8581L407.907 53.7643C407.945 53.5201 407.992 53.2761 408.048 53.0303C408.037 53.0327 408.026 53.0349 408.015 53.0373L407.893 52.4497C408.002 52.4271 408.108 52.4055 408.213 52.3849C408.376 51.8143 408.584 51.2341 408.843 50.6353L409.395 50.8729C409.189 51.3475 409.017 51.8089 408.876 52.2619C409.707 52.1185 410.433 52.0377 411.109 52.0119L411.132 52.6111C410.407 52.6393 409.621 52.7333 408.695 52.9037C408.615 53.2241 408.549 53.5413 408.499 53.8581ZM410.881 48.0957L410.373 47.7761L410.631 47.3729C411.127 46.6103 411.663 45.8565 412.226 45.1315L412.699 45.4995C412.148 46.2113 411.621 46.9515 411.134 47.6999L410.881 48.0957ZM414.759 43.0905L414.322 42.6795C415.052 41.9029 415.831 41.1475 416.639 40.4339L417.036 40.8831C416.243 41.5847 415.477 42.3277 414.759 43.0905ZM419.505 38.8921L419.15 38.4085C420.011 37.7757 420.913 37.1725 421.832 36.6159L422.143 37.1291C421.24 37.6765 420.352 38.2695 419.505 38.8921ZM424.927 35.6065L424.663 35.0683C425.626 34.5949 426.62 34.1605 427.618 33.7761L427.834 34.3363C426.852 34.7139 425.874 35.1413 424.927 35.6065ZM430.841 33.3307L430.677 32.7533C431.71 32.4583 432.767 32.2091 433.816 32.0119L433.927 32.6017C432.895 32.7957 431.857 33.0405 430.841 33.3307ZM437.067 32.1639L437.013 31.5663C438.018 31.4745 439.034 31.4277 440.032 31.4277L440.238 31.4281L440.234 32.0281L440.032 32.0277C439.052 32.0277 438.055 32.0733 437.067 32.1639Z" fill="#708CD5"/>
<path d="M462.423 39.3528H444.51C439.958 39.3528 436.267 35.662 436.267 31.109C436.267 26.5562 439.957 22.8652 444.51 22.8652H462.423C466.976 22.8652 470.667 26.556 470.667 31.109C470.667 35.662 466.976 39.3528 462.423 39.3528Z" fill="#D3DFFF"/>
<path d="M445.367 33.2098C446.526 33.2098 447.467 32.2696 447.467 31.1098C447.467 29.95 446.526 29.0098 445.367 29.0098C444.207 29.0098 443.267 29.95 443.267 31.1098C443.267 32.2696 444.207 33.2098 445.367 33.2098Z" fill="white"/>
<path d="M453.466 33.2098C454.626 33.2098 455.566 32.2696 455.566 31.1098C455.566 29.95 454.626 29.0098 453.466 29.0098C452.306 29.0098 451.366 29.95 451.366 31.1098C451.366 32.2696 452.306 33.2098 453.466 33.2098Z" fill="white"/>
<path d="M461.567 33.2098C462.727 33.2098 463.667 32.2696 463.667 31.1098C463.667 29.95 462.727 29.0098 461.567 29.0098C460.407 29.0098 459.467 29.95 459.467 31.1098C459.467 32.2696 460.407 33.2098 461.567 33.2098Z" fill="white"/>
<path d="M68.1082 160.022C67.2246 159.431 66.3386 158.837 65.4512 158.239L65.7864 157.742C66.6732 158.339 67.559 158.933 68.4418 159.523L68.1082 160.022ZM62.8024 156.442C61.9228 155.841 61.0438 155.235 60.1664 154.623L60.5095 154.131C61.3853 154.741 62.2626 155.347 63.1406 155.947L62.8024 156.442ZM57.5496 152.775C56.6809 152.153 55.816 151.526 54.9562 150.891L55.3132 150.408C56.1698 151.041 57.0324 151.667 57.8988 152.287L57.5496 152.775ZM52.3939 148.965C51.5443 148.313 50.7013 147.655 49.8673 146.988L50.2423 146.519C51.0731 147.183 51.9122 147.84 52.7586 148.488L52.3939 148.965ZM47.3848 144.955C46.5638 144.266 45.7532 143.568 44.954 142.859L45.3524 142.41C46.147 143.115 46.9536 143.81 47.7708 144.496L47.3848 144.955ZM42.5845 140.692C41.8033 139.955 41.0299 139.201 40.2857 138.45L40.7114 138.028C41.4508 138.774 42.2196 139.524 42.9962 140.256L42.5845 140.692ZM38.0684 136.125C37.3385 135.329 36.6242 134.517 35.9462 133.712L36.4049 133.326C37.0779 134.124 37.7864 134.93 38.5106 135.719L38.0684 136.125ZM33.9316 131.206C33.2754 130.349 32.6386 129.475 32.0402 128.607L32.5341 128.266C33.1271 129.126 33.7575 129.992 34.4083 130.841L33.9316 131.206ZM30.286 125.913C29.7224 124.993 29.1832 124.055 28.6844 123.125L29.2135 122.842C29.7069 123.761 30.2397 124.689 30.7979 125.6L30.286 125.913ZM27.25 120.249C26.8004 119.274 26.3779 118.278 25.9943 117.288L26.5536 117.071C26.9328 118.049 27.3504 119.034 27.7946 119.998L27.25 120.249ZM24.932 114.249C24.6148 113.232 24.3278 112.187 24.0792 111.144L24.6628 111.005C24.9082 112.034 25.1919 113.066 25.5047 114.07L24.932 114.249ZM23.4378 107.989C23.2596 106.937 23.1148 105.863 23.0062 104.799L23.6031 104.738C23.7101 105.789 23.8538 106.849 24.0292 107.889L23.4378 107.989ZM22.7833 101.588C22.7599 100.965 22.7484 100.341 22.748 99.7169C22.748 99.2677 22.7539 98.8185 22.7661 98.3693L23.3661 98.3856C23.3539 98.8294 23.348 99.2733 23.348 99.7169C23.3484 100.333 23.3598 100.95 23.3824 101.565L22.7833 101.588ZM23.5516 95.2103L22.954 95.1564C23.05 94.0947 23.1814 93.0201 23.3446 91.9619L23.9376 92.0532C23.7762 93.0989 23.6464 94.1611 23.5516 95.2103ZM24.5234 88.9271L23.9375 88.798C24.1679 87.7535 24.4347 86.7039 24.7305 85.6785L25.307 85.8449C25.0144 86.8579 24.7512 87.8951 24.5234 88.9271ZM26.2872 82.8197L25.7224 82.6164C26.0856 81.6078 26.4856 80.6017 26.9118 79.6255L27.4618 79.8652C27.041 80.8297 26.6456 81.8235 26.2872 82.8197ZM28.83 76.9955L28.2972 76.7189C28.7918 75.7657 29.3234 74.8217 29.8764 73.9131L30.3891 74.225C29.8431 75.1219 29.3184 76.0539 28.83 76.9955ZM32.136 71.5697L31.6462 71.2229C32.2622 70.3537 32.9184 69.4916 33.5966 68.6606L34.0614 69.0402C33.3914 69.8602 32.7438 70.7115 32.136 71.5697ZM36.1532 66.6463L35.7151 66.2369C36.4417 65.4591 37.2065 64.6927 37.9885 63.9583L38.3994 64.3959C37.6266 65.1213 36.8706 65.8783 36.1532 66.6463ZM40.7874 62.2959L40.4062 61.8327C41.2292 61.1545 42.0866 60.4933 42.9546 59.8671L43.3054 60.3538C42.448 60.9722 41.6008 61.6259 40.7874 62.2959ZM45.9426 58.5746L45.6231 58.0668C46.5275 57.4976 47.4616 56.9505 48.4004 56.4395L48.6872 56.9668C47.7598 57.4714 46.8362 58.0126 45.9426 58.5746ZM51.5274 55.536L51.2742 54.9923C52.2472 54.5399 53.2438 54.1153 54.2356 53.7297L54.4528 54.2891C53.473 54.6701 52.4886 55.0894 51.5274 55.536ZM108.252 54.4742H108.14V53.8742H108.252C109.306 53.8742 110.338 53.8451 111.321 53.7875L111.356 54.3866C110.362 54.445 109.317 54.4742 108.252 54.4742ZM104.927 54.3876C103.901 54.336 102.852 54.263 101.721 54.1638L101.773 53.5662C102.897 53.6646 103.939 53.7373 104.956 53.7885L104.927 54.3876ZM114.563 54.0853L114.484 53.4907C115.552 53.3497 116.604 53.1661 117.611 52.9457L117.739 53.5317C116.716 53.7559 115.648 53.9423 114.563 54.0853ZM98.5266 53.8376C97.4692 53.7154 96.4078 53.5819 95.3442 53.4405L95.423 52.8459C96.4837 52.9865 97.541 53.12 98.5952 53.2414L98.5266 53.8376ZM57.452 53.2329L57.2716 52.661C58.292 52.3384 59.3348 52.0458 60.3708 51.7914L60.5138 52.3742C59.4902 52.6254 58.4602 52.9145 57.452 53.2329ZM92.17 53.0021L89.0008 52.5496L89.0852 51.9558L92.2544 52.4083L92.17 53.0021ZM120.855 52.6934L120.672 52.1225C121.682 51.7979 122.678 51.4204 123.634 51.0016L123.875 51.5509C122.901 51.9783 121.885 52.3626 120.855 52.6934ZM85.8329 52.109C84.7763 51.9676 83.7192 51.8321 82.6628 51.7083L82.7332 51.1121C83.7926 51.2367 84.8528 51.3723 85.9124 51.5145L85.8329 52.109ZM63.6251 51.7204L63.521 51.1298C64.58 50.9442 65.6526 50.7935 66.7092 50.6819L66.7725 51.2787C65.7293 51.3887 64.6701 51.5376 63.6251 51.7204ZM79.489 51.3726C78.3644 51.269 77.3246 51.1903 76.3095 51.1317L76.3438 50.5324C77.3661 50.5914 78.4127 50.6711 79.5438 50.7751L79.489 51.3726ZM69.9442 51.0516L69.9208 50.4525C70.9884 50.4103 72.0598 50.3997 73.1348 50.4147L73.1262 51.0147C72.0632 50.9993 71.0012 51.0102 69.9442 51.0516Z" fill="#708CD5"/>
<path d="M330.587 227.087L330.585 226.487C331.632 226.483 332.703 226.449 333.766 226.386L333.802 226.984C332.727 227.048 331.646 227.083 330.587 227.087ZM327.372 227.004C326.309 226.947 325.23 226.855 324.166 226.734L324.235 226.137C325.287 226.258 326.353 226.348 327.404 226.405L327.372 227.004ZM337.007 226.702L336.938 226.107C337.978 225.986 339.039 225.834 340.09 225.655L340.19 226.247C339.129 226.428 338.057 226.581 337.007 226.702ZM320.982 226.27C319.925 226.082 318.864 225.861 317.832 225.609L317.974 225.026C318.994 225.275 320.042 225.494 321.086 225.679L320.982 226.27ZM343.343 225.622L343.211 225.036C343.583 224.953 343.955 224.865 344.328 224.774C344.987 224.611 345.644 224.439 346.299 224.257L346.46 224.835C345.799 225.018 345.136 225.193 344.471 225.357C344.094 225.449 343.719 225.537 343.343 225.622ZM314.73 224.747C313.704 224.426 312.682 224.068 311.69 223.685L311.907 223.125C312.886 223.504 313.897 223.857 314.91 224.175L314.73 224.747ZM349.534 223.904L349.348 223.334C350.347 223.007 351.358 222.651 352.353 222.278L352.564 222.839C351.561 223.216 350.542 223.575 349.534 223.904ZM308.728 222.422C307.762 221.971 306.796 221.479 305.858 220.96L306.149 220.435C307.075 220.947 308.028 221.432 308.982 221.879L308.728 222.422ZM355.547 221.649L355.314 221.096C356.278 220.69 357.257 220.254 358.226 219.8L358.481 220.344C357.505 220.801 356.518 221.24 355.547 221.649ZM303.094 219.304C302.197 218.723 301.308 218.103 300.452 217.461L300.811 216.982C301.657 217.615 302.534 218.227 303.421 218.801L303.094 219.304ZM361.365 218.936L361.092 218.401C362.024 217.926 362.972 217.422 363.909 216.905L364.2 217.43C363.256 217.951 362.302 218.458 361.365 218.936ZM366.985 215.837L366.679 215.321C367.592 214.78 368.5 214.224 369.402 213.655L369.722 214.163C368.815 214.735 367.903 215.294 366.985 215.837ZM297.944 215.443C297.14 214.748 296.348 214.009 295.587 213.245L296.012 212.822C296.763 213.575 297.544 214.305 298.336 214.99L297.944 215.443ZM372.412 212.417L372.079 211.919C372.962 211.329 373.841 210.727 374.714 210.115L375.059 210.605C374.182 211.221 373.3 211.826 372.412 212.417ZM293.395 210.887C292.7 210.086 292.018 209.244 291.368 208.386L291.846 208.023C292.489 208.871 293.162 209.702 293.848 210.493L293.395 210.887ZM377.663 208.734L377.308 208.251C378.164 207.622 379.015 206.983 379.862 206.333L380.228 206.809C379.378 207.461 378.523 208.103 377.663 208.734ZM289.504 205.762C288.912 204.87 288.341 203.95 287.805 203.027L288.324 202.726C288.854 203.638 289.419 204.548 290.004 205.43L289.504 205.762ZM382.753 204.837L382.38 204.366C383.213 203.704 384.041 203.033 384.864 202.356L385.245 202.819C384.419 203.499 383.589 204.172 382.753 204.837ZM286.271 200.196C285.793 199.249 285.332 198.269 284.904 197.283L285.454 197.044C285.878 198.019 286.333 198.989 286.807 199.926L286.271 200.196ZM283.708 194.295C283.339 193.29 282.994 192.264 282.685 191.246L283.258 191.071C283.565 192.079 283.905 193.093 284.271 194.089L283.708 194.295ZM281.838 188.141C281.586 187.103 281.363 186.044 281.174 184.993L281.765 184.887C281.951 185.926 282.172 186.973 282.421 188.001L281.838 188.141ZM280.698 181.81C280.571 180.738 280.477 179.66 280.418 178.605L281.016 178.57C281.076 179.614 281.169 180.68 281.294 181.74L280.698 181.81ZM280.938 175.391L280.338 175.387C280.346 174.31 280.391 173.227 280.469 172.17L281.068 172.214C280.99 173.258 280.946 174.328 280.938 175.391ZM281.41 169.054L280.816 168.968C280.969 167.907 281.16 166.84 281.386 165.799L281.972 165.925C281.75 166.954 281.561 168.006 281.41 169.054Z" fill="#708CD5"/>
<path d="M137.533 237.368C138.692 237.368 139.633 236.428 139.633 235.268C139.633 234.108 138.692 233.168 137.533 233.168C136.373 233.168 135.433 234.108 135.433 235.268C135.433 236.428 136.373 237.368 137.533 237.368Z" fill="#D3DFFF"/>
<path d="M145.632 237.368C146.792 237.368 147.732 236.428 147.732 235.268C147.732 234.108 146.792 233.168 145.632 233.168C144.472 233.168 143.532 234.108 143.532 235.268C143.532 236.428 144.472 237.368 145.632 237.368Z" fill="#D3DFFF"/>
<path d="M153.733 237.368C154.893 237.368 155.833 236.428 155.833 235.268C155.833 234.108 154.893 233.168 153.733 233.168C152.573 233.168 151.633 234.108 151.633 235.268C151.633 236.428 152.573 237.368 153.733 237.368Z" fill="#D3DFFF"/>
<path d="M44.1331 37.8613C44.0913 37.9353 44.0433 38.0129 43.9983 38.0813C43.9165 38.0835 43.8253 38.0839 43.7403 38.0807C25.3263 37.9659 28.4853 22.3031 37.3105 26.1099C38.6957 16.5991 53.6895 22.1209 44.1331 37.8613Z" fill="#D3DFFF"/>
<path d="M267.509 177.615H203.691V288.815H267.509V177.615Z" fill="#708CD5"/>
<path opacity="0.3" d="M267.509 177.615H203.691V230.874H267.509V177.615Z" fill="#1F3C88"/>
<path d="M249.862 207.292C251.098 199.41 245.711 192.018 237.828 190.782C229.946 189.546 222.555 194.934 221.319 202.816C220.083 210.698 225.471 218.09 233.353 219.326C241.235 220.562 248.627 215.174 249.862 207.292Z" fill="white"/>
<path d="M289.733 288.762H181.467V283.663C181.467 280.883 183.721 278.629 186.501 278.629H284.699C287.48 278.629 289.733 280.883 289.733 283.663V288.762Z" fill="#1F3C88"/>
<path d="M385.298 0.488281H85.9033V203.664H385.298V0.488281Z" fill="#D3DFFF"/>
<path d="M373.635 9.58008H97.5654V190.564H373.635V9.58008Z" fill="white"/>
<path d="M149.861 56.0297L155.508 67.4711C155.657 67.7733 155.945 67.9827 156.279 68.0313L168.905 69.8661C169.745 69.9881 170.08 71.0203 169.473 71.6127L160.336 80.5187C160.095 80.7539 159.985 81.0929 160.042 81.4251L162.198 94.0005C162.342 94.8371 161.464 95.4749 160.713 95.0799L149.419 89.1427C149.121 88.9859 148.765 88.9859 148.466 89.1427L137.173 95.0799C136.422 95.4749 135.544 94.8369 135.687 94.0005L137.844 81.4251C137.901 81.0929 137.791 80.7539 137.55 80.5187L128.413 71.6127C127.805 71.0203 128.141 69.9881 128.981 69.8661L141.607 68.0313C141.941 67.9829 142.229 67.7733 142.378 67.4711L148.025 56.0297C148.4 55.2687 149.485 55.2687 149.861 56.0297Z" fill="#FBC343"/>
<path d="M209.585 56.0297L215.232 67.4711C215.381 67.7733 215.669 67.9827 216.003 68.0313L228.629 69.8661C229.469 69.9881 229.804 71.0203 229.197 71.6127L220.06 80.5187C219.819 80.7539 219.709 81.0929 219.766 81.4251L221.922 94.0005C222.066 94.8371 221.188 95.4749 220.437 95.0799L209.143 89.1427C208.845 88.9859 208.488 88.9859 208.19 89.1427L196.897 95.0799C196.146 95.4749 195.268 94.8369 195.411 94.0005L197.568 81.4251C197.625 81.0929 197.515 80.7539 197.273 80.5187L188.137 71.6127C187.529 71.0203 187.864 69.9881 188.704 69.8661L201.331 68.0313C201.664 67.9829 201.952 67.7733 202.102 67.4711L207.748 56.0297C208.124 55.2687 209.209 55.2687 209.585 56.0297Z" fill="#FBC343"/>
<path d="M269.309 56.0297L274.955 67.4711C275.105 67.7733 275.393 67.9827 275.726 68.0313L288.353 69.8661C289.193 69.9881 289.528 71.0203 288.92 71.6127L279.784 80.5187C279.542 80.7539 279.432 81.0929 279.489 81.4251L281.646 94.0005C281.789 94.8371 280.911 95.4749 280.16 95.0799L268.867 89.1427C268.568 88.9859 268.212 88.9859 267.914 89.1427L256.62 95.0799C255.869 95.4749 254.991 94.8369 255.135 94.0005L257.291 81.4251C257.348 81.0929 257.238 80.7539 256.997 80.5187L247.86 71.6127C247.252 71.0203 247.588 69.9881 248.428 69.8661L261.054 68.0313C261.388 67.9829 261.676 67.7733 261.825 67.4711L267.472 56.0297C267.848 55.2687 268.933 55.2687 269.309 56.0297Z" fill="#FBC343"/>
<path d="M277.465 27.8027H193.736V37.2071H277.465V27.8027Z" fill="#708CD5"/>
<path d="M277.465 120.131H193.736V124.418H277.465V120.131Z" fill="#D3DFFF"/>
<path d="M334.205 174.196H136.993C135.255 174.196 133.846 172.787 133.846 171.05V142.438C133.846 140.7 135.255 139.291 136.993 139.291H334.205C335.943 139.291 337.352 140.7 337.352 142.438V171.05C337.352 172.787 335.943 174.196 334.205 174.196Z" fill="white"/>
<path d="M334.205 174.596H136.993C135.037 174.596 133.446 173.005 133.446 171.049V142.437C133.446 140.482 135.037 138.891 136.993 138.891H334.206C336.161 138.891 337.752 140.482 337.752 142.437V171.049C337.752 173.005 336.161 174.596 334.205 174.596ZM136.993 139.691C135.479 139.691 134.246 140.923 134.246 142.437V171.049C134.246 172.564 135.479 173.796 136.993 173.796H334.206C335.72 173.796 336.952 172.564 336.952 171.049V142.437C336.952 140.923 335.72 139.691 334.206 139.691H136.993Z" fill="#708CD5"/>
<path d="M326.8 148.879H144.4V149.679H326.8V148.879Z" fill="#708CD5"/>
<path d="M278 156.078H144.4V156.878H278V156.078Z" fill="#708CD5"/>
<path d="M248.134 163.812H144.4V164.613H248.134V163.812Z" fill="#708CD5"/>
<path d="M60.1302 273.333L59.2224 288.769H35.5674L45.3278 281.051L48.599 272.996L60.1302 273.333Z" fill="#D3DFFF"/>
<path d="M45.4976 280.671L45.1768 281.404L51.448 284.149L51.7688 283.417L45.4976 280.671Z" fill="#102048"/>
<path d="M87.1994 173.797L86.1194 178.197L80.9034 199.525L62.2714 275.605H44.5674L59.9594 183.237L61.5914 173.461L79.9834 173.701L87.1994 173.797Z" fill="#1F3C88"/>
<path d="M86.5762 273.334L87.484 288.769H111.139L101.379 281.052L99.3358 273.107L86.5762 273.334Z" fill="#D3DFFF"/>
<path d="M101.232 280.677L94.9189 283.152L95.2112 283.898L101.524 281.423L101.232 280.677Z" fill="#102048"/>
<path d="M102.448 275.765H83.6076L80.9036 199.525L80.1836 179.341L79.9836 173.701L79.9756 173.461L92.9516 173.597L101.088 173.685L102.448 275.765Z" fill="#1F3C88"/>
<path d="M76.5253 220.673L75.7393 220.521L81.1237 192.524L88.0537 191.139L88.2109 191.923L81.8081 193.203L76.5253 220.673Z" fill="white"/>
<path d="M78.9948 122.846L103.812 127.537L102.399 133.6L104.683 173.061C104.703 175.28 102.905 177.086 100.686 177.075L63.6664 176.889C61.416 176.878 59.6232 175.004 59.7116 172.755L59.0654 137.133L78.9948 122.846Z" fill="#EE6F57"/>
<path d="M107.63 119.616C105.511 118.254 106.117 111.747 104.452 111.823C102.787 111.899 102.636 116.438 102.863 117.346C103.09 118.254 103.544 121.054 103.544 121.054L107.63 119.616Z" fill="#FFBC96"/>
<path d="M92.7988 141.199L116.799 146.399C123.199 147.599 127.681 147.876 131.993 144.585L97.9454 127.939L92.7988 141.199Z" fill="#EE6F57"/>
<path d="M49.9405 156.211L62.5003 143.575L78.9945 122.844L62.4613 126.946C60.1205 127.527 58.0091 128.8 56.4023 130.598L35.2425 154.288C33.5167 156.663 33.6165 160.122 36.1343 162.53L47.0087 169.7L55.0839 160.183L49.9405 156.211Z" fill="#EE6F57"/>
<path d="M107.63 119.617C101.426 116.288 100.215 116.136 98.0968 118.406C96.8022 119.794 95.7336 121.746 95.3054 123.4C94.969 124.699 95.5012 126.071 96.5676 126.886L97.9454 127.94L105.116 132.488L112.038 122.326C110.242 121.148 108.706 120.194 107.63 119.617Z" fill="#FFBC96"/>
<path d="M131.495 135.995C126.608 132.438 117.91 126.174 112.038 122.326L105.116 132.488L125.207 145.231C128.073 147.049 131.885 145.913 133.289 142.824C134.388 140.407 133.641 137.557 131.495 135.995Z" fill="#EE6F57"/>
<path d="M67.4188 163.512C73.169 160.335 66.8892 160.145 59.2472 163.399L55.084 160.184L47.0088 169.701L52.3706 173.236C54.1428 174.405 56.387 174.584 58.3212 173.709C60.5994 172.679 63.4602 171.425 64.3924 171.192C66.511 170.663 71.1262 170.436 69.9914 169.074L68.0242 168.544C68.0242 168.544 71.7316 167.56 71.202 166.728C70.6724 165.896 66.9272 166.085 66.9272 166.085C66.9272 166.085 71.7696 164.534 71.883 163.437C71.9716 162.579 67.4188 163.512 67.4188 163.512Z" fill="#FFBC96"/>
<path d="M61.5938 165.34C61.5058 165.34 61.4254 165.281 61.4008 165.193C61.3714 165.086 61.4344 164.976 61.5406 164.947L68.4258 163.055C68.534 163.028 68.6426 163.09 68.6718 163.195C68.701 163.302 68.6382 163.412 68.532 163.441L61.6468 165.333C61.6288 165.337 61.6114 165.34 61.5938 165.34Z" fill="#E8947D"/>
<path d="M62.0471 169.727C61.9511 169.727 61.8664 169.657 61.8504 169.56C61.8324 169.45 61.9062 169.347 62.0152 169.329L67.9926 168.346C68.1 168.33 68.2043 168.402 68.2221 168.511C68.2401 168.62 68.1664 168.723 68.0574 168.741L62.0799 169.725C62.0691 169.726 62.0581 169.727 62.0471 169.727Z" fill="#E8947D"/>
<path d="M62.2738 167.233C62.178 167.233 62.0934 167.163 62.077 167.065C62.0586 166.957 62.1324 166.854 62.2414 166.835L67.689 165.926C67.7968 165.909 67.9008 165.983 67.919 166.091C67.9372 166.2 67.8636 166.303 67.7546 166.322L62.307 167.23C62.296 167.232 62.2848 167.233 62.2738 167.233Z" fill="#E8947D"/>
<path d="M119.599 142.631C119.541 142.631 119.482 142.615 119.43 142.58L104.948 132.734C104.811 132.641 104.775 132.455 104.869 132.317C104.961 132.18 105.147 132.144 105.285 132.238L119.768 142.083C119.905 142.177 119.94 142.363 119.847 142.5C119.789 142.585 119.695 142.631 119.599 142.631Z" fill="#6F3428"/>
<path d="M103.598 158.232C103.441 158.232 103.309 158.109 103.299 157.951L101.965 136.617C101.955 136.452 102.081 136.309 102.246 136.299C102.406 136.277 102.554 136.415 102.564 136.58L103.898 157.913C103.908 158.079 103.782 158.221 103.617 158.231C103.611 158.232 103.604 158.232 103.598 158.232Z" fill="#6F3428"/>
<path d="M59.5981 154.233C59.4349 154.233 59.3013 154.102 59.2981 153.938L59.0313 139.538C59.0281 139.372 59.1601 139.236 59.3259 139.233C59.4775 139.226 59.6279 139.361 59.6313 139.527L59.8981 153.927C59.9013 154.093 59.7693 154.23 59.6035 154.233C59.6017 154.233 59.6001 154.233 59.5981 154.233Z" fill="#6F3428"/>
<path d="M43.8651 157.298C43.7167 157.298 43.5877 157.188 43.5679 157.036C43.5467 156.872 43.6629 156.721 43.8269 156.7L49.9023 155.912C50.0675 155.892 50.2167 156.007 50.2387 156.172C50.2597 156.336 50.1437 156.487 49.9797 156.508L43.9043 157.296C43.8909 157.297 43.8779 157.298 43.8651 157.298Z" fill="#6F3428"/>
<path d="M81.5389 134.641C79.4975 134.641 77.3857 133.625 75.2593 131.617C75.1385 131.503 75.1331 131.313 75.2471 131.193C75.3603 131.073 75.5511 131.066 75.6709 131.181C77.7479 133.141 79.7823 134.112 81.7225 134.038C83.6197 133.975 85.5225 132.929 87.3783 130.928C87.4909 130.806 87.6807 130.8 87.8021 130.912C87.9237 131.025 87.9311 131.215 87.8181 131.336C85.8493 133.458 83.8053 134.569 81.7423 134.638C81.6749 134.64 81.6069 134.641 81.5389 134.641Z" fill="#6F3428"/>
<path d="M86.388 114.924V124.082C86.388 126.871 84.127 129.132 81.3382 129.132C78.5422 129.132 76.2812 126.871 76.2812 124.082V114.924H86.388Z" fill="#FFBC96"/>
<path d="M86.3884 118.006V124.061C82.0304 123.548 79.3984 120.295 77.708 116.65L86.3884 118.006Z" fill="#E8947D"/>
<path d="M89.1827 115.432C88.9987 117.664 88.2707 119.512 86.3907 120.144C86.1427 120.232 85.8867 120.296 85.5987 120.336C82.3827 120.792 80.1107 119.704 78.5587 118.28C77.7827 117.568 77.1827 116.776 76.7347 116.056C76.5587 115.776 76.4067 115.504 76.2787 115.256C75.9587 114.632 75.7667 114.136 75.6867 113.896C75.6467 113.792 75.6307 113.736 75.6307 113.736L75.5987 111.336L75.5107 105.536L83.6547 102.92L88.5987 106C88.6147 106.48 88.6547 107.016 88.7187 107.608C88.8707 109.152 89.1267 111.008 89.2147 112.832C89.2547 113.72 89.2627 114.608 89.1827 115.432Z" fill="#FFBC96"/>
<path d="M76.8781 113.619C76.4759 111.385 76.4349 109.277 76.9969 107.378C81.2377 104.801 86.7339 107.904 89.5795 107.619C90.0501 107.572 90.4795 107.303 90.7231 106.897C95.5753 98.8212 80.4767 94.619 73.3711 104.287C69.8125 105.586 70.9935 110.35 74.0843 114.273L76.8781 113.619Z" fill="#102048"/>
<path d="M76.5563 116.125C77.7473 115.754 78.3846 114.399 77.9797 113.099C77.5748 111.798 76.2811 111.044 75.0901 111.415C73.8991 111.785 73.2618 113.14 73.6667 114.441C74.0715 115.742 75.3652 116.496 76.5563 116.125Z" fill="#FFBC96"/>
<path d="M86.5769 111.826C86.6447 112.172 86.9327 112.407 87.2205 112.35C87.5081 112.294 87.6865 111.968 87.6187 111.622C87.5509 111.276 87.2627 111.042 86.9751 111.098C86.6875 111.155 86.5091 111.481 86.5769 111.826Z" fill="#102048"/>
<path d="M82.4216 112.004C82.4894 112.35 82.7774 112.585 83.0652 112.528C83.3528 112.472 83.5312 112.146 83.4634 111.8C83.3956 111.454 83.1074 111.22 82.8198 111.276C82.5322 111.332 82.3538 111.658 82.4216 112.004Z" fill="#102048"/>
<path d="M85.2611 115.129C85.1587 115.129 85.0717 115.051 85.0623 114.947C85.0529 114.837 85.1341 114.74 85.2443 114.73C85.2517 114.729 85.9915 114.66 86.3845 114.231C86.4013 114.213 86.4181 114.186 86.4135 114.129C86.3835 113.783 85.7171 113.149 85.3037 112.831C85.2161 112.763 85.2001 112.638 85.2673 112.55C85.3353 112.463 85.4595 112.447 85.5481 112.514C85.6715 112.609 86.7571 113.463 86.8117 114.095C86.8249 114.252 86.7793 114.392 86.6789 114.502C86.1797 115.046 85.3149 115.125 85.2785 115.129C85.2727 115.129 85.2669 115.129 85.2611 115.129Z" fill="#E8947D"/>
<path d="M86.5279 116.18C85.9755 118.146 84.3577 117.643 83.4883 116.241L86.5279 116.18Z" fill="white"/>
<path d="M85.7384 109.744C85.7038 110.314 86.5192 110.161 86.8394 110.163C87.5 110.168 88.1292 109.958 88.1308 109.762C88.1322 109.566 87.598 109.403 86.9372 109.398C86.2768 109.393 85.7634 109.334 85.7384 109.744Z" fill="#102048"/>
<path d="M83.6064 109.684C83.7652 110.303 82.8702 110.39 82.532 110.493C81.8346 110.707 81.1242 110.672 81.0806 110.456C81.0372 110.24 81.5672 109.893 82.2648 109.679C82.9622 109.466 83.492 109.238 83.6064 109.684Z" fill="#102048"/>
<path opacity="0.3" d="M82.432 114.615C82.432 115.343 81.8424 115.932 81.1154 115.932C80.3882 115.932 79.7988 115.342 79.7988 114.615C79.7988 113.888 80.3884 113.299 81.1154 113.299C81.8424 113.299 82.432 113.888 82.432 114.615Z" fill="#EE6F57"/>
<path opacity="0.3" d="M89.1829 115.432C88.5429 115.344 88.0469 114.8 88.0469 114.136C88.0469 113.464 88.5589 112.904 89.2149 112.832C89.2549 113.72 89.2629 114.608 89.1829 115.432Z" fill="#EE6F57"/>
<path d="M76.1489 114.65C76.0383 114.65 75.9489 114.561 75.9489 114.45C75.9489 113.929 75.8263 113.555 75.5947 113.367C75.3657 113.182 75.0579 113.198 74.8407 113.246C74.7349 113.266 74.6267 113.2 74.6031 113.092C74.5801 112.984 74.6489 112.878 74.7571 112.854C75.1903 112.762 75.5681 112.831 75.8461 113.056C76.1797 113.326 76.3489 113.795 76.3489 114.45C76.3489 114.561 76.2595 114.65 76.1489 114.65Z" fill="#102048"/>
<path d="M36.5999 106.35C39.9489 102.737 41.9991 97.902 41.9991 92.5868C41.9991 81.4004 32.9307 72.332 21.7443 72.332C10.5579 72.332 1.48926 81.4004 1.48926 92.5868C1.48926 103.773 10.5577 112.842 21.7443 112.842C24.6181 112.842 27.3501 112.239 29.8265 111.16L40.6373 116.599L36.5999 106.35Z" fill="#C6EAE9"/>
<path d="M20.9485 99.9545L13.9145 90.1775C13.6563 89.8189 13.7379 89.3189 14.0965 89.0611C14.4547 88.8017 14.9551 88.8845 15.2129 89.2431L20.7501 96.9395L28.5723 82.3599C28.7817 81.9697 29.2661 81.8239 29.6555 82.0329C30.0449 82.2419 30.1911 82.7271 29.9825 83.1161L20.9485 99.9545Z" fill="white"/>
<path d="M396.997 212.504L383.378 218.859L385.315 274.478L398.516 276.293L396.997 212.504Z" fill="#FFBC96"/>
<path d="M385.314 274.479L385.496 279.693L373.692 288.772H398.812L398.515 276.294L385.314 274.479Z" fill="#D3DFFF"/>
<path d="M385.698 279.369L385.298 280.062L389.733 282.62L390.133 281.926L385.698 279.369Z" fill="#102048"/>
<path d="M404.942 223.929L403.807 217.801L388.145 222.794L389.669 230.277C390.289 233.324 392.142 235.978 394.787 237.612C397.091 239.035 399.83 239.581 402.503 239.149L436.506 233.653L438.891 220.736L404.942 223.929Z" fill="#FFBC96"/>
<path d="M400.669 239.608C397.534 239.608 394.702 238.209 392.396 235.498C390.328 233.069 389.422 230.484 389.385 230.376C389.331 230.22 389.414 230.048 389.571 229.995C389.724 229.941 389.898 230.024 389.952 230.181C389.987 230.282 393.581 240.38 402.452 238.853C402.62 238.831 402.771 238.936 402.799 239.099C402.826 239.263 402.717 239.417 402.553 239.445C401.914 239.554 401.286 239.608 400.669 239.608Z" fill="#E8947D"/>
<path d="M452.835 242.995L450.792 219.615L438.891 220.735L436.506 233.652L443.302 232.553L452.835 242.995Z" fill="#D3DFFF"/>
<path d="M445.036 226.611L442.913 232.412L443.665 232.687L445.787 226.886L445.036 226.611Z" fill="#102048"/>
<path d="M402.105 173.083C408.574 181.482 405.623 189.426 403.58 198.96L409.732 223.534L378.385 230.965L376.342 177.056L389.053 170.133L402.105 173.083Z" fill="#EE6F57"/>
<path d="M380.624 118.791C380.624 118.791 376.989 120.977 377.779 121.854C378.569 122.731 380.225 123.038 380.225 123.038L380.624 118.791Z" fill="#E8947D"/>
<path d="M382.744 121.343L381.848 138.451L391.241 138.943L392.137 121.835L382.744 121.343Z" fill="#FFBC96"/>
<path d="M390.299 126.385C388.36 129.395 385.608 131.546 382.139 132.723L382.593 124.031L390.299 126.385Z" fill="#E8947D"/>
<path d="M380.942 115.244C380.942 115.244 376.964 127.356 382.373 128.255C387.782 129.154 390.303 126.382 390.303 126.382L392.12 118.557L388.345 113.344L380.942 115.244Z" fill="#FFBC96"/>
<path d="M389.754 121.91C389.14 122.985 387.883 123.421 386.945 122.886C386.007 122.35 385.745 121.044 386.359 119.97C386.973 118.896 388.231 118.459 389.169 118.995C390.106 119.53 390.369 120.836 389.754 121.91Z" fill="#FFBC96"/>
<path d="M387.372 120.993C386.307 119.757 385.716 118.037 385.387 116.049C372.454 120.212 375.81 106.528 382.527 110.179C392.457 103.703 402.211 118.249 392.045 125.021C390.64 122.238 389.07 121.007 387.372 120.993Z" fill="#102048"/>
<path d="M392.965 110.948C399.621 106.897 410.188 112.011 403.906 130.024C393.503 122.809 398.267 114.868 392.965 110.948Z" fill="#102048"/>
<path d="M338.788 79.9081L342.959 92.3203C343.071 92.6527 343.339 92.9089 343.676 93.0053L356.299 96.6171C357.15 96.8605 357.351 97.9743 356.639 98.4993L346.086 106.279C345.803 106.488 345.641 106.823 345.653 107.174L346.105 120.249C346.136 121.131 345.142 121.666 344.423 121.155L333.72 113.553C333.435 113.35 333.069 113.3 332.74 113.419L320.387 117.891C319.557 118.192 318.742 117.41 319.008 116.567L322.955 104.093C323.061 103.758 322.995 103.392 322.778 103.115L314.7 92.8063C314.155 92.1103 314.646 91.0911 315.53 91.0833L328.667 90.9673C329.017 90.9641 329.344 90.7895 329.54 90.4997L336.896 79.6491C337.391 78.9199 338.507 79.0723 338.788 79.9081Z" fill="#FBC343"/>
<path d="M355.515 91.7119C354.12 91.2291 356.661 100.339 357.377 102.819C357.484 103.191 357.347 103.587 357.034 103.814C356.582 104.143 355.945 103.997 355.685 103.503C354.602 101.45 352.016 96.7823 351.118 97.2499C350.124 97.7733 352.575 104.508 355.937 112.532L364.01 106.428C359.734 98.4087 356.122 91.9217 355.515 91.7119Z" fill="#FFBC96"/>
<path d="M380.056 137.329C380.056 137.329 371.117 119.761 364.009 106.428L355.937 112.532C360.598 125.602 367.398 142.802 367.398 142.802L380.056 137.329Z" fill="#102048"/>
<path d="M323.907 114.239C323.453 114.92 326.801 119.8 326.801 119.8C321.62 117.425 316.965 115.445 315.035 114.633C314.555 114.432 314.007 114.784 314.025 115.304C314.245 121.61 324.929 127.46 324.929 127.46L327.924 132.002L334.574 122.283C329.318 117.074 324.675 113.087 323.907 114.239Z" fill="#FFBC96"/>
<path d="M396.494 134.402C393.933 132.954 390.64 132.201 386.506 132.17C383.579 132.148 380.661 132.533 377.81 133.201L350.919 140.059C349.003 137.582 341.289 128.936 334.575 122.283L327.925 132.003L340.007 150.324C341.493 152.577 343.657 154.3 346.186 155.244C348.604 156.146 351.238 156.292 353.741 155.663L371.575 151.181L376.342 177.058L402.105 173.085C405.616 153.216 402.575 137.841 396.494 134.402Z" fill="#1F3C88"/>
<path d="M438.088 135.151C434.739 131.537 432.688 126.703 432.688 121.388C432.688 110.201 441.757 101.133 452.943 101.133C464.13 101.133 473.198 110.201 473.198 121.388C473.198 132.574 464.13 141.642 452.943 141.642C450.07 141.642 447.337 141.04 444.861 139.961L434.05 145.399L438.088 135.151Z" fill="#C6EAE9"/>
<path d="M451.698 130.907L444.664 121.13C444.405 120.772 444.487 120.272 444.846 120.014C445.205 119.756 445.704 119.838 445.962 120.196L451.5 127.892L459.322 113.313C459.53 112.924 460.015 112.777 460.405 112.986C460.794 113.195 460.941 113.68 460.732 114.069L451.698 130.907Z" fill="white"/>
<path d="M475.356 288.398H0.642578V289.198H475.356V288.398Z" fill="#102048"/>
</svg>
