<svg width="18" height="20" viewBox="0 0 18 20" fill="none" xmlns="http://www.w3.org/2000/svg">
<path fill-rule="evenodd" clip-rule="evenodd" d="M0.618777 6.44985C0.277344 7.19377 0.277344 8.03988 0.277344 9.73209V15.0156C0.277344 17.367 0.277344 18.5421 1.00756 19.271C1.66924 19.934 2.69853 19.9938 4.63871 20V13.7695C4.63871 13.1085 4.90129 12.4746 5.36867 12.0072C5.83605 11.5398 6.46995 11.2773 7.13093 11.2773H10.8692C11.5302 11.2773 12.1641 11.5398 12.6315 12.0072C13.0989 12.4746 13.3615 13.1085 13.3615 13.7695V20C15.3016 19.9938 16.3309 19.9327 16.9926 19.2698C17.7228 18.5396 17.7228 17.3657 17.7228 15.0156V9.73209C17.7228 8.03988 17.7228 7.19377 17.3814 6.44985C17.0387 5.70592 16.397 5.15639 15.1122 4.05483L13.8661 2.98692C11.5421 0.996885 10.3833 0 9.00009 0C7.61691 0 6.45678 0.995639 4.13404 2.98567L2.88794 4.05358C1.60445 5.15514 0.961456 5.70467 0.620023 6.4486M10.8692 20V13.7695H7.13093V20H10.8692Z" fill="white"/>
</svg>
