<svg width="20" height="21" viewBox="0 0 20 21" fill="none" xmlns="http://www.w3.org/2000/svg">
<path d="M10 0.5C4.486 0.5 0 4.986 0 10.5V11.214V14.5V14.643C0 15.667 0.897 16.5 2 16.5H3C3.553 16.5 4 16.052 4 15.5V10.357C4 9.805 3.553 9.357 3 9.357H2.092C2.648 5.487 5.978 2.5 10 2.5C14.022 2.5 17.352 5.487 17.908 9.357H17C16.447 9.357 16 9.805 16 10.357V14.5V15.5V16.5C16 17.603 15.103 18.5 14 18.5H12V17.5H8V20.5H10H12H14C16.206 20.5 18 18.706 18 16.5C19.103 16.5 20 15.667 20 14.643V14.5V11.214V10.5C20 4.986 15.514 0.5 10 0.5Z" fill="white"/>
</svg>
