<svg width="18" height="21" viewBox="0 0 18 21" fill="none" xmlns="http://www.w3.org/2000/svg">
<path d="M17 3.09375C17.2652 3.09375 17.5196 3.19911 17.7071 3.38664C17.8946 3.57418 18 3.82853 18 4.09375C18 4.35897 17.8946 4.61332 17.7071 4.80086C17.5196 4.98839 17.2652 5.09375 17 5.09375H16L15.997 5.16475L15.064 18.2358C15.0281 18.7403 14.8023 19.2126 14.4321 19.5573C14.0619 19.9021 13.5749 20.0938 13.069 20.0938H4.93C4.42414 20.0938 3.93707 19.9021 3.56688 19.5573C3.1967 19.2126 2.97092 18.7403 2.935 18.2358L2.002 5.16575L2 5.09375H1C0.734784 5.09375 0.48043 4.98839 0.292893 4.80086C0.105357 4.61332 0 4.35897 0 4.09375C0 3.82853 0.105357 3.57418 0.292893 3.38664C0.48043 3.19911 0.734784 3.09375 1 3.09375H17ZM11 0.09375C11.2652 0.09375 11.5196 0.199107 11.7071 0.386643C11.8946 0.57418 12 0.828534 12 1.09375C12 1.35897 11.8946 1.61332 11.7071 1.80086C11.5196 1.98839 11.2652 2.09375 11 2.09375H7C6.73478 2.09375 6.48043 1.98839 6.29289 1.80086C6.10536 1.61332 6 1.35897 6 1.09375C6 0.828534 6.10536 0.57418 6.29289 0.386643C6.48043 0.199107 6.73478 0.09375 7 0.09375H11Z" fill="#BD4040"/>
</svg>
