<svg width="13" height="8" viewBox="0 0 13 8" fill="none" xmlns="http://www.w3.org/2000/svg">
<path fill-rule="evenodd" clip-rule="evenodd" d="M12.7469 0.190641C12.9177 0.361495 12.9177 0.638505 12.7469 0.809359L7.49686 6.05936C7.326 6.23021 7.049 6.23021 6.87814 6.05936L5 4.18122L1.37186 7.80936C1.201 7.98021 0.923995 7.98021 0.753141 7.80936C0.582286 7.6385 0.582286 7.3615 0.753141 7.19064L4.69064 3.25314C4.8615 3.08229 5.1385 3.08229 5.30936 3.25314L7.1875 5.13128L12.1281 0.190641C12.299 0.0197864 12.576 0.0197864 12.7469 0.190641Z" fill="#15253B"/>
<path fill-rule="evenodd" clip-rule="evenodd" d="M8.5 0.5C8.5 0.258375 8.69588 0.0625 8.9375 0.0625H12.4375C12.6791 0.0625 12.875 0.258375 12.875 0.5V4C12.875 4.24162 12.6791 4.4375 12.4375 4.4375C12.1959 4.4375 12 4.24162 12 4V0.9375H8.9375C8.69588 0.9375 8.5 0.741625 8.5 0.5Z" fill="#15253B"/>
</svg>
