<svg width="29" height="18" viewBox="0 0 29 18" fill="none" xmlns="http://www.w3.org/2000/svg">
<path fill-rule="evenodd" clip-rule="evenodd" d="M0.792893 0.292893C1.18342 -0.0976311 1.81658 -0.0976311 2.20711 0.292893L10.5 8.58579L14.7929 4.29289C15.1834 3.90237 15.8166 3.90237 16.2071 4.29289L28.2071 16.2929C28.5976 16.6834 28.5976 17.3166 28.2071 17.7071C27.8166 18.0976 27.1834 18.0976 26.7929 17.7071L15.5 6.41421L11.2071 10.7071C10.8166 11.0976 10.1834 11.0976 9.79289 10.7071L0.792893 1.70711C0.402369 1.31658 0.402369 0.683417 0.792893 0.292893Z" fill="#15253B"/>
<path fill-rule="evenodd" clip-rule="evenodd" d="M27.5 8C28.0523 8 28.5 8.44772 28.5 9V17C28.5 17.5523 28.0523 18 27.5 18H19.5C18.9477 18 18.5 17.5523 18.5 17C18.5 16.4477 18.9477 16 19.5 16H26.5V9C26.5 8.44772 26.9477 8 27.5 8Z" fill="#15253B"/>
</svg>
