<svg width="406" height="400" viewBox="0 0 406 400" fill="none" xmlns="http://www.w3.org/2000/svg">
<path d="M50.3043 297.017C50.3043 295.362 50.1989 293.723 50.1798 292.103L50.448 292.344C46.0989 292.387 41.7403 292.482 37.3913 292.491L24.3346 292.542L24.8232 292.103V302.034L24.3825 301.638C26.5283 301.638 28.6741 301.638 30.839 301.69L37.2764 301.75L50.448 302L50.3043 297.017ZM37.5063 302.276L30.9348 302.379C28.7411 302.379 26.5379 302.379 24.3346 302.431H23.8652V302.034V292.103V291.654H24.3634L37.42 291.715C41.7691 291.715 46.1277 291.809 50.4767 291.861H50.6875V292.103C50.6875 293.784 50.6013 295.465 50.5629 297.12L50.4192 302.034L37.5063 302.276Z" fill="#80B2FF"/>
<path d="M35.7436 309.51C35.6957 307.854 35.6286 306.225 35.6095 304.595L35.8777 304.837C31.5286 304.888 27.1796 304.983 22.821 304.983L9.76431 305.044L10.2624 304.595L10.205 314.527L9.76431 314.131C11.9197 314.131 14.0654 314.131 16.2208 314.182L22.706 314.286L35.8777 314.527L35.7436 309.51ZM22.9072 314.803L16.3358 314.898C14.1421 314.941 11.9388 314.898 9.73557 314.95H9.29492V314.544V304.613V304.173H9.79305L22.8497 304.225C27.2083 304.225 31.5574 304.328 35.9064 304.371H36.1842V304.604C36.1842 306.328 36.098 307.966 36.0597 309.622L35.916 314.536L22.9072 314.803Z" fill="#80B2FF"/>
<path d="M64.876 309.51C64.876 307.854 64.761 306.225 64.7419 304.595L65.0197 304.837C60.6611 304.888 56.312 304.983 51.963 304.983L38.9063 305.044L39.3949 304.595L39.3374 314.527L38.9063 314.131C41.0521 314.131 43.1979 314.131 45.3532 314.182L51.8481 314.286L65.0197 314.527L64.876 309.51ZM52.0684 314.777L45.5065 314.872C43.3128 314.915 41.1 314.872 38.9063 314.924H38.4657V314.519L38.4082 304.587V304.147H38.9063L51.963 304.199C56.312 304.199 60.6611 304.302 65.0197 304.345H65.2879V304.578C65.2879 306.302 65.2017 307.94 65.1538 309.596L65.0197 314.51L52.0684 314.777Z" fill="#80B2FF"/>
<path d="M396.321 309.51C396.273 307.854 396.206 306.225 396.187 304.595L396.455 304.837C392.106 304.888 387.748 304.983 383.399 304.983L370.342 305.044L370.831 304.595L370.783 314.527L370.342 314.131C372.497 314.131 374.643 314.131 376.799 314.182L383.284 314.286L396.455 314.527L396.321 309.51ZM383.514 314.777L376.942 314.872C374.749 314.915 372.545 314.872 370.342 314.924H369.901V314.519L369.854 304.587V304.147H370.352L383.408 304.199C387.757 304.199 392.116 304.302 396.465 304.345H396.743V304.578C396.743 306.302 396.657 307.94 396.618 309.596L396.475 314.51L383.514 314.777Z" fill="#80B2FF"/>
<path d="M381.752 47.4179C381.704 45.7626 381.637 44.1331 381.617 42.5037L381.886 42.7451C377.537 42.7882 373.188 42.883 368.829 42.8916L355.772 42.9434L356.27 42.5037L356.213 52.4356L355.772 52.039C357.928 52.039 360.073 52.039 362.229 52.0907L368.724 52.1855L381.886 52.4356L381.752 47.4179ZM368.944 52.6856L362.382 52.7804C360.179 52.8235 357.976 52.7804 355.772 52.8321H355.312V52.4356V42.5382V42.0898H355.801L368.858 42.1416C373.216 42.1416 377.565 42.245 381.914 42.2881H382.135V42.5295C382.135 44.2107 382.049 45.8919 382.001 47.5472L381.857 52.4614L368.944 52.6856Z" fill="#80B2FF"/>
<path d="M396.321 59.9706C396.273 58.3239 396.206 56.6858 396.187 55.065L396.455 55.3064C392.106 55.3064 387.748 55.4443 383.399 55.4443L370.342 55.5047L370.831 55.065L370.783 64.9883L370.342 64.6003C372.497 64.6003 374.643 64.6003 376.799 64.6003L383.284 64.7037L396.455 64.9451L396.321 59.9706ZM383.514 65.2383L376.942 65.3417C374.749 65.3417 372.545 65.3417 370.342 65.3417H369.901V64.9365L369.854 55.0133V54.5649H370.352L383.408 54.6253C387.757 54.6253 392.116 54.7201 396.465 54.7632H396.743V55.0046C396.743 56.6858 396.657 58.3584 396.618 60.0223L396.503 64.9883L383.514 65.2383Z" fill="#80B2FF"/>
<path d="M35.7436 47.4608C35.6957 45.8055 35.6286 44.1761 35.6095 42.5466L35.8777 42.788C31.5286 42.8398 27.1796 42.9346 22.821 42.9346L9.76431 42.9949L10.2624 42.5466L10.205 52.4785L9.76431 52.0819C11.9197 52.0819 14.0654 52.0819 16.2208 52.1337L22.706 52.2285L35.8777 52.4785L35.7436 47.4608ZM22.9072 52.7285L16.3358 52.8234C14.1421 52.8234 11.9388 52.8234 9.73557 52.8751H9.29492V52.4785V42.5466V42.1069H9.79305L22.8497 42.1587C27.2083 42.1587 31.5574 42.2621 35.9064 42.3052H36.1842V42.5466C36.1842 44.2709 36.098 45.909 36.0597 47.5643L35.916 52.4785L22.9072 52.7285Z" fill="#80B2FF"/>
<path d="M76.8773 104.613C76.8773 106.268 76.9923 107.897 77.0114 109.527L76.7432 109.285C81.0922 109.242 85.4413 109.147 89.7999 109.139L102.857 109.087L102.358 109.527L102.416 99.5948L102.857 99.9914C100.701 99.9914 98.5554 99.9914 96.4001 99.9397L89.9148 99.8448L76.7432 99.5948L76.8773 104.613ZM89.6849 99.3448L96.2564 99.25C98.4501 99.2069 100.653 99.25 102.857 99.1982H103.288V99.5948L103.374 109.492V109.941H102.885L89.8286 109.889C85.47 109.889 81.121 109.785 76.7719 109.742H76.4941V109.492C76.4941 107.768 76.5708 106.13 76.6187 104.475L76.7624 99.5603L89.6849 99.3448Z" fill="#80B2FF"/>
<path d="M91.4485 92.0943C91.4485 93.741 91.5634 95.3791 91.5826 96.9999L91.3048 96.7585C95.6634 96.7585 100.012 96.6206 104.361 96.6206L117.418 96.5602L116.93 96.9999L116.987 87.0766L117.418 87.4646C115.272 87.4646 113.127 87.4646 110.971 87.4646L104.476 87.3611L91.3048 87.0766L91.4485 92.0943ZM104.256 86.8266L110.818 86.7231C113.012 86.7231 115.224 86.7231 117.418 86.7231H117.859V87.0766L117.916 96.9999V97.4223H117.418H104.333C99.9837 97.4223 95.6346 97.3275 91.276 97.2844H91.0078V97.043C91.0078 95.3187 91.094 93.6893 91.1419 92.0253L91.276 87.1197L104.256 86.8266Z" fill="#80B2FF"/>
<path d="M40.4479 183.826C40.4479 185.482 40.5629 187.111 40.582 188.741L40.3138 188.499C44.6628 188.447 49.0119 188.353 53.3705 188.353L66.4272 188.292L65.929 188.741L66.0152 178.809L66.4559 179.205C64.3005 179.205 62.1548 179.205 59.9994 179.154L53.5142 179.059L40.3425 178.809L40.4479 183.826ZM53.2555 178.559L59.827 178.464C62.0206 178.421 64.2239 178.464 66.4272 178.412H66.8678V178.809V188.741V189.18H66.3697L53.313 189.129C48.9544 189.129 44.6054 189.025 40.2563 188.982H39.9785V188.741C39.9785 187.016 40.0647 185.378 40.103 183.723L40.2467 178.809L53.2555 178.559Z" fill="#80B2FF"/>
<path d="M11.6041 210.458C11.7095 210.777 11.7435 211.112 11.704 211.443C11.6645 211.774 11.5525 212.095 11.3743 212.387C11.1961 212.679 10.9553 212.936 10.6659 213.143C10.3765 213.351 10.0442 213.505 9.68828 213.596L10.7133 216.665C11.4246 216.472 12.1922 216.541 12.847 216.857C13.5018 217.173 13.9903 217.71 14.2049 218.351C14.4196 218.991 14.3429 219.682 13.9917 220.271C13.6405 220.86 13.0436 221.3 12.3322 221.493L13.3572 224.571C14.0685 224.378 14.8361 224.447 15.4909 224.763C16.1457 225.079 16.6342 225.616 16.8489 226.256C17.0635 226.897 16.9868 227.587 16.6356 228.177C16.2844 228.766 15.6875 229.206 14.9761 229.399L16.0011 232.477C16.7125 232.285 17.4795 232.355 18.1334 232.672C18.7873 232.989 19.2746 233.526 19.488 234.167C19.7014 234.807 19.6235 235.497 19.2714 236.086C18.9192 236.674 18.3218 237.113 17.6104 237.305L18.6354 240.374C19.3434 240.195 20.1014 240.273 20.7462 240.591C21.391 240.91 21.8712 241.443 22.0834 242.077C22.2955 242.711 22.2227 243.394 21.8807 243.98C21.5386 244.566 20.9546 245.008 20.2543 245.211L21.3176 248.297C22.029 248.105 22.796 248.175 23.4499 248.492C24.1038 248.809 24.5911 249.347 24.8045 249.987C25.0179 250.627 24.94 251.317 24.5879 251.906C24.2358 252.494 23.6383 252.933 22.927 253.125L23.8274 255.806L26.979 254.944C26.8734 254.627 26.8381 254.295 26.8753 253.965C26.9124 253.636 27.0213 253.317 27.1957 253.025C27.5478 252.437 28.1452 251.998 28.8566 251.806C29.568 251.614 30.335 251.684 30.9889 252.001C31.6428 252.318 32.1301 252.856 32.3435 253.496L35.7537 252.565C35.6481 252.248 35.6128 251.915 35.65 251.586C35.6871 251.256 35.796 250.937 35.9704 250.646C36.1447 250.354 36.3811 250.097 36.6661 249.887C36.9511 249.678 37.2791 249.522 37.6313 249.426C37.9835 249.331 38.3531 249.3 38.719 249.333C39.0849 249.367 39.4398 249.465 39.7636 249.621C40.0874 249.778 40.3737 249.991 40.6061 250.248C40.8385 250.504 41.0125 250.799 41.1182 251.116L44.5284 250.194C44.3291 249.557 44.4158 248.874 44.7696 248.294C45.1235 247.714 45.7163 247.282 46.4206 247.091C47.1249 246.9 47.8843 246.965 48.5355 247.273C49.1866 247.581 49.6775 248.107 49.9025 248.737L53.3127 247.814C53.2071 247.497 53.1718 247.165 53.209 246.835C53.2461 246.506 53.355 246.187 53.5293 245.895C53.7037 245.604 53.9401 245.346 54.2251 245.137C54.5101 244.928 54.838 244.771 55.1903 244.676C55.5425 244.581 55.9121 244.549 56.278 244.583C56.6438 244.616 56.9988 244.714 57.3226 244.871C57.6464 245.028 57.9326 245.241 58.1651 245.497C58.3975 245.754 58.5715 246.049 58.6772 246.366L62.097 245.435C61.9913 245.118 61.9561 244.785 61.9932 244.456C62.0304 244.127 62.1393 243.807 62.3136 243.516C62.6657 242.927 63.2632 242.489 63.9746 242.297C64.6859 242.105 65.4529 242.175 66.1069 242.492C66.7608 242.808 67.248 243.346 67.4615 243.986L70.6131 243.124L69.7126 240.443C69.3604 240.538 68.9908 240.57 68.6249 240.536C68.2591 240.503 67.9041 240.405 67.5803 240.248C67.2565 240.091 66.9702 239.878 66.7378 239.622C66.5054 239.365 66.3314 239.07 66.2257 238.753C66.12 238.436 66.0848 238.104 66.122 237.774C66.1591 237.445 66.268 237.125 66.4423 236.834C66.6167 236.543 66.8531 236.285 67.1381 236.076C67.4231 235.867 67.751 235.71 68.1033 235.615L67.0783 232.546C66.3703 232.725 65.6123 232.647 64.9675 232.329C64.3226 232.01 63.8425 231.477 63.6303 230.843C63.4182 230.209 63.4909 229.525 63.833 228.939C64.1751 228.353 64.7591 227.912 65.4594 227.709L64.4344 224.64C64.0821 224.735 63.7125 224.767 63.3467 224.733C62.9808 224.7 62.6259 224.602 62.3021 224.445C61.9783 224.288 61.692 224.075 61.4596 223.819C61.2272 223.562 61.0532 223.267 60.9475 222.95C60.8418 222.633 60.8066 222.3 60.8437 221.971C60.8809 221.642 60.9898 221.322 61.1641 221.031C61.3385 220.74 61.5749 220.482 61.8598 220.273C62.1448 220.064 62.4728 219.907 62.825 219.812L61.8 216.743C61.4478 216.838 61.0781 216.871 60.712 216.838C60.3459 216.805 59.9906 216.707 59.6663 216.551C59.3421 216.394 59.0553 216.182 58.8223 215.925C58.5893 215.669 58.4147 215.374 58.3084 215.057C58.2021 214.74 58.1662 214.407 58.2028 214.078C58.2394 213.748 58.3477 213.429 58.5216 213.137C58.6955 212.845 58.9316 212.587 59.2163 212.377C59.501 212.167 59.8289 212.01 60.1811 211.915L59.1561 208.837C58.4448 209.03 57.6773 208.961 57.0224 208.645C56.3676 208.329 55.8791 207.792 55.6645 207.151C55.4498 206.511 55.5265 205.82 55.8777 205.231C56.2289 204.642 56.8259 204.202 57.5372 204.009L56.5122 200.94C55.8009 201.132 55.0339 201.061 54.3799 200.745C53.726 200.428 53.2388 199.89 53.0253 199.25C52.8119 198.61 52.8899 197.919 53.242 197.331C53.5941 196.742 54.1915 196.304 54.9029 196.112L53.945 193.335L50.7934 194.198C50.98 194.829 50.8862 195.502 50.532 196.072C50.1777 196.643 49.5908 197.067 48.8952 197.255C48.1996 197.444 47.45 197.381 46.8049 197.08C46.1597 196.78 45.6697 196.266 45.4385 195.646L42.0665 196.568C42.2532 197.2 42.1594 197.873 41.8052 198.443C41.4509 199.014 40.8639 199.438 40.1684 199.626C39.4728 199.814 38.7232 199.752 38.078 199.451C37.4329 199.151 36.9429 198.637 36.7117 198.017L33.2823 198.948C33.3879 199.264 33.4234 199.595 33.3868 199.924C33.3501 200.252 33.2419 200.57 33.0684 200.861C32.895 201.152 32.6596 201.409 32.3758 201.617C32.092 201.826 31.7653 201.982 31.4143 202.078C31.0633 202.173 30.695 202.205 30.3303 202.172C29.9656 202.139 29.6117 202.041 29.2888 201.885C28.9659 201.729 28.6803 201.517 28.4483 201.262C28.2164 201.006 28.0426 200.712 27.937 200.396L24.5076 201.328C24.6942 201.959 24.6005 202.632 24.2462 203.202C23.892 203.773 23.305 204.197 22.6094 204.385C21.9138 204.573 21.1642 204.511 20.5191 204.21C19.874 203.91 19.384 203.396 19.1527 202.776L15.7233 203.698C15.9367 204.336 15.8598 205.024 15.5095 205.611C15.1592 206.198 14.5641 206.636 13.8553 206.828C13.1465 207.02 12.3819 206.951 11.7298 206.636C11.0777 206.32 10.5914 205.785 10.378 205.147L7.2168 206.009L8.17473 208.785C8.87576 208.609 9.62521 208.686 10.265 208.998C10.9048 209.31 11.3849 209.833 11.6041 210.458Z" fill="#80B2FF"/>
<path d="M29.524 244.944L59.1816 236.916L48.2472 204.197L18.5895 212.225L29.524 244.944Z" fill="#4D93FF"/>
<path d="M313.308 102.067L300.324 151.423L386.801 169.85L399.785 120.494L313.308 102.067Z" fill="#80B2FF"/>
<path d="M399.76 120.476C395.478 122.735 391.139 124.855 386.866 127.071C382.594 129.287 378.245 131.382 373.915 133.451C369.4 135.641 364.885 137.808 360.37 139.952L359.958 140.167L347.955 145.823L347.361 146.081L346.978 145.616C344.334 142.311 341.7 139.006 339.075 135.701C338.979 135.598 338.893 135.477 338.797 135.356C335.815 131.615 332.855 127.847 329.917 124.054C327.11 120.45 324.313 116.803 321.535 113.148C318.757 109.492 315.988 105.802 313.287 102.052C316.324 105.423 319.265 108.906 322.244 112.328C325.223 115.751 328.154 119.226 331.066 122.778C334.323 126.657 337.564 130.583 340.789 134.555L348.031 143.443C351.662 141.719 355.302 140.072 358.923 138.426C363.837 136.218 368.723 133.977 373.513 131.804C377.862 129.865 382.22 127.933 386.588 126.045C390.957 124.157 395.373 122.26 399.76 120.476Z" fill="white"/>
<path d="M340.627 135.71C340.579 135.71 340.55 135.753 340.502 135.77L338.864 136.512C336.258 137.702 333.624 138.805 330.961 139.857C327.714 141.159 324.418 142.374 321.113 143.573C317.809 144.771 314.484 145.875 311.122 146.935C307.76 147.995 304.417 149.013 300.93 149.875C304.1 148.366 307.329 147.013 310.576 145.719C313.823 144.426 317.138 143.202 320.433 142.004C323.729 140.805 327.072 139.667 330.405 138.633C333.088 137.77 335.799 136.969 338.538 136.244L340.454 135.744L340.627 135.71Z" fill="white"/>
<path d="M386.99 168.204C384.336 166.049 381.808 163.773 379.326 161.471C376.845 159.169 374.451 156.798 372.065 154.427C369.68 152.056 367.362 149.616 365.111 147.133C363.262 145.125 361.451 143.081 359.737 140.978C359.353 140.529 358.999 140.116 358.635 139.633C358.635 139.633 358.587 139.555 358.549 139.529L358.664 139.616L360.129 140.84C362.218 142.564 364.22 144.409 366.203 146.254C368.684 148.556 371.079 150.918 373.454 153.306C375.83 155.694 378.158 158.117 380.409 160.6C382.66 163.083 384.911 165.583 386.99 168.204Z" fill="white"/>
<path d="M340.626 42.5469H263.32V86.6714H340.626V42.5469Z" fill="#80B2FF"/>
<path d="M340.626 42.5467C337.503 45.2366 334.323 47.8058 331.171 50.4525C328.019 53.0993 324.829 55.6254 321.592 58.2118C318.258 60.8931 314.886 63.5313 311.572 66.1608L311.275 66.4194L302.366 73.3769L301.925 73.7045L301.494 73.3769L292.643 66.385L292.327 66.1349C288.974 63.5485 285.621 60.8672 282.297 58.1774C279.117 55.5909 275.936 53.0045 272.766 50.4181C269.595 47.8316 266.443 45.2021 263.32 42.5122C266.635 44.8141 269.901 47.2368 273.187 49.599C276.473 51.9613 279.73 54.4356 282.987 56.9014C286.608 59.597 290.226 62.3358 293.84 65.1176C296.551 67.1781 299.253 69.2559 301.954 71.325C304.655 69.2559 307.357 67.1609 310.058 65.1176C313.666 62.3587 317.284 59.62 320.911 56.9014C324.156 54.4701 327.419 52.059 330.702 49.668C334.045 47.2712 337.302 44.8314 340.626 42.5467Z" fill="white"/>
<path d="M294.004 66.1094C294.004 66.1094 293.947 66.1611 293.909 66.1783C293.506 66.4973 293.094 66.8077 292.692 67.1095C290.776 68.5837 288.764 69.9976 286.753 71.3598C284.291 73.0841 281.771 74.6705 279.233 76.2827C276.694 77.8949 274.137 79.4295 271.569 80.9296C269.002 82.4297 266.32 83.9126 263.59 85.2403C265.937 83.3953 268.38 81.6711 270.832 79.9899C273.284 78.3087 275.823 76.6706 278.342 75.067C280.861 73.4635 283.457 71.9116 286.063 70.4029C288.142 69.2045 290.259 68.0233 292.414 66.9112C292.912 66.6525 293.42 66.4025 293.928 66.1525L294.004 66.1094Z" fill="white"/>
<path d="M340.445 85.2574C337.715 83.9125 335.061 82.4382 332.465 80.9467C329.869 79.4552 327.302 77.8775 324.744 76.2998C322.187 74.722 319.696 73.0753 317.234 71.3769C315.223 70.0147 313.24 68.6094 311.314 67.1352C310.893 66.8248 310.49 66.5144 310.078 66.1954L309.992 66.1265C310.027 66.1488 310.066 66.1662 310.107 66.1782L311.611 66.9455C313.776 68.0577 315.874 69.2388 317.962 70.4372C320.577 71.9459 323.135 73.515 325.674 75.1014C328.212 76.6877 330.722 78.3258 333.184 80.0242C335.646 81.7226 338.069 83.4124 340.445 85.2574Z" fill="white"/>
<path d="M42.8222 0H42.0176V68.4024H42.8222V0Z" fill="#C7C7C7"/>
<path d="M75.7186 97.2931L73.0364 102.595H11.7859L9.11328 97.2931L35.1979 81.0503H49.6436L75.7186 97.2931Z" fill="#80B2FF"/>
<path d="M51.4534 65.4023L49.6429 81.0502H35.1972L33.3867 65.4023H51.4534Z" fill="#4D93FF"/>
<path d="M75.7186 97.3013L73.0364 102.595H11.7859L9.11328 97.3013H75.7186Z" fill="#4D93FF"/>
<path d="M114.324 0H113.52V51.3061H114.324V0Z" fill="#C7C7C7"/>
<path d="M147.219 80.1964L144.537 85.4986H83.2861L80.623 80.1964L106.698 63.9536H121.144L147.219 80.1964Z" fill="#80B2FF"/>
<path d="M122.955 48.3057L121.145 63.9536H106.699L104.889 48.3057H122.955Z" fill="#4D93FF"/>
<path d="M147.219 80.2051L144.536 85.4986H83.2859L80.6133 80.2051H147.219Z" fill="#4D93FF"/>
<path d="M40.3217 269.454C40.9881 273.626 40.7474 277.875 39.6128 281.964C39.0813 283.858 38.3698 285.707 37.4862 287.491C36.3846 289.775 35.2255 292.008 35.5033 294.517C35.7715 294.672 34.8519 294.646 34.8232 294.405C27.3896 290.594 17.8581 289.896 12.1392 283.671C9.55633 280.64 7.92532 277.04 7.41658 273.248C6.56588 269.079 6.6571 264.798 7.6848 260.661C8.64274 257.264 10.8747 253.996 14.3904 252.332C17.906 250.668 22.9064 250.763 26.7382 251.832C35.0147 254.16 39.1913 262.221 40.3217 269.454Z" fill="white"/>
<path d="M44.1343 318.993C43.1189 315.947 42.0971 312.907 41.0689 309.872C39.0285 303.923 36.9019 298 34.5645 292.146C33.1595 288.646 31.6747 285.174 30.1101 281.731C30.2836 279.564 30.581 277.406 31.001 275.265C31.6237 272.679 32.5241 270.17 33.3671 267.627C33.3671 267.472 33.1372 267.394 33.0606 267.541C31.3938 271.032 29.2288 275.507 29.1618 279.654C27.3481 275.757 25.4003 271.92 23.3183 268.144C23.0824 264.946 23.1915 261.736 23.644 258.557C23.6472 258.542 23.6471 258.527 23.6437 258.513C23.6404 258.498 23.6338 258.484 23.6245 258.472C23.6152 258.459 23.6032 258.448 23.5893 258.44C23.5754 258.432 23.5598 258.426 23.5435 258.423C23.5271 258.421 23.5103 258.421 23.494 258.424C23.4777 258.427 23.4622 258.433 23.4484 258.441C23.4346 258.449 23.4228 258.46 23.4136 258.473C23.4045 258.485 23.3981 258.499 23.395 258.514C22.7636 261.295 22.519 264.136 22.6669 266.972C21.0672 264.135 19.3908 261.333 17.5995 258.574C17.4366 258.324 17.0534 258.574 17.1971 258.824C19.9879 263.664 22.5935 268.592 25.0139 273.61C21.5896 270.949 17.6329 268.901 13.3558 267.575C13.1738 267.515 13.0301 267.756 13.2217 267.825C17.8899 269.628 22.16 272.172 25.8281 275.334C27.5716 279.001 29.2352 282.697 30.819 286.422C26.173 282.318 19.8027 279.619 13.6528 278.171C13.442 278.171 13.3845 278.412 13.5857 278.464C20.7128 280.395 26.2496 284.033 31.662 288.396C32.2942 289.905 32.9073 291.413 33.5204 292.931C35.8067 298.678 37.9907 304.443 40.0727 310.225C41.0817 313.013 42.0652 315.798 43.0231 318.579C44.0673 321.58 44.8815 324.744 46.2322 327.641C46.3567 327.917 46.9123 327.856 46.8453 327.529C46.1054 324.643 45.2005 321.795 44.1343 318.993Z" fill="#01327E"/>
<path d="M31.8074 263.601C30.4808 265.433 29.5722 267.485 29.1348 269.636C29.1348 269.688 29.2114 269.722 29.2401 269.636C30.06 267.621 31.0198 265.654 32.114 263.747C32.2481 263.549 31.9319 263.428 31.8074 263.601Z" fill="white"/>
<path d="M18.5483 277.541C16.4698 276.502 14.1969 275.815 11.8428 275.515C11.7757 275.515 11.7374 275.593 11.8428 275.61C12.9157 276.015 14.0365 276.291 15.1285 276.67C16.2206 277.05 17.2743 277.533 18.3759 277.852C18.4216 277.872 18.4746 277.876 18.5231 277.861C18.5716 277.846 18.6117 277.815 18.6346 277.774C18.6574 277.733 18.6612 277.685 18.645 277.641C18.6288 277.598 18.5941 277.562 18.5483 277.541Z" fill="white"/>
<path d="M14.8118 260.773C14.1418 260.314 13.423 259.915 12.666 259.583C12.6424 259.576 12.617 259.576 12.5935 259.584C12.57 259.591 12.5497 259.605 12.5357 259.623C12.5217 259.642 12.5147 259.664 12.5157 259.686C12.5168 259.708 12.5258 259.73 12.5415 259.747C13.2005 260.222 13.9096 260.638 14.6585 260.988C14.7927 261.057 14.9459 260.851 14.8118 260.773Z" fill="white"/>
<path d="M65.3822 292.18C60.0274 293.603 54.6438 294.931 49.2889 296.345C48.8291 296.465 39.7766 280.826 43.0527 272.825C44.6114 269.182 47.0543 265.898 50.2032 263.214C53.3521 260.529 57.1274 258.511 61.2535 257.307C65.0853 256.143 69.7696 255.16 73.8121 255.962C77.4043 256.677 79.9429 259.315 81.102 262.359C82.6922 266.489 82.1653 271.411 81.3031 275.636C80.6153 279.594 78.8001 283.325 76.0345 286.464C73.1798 289.482 69.5493 291.06 65.3822 292.18Z" fill="white"/>
<path opacity="0.1" d="M65.3822 292.18C60.0274 293.603 54.6438 294.931 49.2889 296.345C48.8291 296.465 39.7766 280.826 43.0527 272.825C44.6114 269.182 47.0543 265.898 50.2032 263.214C53.3521 260.529 57.1274 258.511 61.2535 257.307C65.0853 256.143 69.7696 255.16 73.8121 255.962C77.4043 256.677 79.9429 259.315 81.102 262.359C82.6922 266.489 82.1653 271.411 81.3031 275.636C80.6153 279.594 78.8001 283.325 76.0345 286.464C73.1798 289.482 69.5493 291.06 65.3822 292.18Z" fill="black"/>
<path d="M73.1409 277.343C69.7456 278.836 66.2217 280.078 62.6036 281.059C60.2034 281.646 57.8613 282.41 55.6011 283.344C57.8618 278.809 60.3908 274.369 62.9676 269.972C66.5602 269.164 69.8973 267.621 72.7194 265.463C72.7408 265.438 72.752 265.408 72.7514 265.376C72.7508 265.345 72.7382 265.314 72.7159 265.29C72.6936 265.266 72.6628 265.25 72.6286 265.243C72.5944 265.237 72.5589 265.242 72.5279 265.256C69.647 266.922 66.5771 268.306 63.37 269.386C64.0916 268.202 64.8133 267.021 65.5349 265.842C65.7457 265.515 65.238 265.187 64.9985 265.506C62.1656 269.181 59.6055 273.02 57.335 276.998C56.7648 273.515 56.5818 269.988 56.789 266.472C56.789 266.453 56.7809 266.436 56.7665 266.423C56.7521 266.41 56.7326 266.403 56.7123 266.403C56.692 266.403 56.6725 266.41 56.6581 266.423C56.6438 266.436 56.6357 266.453 56.6357 266.472C55.9664 270.311 56.0117 274.224 56.7698 278.05C54.8539 281.421 53.1775 284.878 51.6448 288.396C51.0317 286.292 50.2367 284.223 49.729 282.102C48.915 279.068 48.6562 275.935 48.9626 272.826C48.9626 272.739 48.8189 272.731 48.7998 272.826C47.8572 278.581 48.6342 284.458 51.0509 289.853C50.1504 291.957 49.2979 294.069 48.522 296.19C44.4835 306.991 42.0924 318.235 41.4141 329.615C41.4248 329.662 41.453 329.704 41.4941 329.734C41.5351 329.764 41.5863 329.78 41.6392 329.78C41.692 329.78 41.7433 329.764 41.7843 329.734C41.8253 329.704 41.8536 329.662 41.8643 329.615C43.2721 318.386 45.9523 307.316 49.8631 296.578C51.4149 292.379 53.2063 288.301 55.1605 284.301C58.3216 283.439 61.4733 282.318 64.577 281.344C67.6856 280.509 70.6185 279.216 73.2559 277.516C73.3613 277.438 73.2463 277.292 73.1409 277.343Z" fill="#01327E"/>
<path d="M78.1312 272.808C74.8551 273.86 71.7514 275.325 68.4848 276.386C68.3315 276.438 68.4177 276.653 68.571 276.627C72.0292 275.981 75.4682 275.024 78.2558 272.98C78.3611 272.903 78.2462 272.773 78.1312 272.808Z" fill="white"/>
<path d="M51.3955 266.454C51.3955 266.299 51.1848 266.204 51.1273 266.368C50.2364 269.084 49.6138 271.963 50.4855 274.739C50.4855 274.767 50.4976 274.793 50.5192 274.812C50.5407 274.832 50.57 274.843 50.6005 274.843C50.631 274.843 50.6602 274.832 50.6817 274.812C50.7033 274.793 50.7154 274.767 50.7154 274.739C50.8783 271.929 50.6867 269.213 51.3955 266.454Z" fill="white"/>
<path d="M64.9227 260.178C63.8809 261.528 63.3809 263.158 63.5049 264.799C63.5049 264.902 63.6965 264.963 63.7252 264.842C64.1276 263.281 64.7885 261.867 65.325 260.359C65.3383 260.313 65.3336 260.264 65.3118 260.221C65.2901 260.178 65.2525 260.143 65.2053 260.121C65.1582 260.1 65.1044 260.094 65.0529 260.104C65.0015 260.115 64.9555 260.141 64.9227 260.178Z" fill="white"/>
<path d="M1.69819 299.06C3.26921 303.544 7.00516 309.742 12.9061 309.786C16.7378 309.786 20.5695 309.415 24.4013 309.363C28.5108 309.311 32.63 309.32 36.7299 309.535C37.0652 309.535 36.2318 298.457 26.3555 293.06C23.5966 291.543 20.2055 291.068 17.0731 290.474C13.4791 289.703 9.78848 289.358 6.09512 289.448C3.82481 289.525 1.93767 289.956 1.13301 292.034C0.328339 294.112 0.950998 296.931 1.69819 299.06Z" fill="white"/>
<path d="M5.95156 293.448C8.35598 294.008 10.7412 294.646 13.184 295.336C12.5574 294.727 11.8921 294.151 11.1915 293.612C10.1366 292.872 9.03985 292.181 7.90575 291.543C7.81953 291.482 7.90575 291.327 7.99196 291.37C10.3292 292.239 12.3476 293.682 13.8162 295.534C16.8146 296.397 19.7937 297.371 22.658 298.431C24.633 299.16 26.5256 300.058 28.3098 301.112C27.741 299.989 27.0579 298.915 26.2694 297.905C24.957 296.379 23.1848 295.526 21.4797 294.457C21.4441 294.437 21.4186 294.406 21.4087 294.37C21.3989 294.333 21.4054 294.295 21.427 294.263C21.4486 294.231 21.4835 294.208 21.5239 294.199C21.5643 294.19 21.607 294.196 21.6426 294.215C23.4287 294.923 25.0322 295.956 26.3513 297.25C27.6705 298.544 28.6767 300.071 29.3061 301.733C31.3614 303.062 33.2415 304.598 34.91 306.311C41.4431 312.993 46.5872 321.882 46.6064 330.951C46.6064 331.167 46.2232 331.227 46.1753 331.003C44.5 322.114 40.1986 313.794 33.7221 306.915C33.2528 306.423 32.7642 305.958 32.2852 305.501C30.4942 305.281 28.6899 305.16 26.8825 305.139C24.7846 305.139 22.6963 305.423 20.5984 305.57C17.1594 305.828 13.3468 305.863 10.2335 304.302C10.0994 304.233 10.1856 304.018 10.3389 304.07C17.2744 306.337 24.5451 303.457 31.4997 304.811C28.5325 302.262 25.0542 300.243 21.2498 298.862L20.608 298.63C16.1632 299.112 11.4597 300.156 7.12982 298.854C7.10609 298.845 7.08684 298.828 7.07571 298.807C7.06459 298.786 7.06235 298.763 7.06942 298.74C7.0765 298.718 7.09239 298.699 7.11411 298.686C7.13583 298.674 7.16186 298.669 7.1873 298.673C11.3735 299.612 15.3872 298.431 19.5159 298.242C15.0232 296.664 10.4347 295.405 5.92282 293.845C5.54922 293.672 5.53964 293.353 5.95156 293.448Z" fill="#01327E"/>
<path d="M3.98855 297.44C6.13693 297.689 8.29853 297.836 10.4642 297.879C10.5121 297.879 10.5313 297.948 10.4642 297.957C8.28281 298.322 6.03475 298.195 3.9215 297.586C3.83528 297.517 3.88318 297.379 3.98855 297.44Z" fill="white"/>
<path d="M18.6161 293.552C19.8148 294.033 20.9032 294.711 21.8251 295.552C21.9401 295.647 21.8251 295.828 21.6623 295.741C21.1163 295.388 20.5607 295.052 19.9955 294.724C19.4564 294.465 18.935 294.177 18.434 293.862C18.3883 293.84 18.354 293.803 18.3388 293.759C18.3235 293.714 18.3285 293.666 18.3526 293.625C18.3768 293.584 18.4181 293.553 18.4675 293.539C18.5169 293.525 18.5703 293.53 18.6161 293.552Z" fill="white"/>
<path d="M53.4934 307.984C53.4168 308.13 53.6563 308.268 53.7425 308.113C53.7588 308.137 53.7811 308.158 53.8078 308.173C53.8344 308.188 53.8645 308.197 53.8958 308.199C57.8721 309.054 61.903 309.687 65.9658 310.096C69.2323 310.355 72.997 310.518 75.8517 308.811C79.6834 306.501 82.2794 300.328 80.1815 296.397C77.7005 291.732 70.2382 294.267 66.4926 295.922C60.7309 298.457 56.1333 302.723 53.4934 307.984Z" fill="white"/>
<path opacity="0.1" d="M53.4934 307.984C53.4168 308.13 53.6563 308.268 53.7425 308.113C53.7588 308.137 53.7811 308.158 53.8078 308.173C53.8344 308.188 53.8645 308.197 53.8958 308.199C57.8721 309.054 61.903 309.687 65.9658 310.096C69.2323 310.355 72.997 310.518 75.8517 308.811C79.6834 306.501 82.2794 300.328 80.1815 296.397C77.7005 291.732 70.2382 294.267 66.4926 295.922C60.7309 298.457 56.1333 302.723 53.4934 307.984Z" fill="black"/>
<path d="M50.5925 310.139C52.7747 308.245 55.1956 306.587 57.8057 305.199C59.6789 302.522 62.168 300.238 65.1052 298.5C65.2489 298.414 65.3734 298.612 65.2393 298.707C62.9053 300.393 60.8336 302.353 59.0798 304.535C61.99 303.106 65.0124 301.87 68.1227 300.837C69.2297 298.98 70.9186 297.457 72.9794 296.457C72.9794 296.457 73.0657 296.457 72.9794 296.517C71.2808 297.677 69.7996 299.074 68.5921 300.656C70.4313 300.035 72.2897 299.466 74.1385 298.931C74.311 298.88 74.3684 299.104 74.2152 299.164C70.9103 300.319 67.5096 301.544 64.2718 302.958C68.2603 303.531 72.3246 303.531 76.3131 302.958C76.4184 302.958 76.4663 303.087 76.3131 303.113C72.1511 304.221 67.7312 304.281 63.5342 303.285C61.4484 304.198 59.4237 305.22 57.4704 306.346C59.1158 306.219 60.773 306.339 62.3751 306.699C65.2009 307.293 68.0949 307.582 70.9965 307.561C71.1115 307.561 71.1402 307.717 70.9965 307.734C66.0057 308.51 61.283 306.467 56.3305 307.001C50.8421 310.332 46.4618 314.942 43.657 320.338C41.5783 324.149 40.4479 328.193 38.7619 332.141C38.7445 332.171 38.7164 332.194 38.6821 332.207C38.6479 332.221 38.6097 332.223 38.5738 332.214C38.538 332.205 38.5067 332.185 38.4851 332.158C38.4636 332.13 38.4531 332.097 38.4554 332.064C40.0073 324.253 44.2988 315.683 50.5925 310.139Z" fill="white"/>
<path d="M65.6607 299.474C65.9896 298.944 66.421 298.471 66.9348 298.077C67.3541 297.668 67.8543 297.331 68.41 297.086C68.41 297.086 68.4866 297.129 68.41 297.164C67.9981 297.577 67.4521 297.888 66.9923 298.284C66.5324 298.681 66.178 299.146 65.7278 299.56C65.7167 299.559 65.706 299.556 65.6963 299.551C65.6867 299.546 65.6784 299.539 65.6721 299.531C65.6657 299.523 65.6614 299.514 65.6594 299.504C65.6574 299.494 65.6579 299.484 65.6607 299.474Z" fill="white"/>
<path d="M73.8893 301.888C74.6365 301.724 75.422 301.733 76.1692 301.595C76.918 301.432 77.6566 301.233 78.382 301C78.4036 300.992 78.4279 300.992 78.4494 301C78.471 301.008 78.4881 301.024 78.497 301.043C78.5059 301.063 78.5058 301.084 78.4968 301.104C78.4879 301.123 78.4707 301.139 78.4491 301.147C77.0844 301.901 75.4834 302.234 73.8893 302.095C73.7743 302.078 73.7839 301.914 73.8893 301.888Z" fill="white"/>
<path d="M30.0156 322.45L30.6766 329.149L32.899 351.763H52.5846L55.3626 329.149L56.1865 322.45H30.0156Z" fill="#005CEA"/>
<path d="M30.0156 322.45L30.6766 329.149H55.3626L56.1865 322.45H30.0156Z" fill="white"/>
<path d="M28.0708 326.054H58.1309V320.623H28.0708V326.054Z" fill="#005CEA"/>
<path d="M213.221 400C266.369 400 309.455 396.9 309.455 393.077C309.455 389.253 266.369 386.154 213.221 386.154C160.072 386.154 116.986 389.253 116.986 393.077C116.986 396.9 160.072 400 213.221 400Z" fill="#80B2FF"/>
<path d="M399.769 186.007H109.352V351.763H399.769V186.007Z" fill="#2758A5"/>
<g opacity="0.1">
<path d="M399.769 186.007H109.352V351.763H399.769V186.007Z" fill="white"/>
</g>
<path d="M109.352 186.007H399.76V221.631L281.292 290.982C273.341 295.636 264.06 298.114 254.575 298.114C245.09 298.114 235.809 295.636 227.858 290.982L109.352 221.631V186.007Z" fill="#2758A5"/>
<path opacity="0.2" d="M109.352 186.007H399.76V221.631L281.292 290.982C273.341 295.636 264.06 298.114 254.575 298.114C245.09 298.114 235.809 295.636 227.858 290.982L109.352 221.631V186.007Z" fill="white"/>
<g opacity="0.1">
<path d="M364.259 329.942C376.08 337.244 388.035 344.348 399.76 351.763C387.307 345.409 375.036 338.736 362.688 332.218C350.34 325.7 338.069 318.993 325.884 312.199C313.214 305.25 300.547 298.209 287.883 291.076L286.264 292.033C283.213 293.935 280.011 295.632 276.684 297.111C266.256 301.542 254.481 302.704 243.233 300.414C239.53 299.629 235.92 298.52 232.456 297.103C229.129 295.625 225.927 293.928 222.877 292.025L221.287 291.085C208.623 298.195 195.937 305.247 183.228 312.242C171.018 318.95 158.769 325.608 146.482 332.218C134.095 338.736 121.843 345.409 109.371 351.763C121.096 344.348 133.051 337.244 144.872 329.942C156.776 322.803 168.725 315.685 180.718 308.587C192.475 301.689 204.248 294.824 216.037 287.99L214.026 286.774L196.4 276.17L187.596 270.859L178.831 265.488C155.438 251.194 132.199 236.701 109.371 221.631C133.933 234.296 158.082 247.495 182.088 260.979L191.093 266.005L200.059 271.101L217.982 281.3C219.591 282.205 221.182 283.128 222.772 284.05L226.9 286.447C227.331 286.705 227.763 286.955 228.184 287.188C230.552 288.61 233.03 289.878 235.598 290.982C238.579 292.174 241.681 293.101 244.862 293.749C248.056 294.333 251.306 294.639 254.566 294.663C261.114 294.692 267.592 293.442 273.552 290.999C276.122 289.888 278.602 288.618 280.976 287.197C281.397 286.964 281.819 286.714 282.25 286.464L286.331 284.093C287.94 283.162 289.549 282.231 291.178 281.317C303.133 274.541 315.021 267.661 327.062 260.996C351.068 247.547 375.218 234.27 399.77 221.631C376.942 236.693 353.702 251.194 330.31 265.488C318.661 272.687 306.85 279.688 295.125 286.774C294.454 287.18 293.784 287.585 293.103 287.981C304.931 294.81 316.72 301.707 328.47 308.673C340.406 315.656 352.352 322.803 364.259 329.942Z" fill="black"/>
</g>
<path d="M348.203 351.763H57.7949V130.666L202.98 47.6851L348.203 130.666V351.763Z" fill="#2758A5"/>
<path opacity="0.1" d="M333.125 351.358H72.873V137.839L202.98 63.4795L333.125 137.839V351.358Z" fill="black"/>
<path d="M338.529 136.546H67.4805V351.229H338.529V136.546Z" fill="#DCEAFF"/>
<path d="M108.901 193.949L246.537 193.949V187L108.901 187V193.949Z" fill="#80B2FF"/>
<path d="M257.409 170.791H299.73V163.842H257.409V170.791Z" fill="#80B2FF"/>
<path d="M108.911 211.734L239.152 211.734V204.785H108.911V211.734Z" fill="#80B2FF"/>
<path d="M108.9 264.359H299.73V257.41H108.9V264.359Z" fill="#4D93FF"/>
<path d="M108.9 281.903H299.73V274.954H108.9V281.903Z" fill="#4D93FF"/>
<path d="M108.9 299.439H299.73V292.491H108.9V299.439Z" fill="#4D93FF"/>
<path d="M348.203 186.007V351.754H57.7949V186.007C70.2481 192.37 82.5193 199.043 94.8671 205.561C107.215 212.079 119.457 218.821 131.671 225.571C145.274 233.043 158.867 240.607 172.45 248.263C172.585 248.185 172.757 248.108 172.881 248.03C172.757 248.108 172.671 248.22 172.537 248.297C182.704 253.999 192.864 259.718 203.018 265.454C213.144 259.721 223.298 253.953 233.461 248.297C233.327 248.22 233.241 248.108 233.117 248.03C233.25 248.11 233.395 248.174 233.548 248.22C247.112 240.604 260.705 233.043 274.327 225.537C286.544 218.818 298.799 212.159 311.093 205.561C323.479 199.043 335.731 192.37 348.203 186.007Z" fill="#2758A5"/>
<g opacity="0.1">
<path d="M348.203 186.007C336.478 193.43 324.523 200.534 312.702 207.837C300.795 214.975 288.85 222.122 276.856 229.183C264.333 236.563 251.787 243.877 239.219 251.125C238.826 251.366 238.481 251.599 238.089 251.832C226.964 258.229 215.813 264.626 204.637 271.023L202.999 271.929L201.38 271.023C190.224 264.626 179.089 258.218 167.977 251.797C167.584 251.599 167.192 251.366 166.799 251.125C154.192 243.866 141.631 236.54 129.114 229.149C117.168 222.123 105.223 214.975 93.3156 207.837C81.4947 200.534 69.5396 193.43 57.8145 186.007C70.2676 192.37 82.5388 199.043 94.8866 205.561C107.234 212.079 119.477 218.821 131.691 225.571C145.293 233.043 158.886 240.607 172.47 248.263C172.47 248.263 172.47 248.263 172.556 248.263C182.723 253.964 192.884 259.683 203.038 265.419C213.163 259.686 223.317 253.918 233.481 248.263C233.529 248.185 233.529 248.185 233.567 248.185C247.132 240.569 260.725 233.008 274.347 225.502C286.563 218.783 298.819 212.125 311.112 205.526C323.479 199.043 335.731 192.37 348.203 186.007Z" fill="black"/>
<path d="M172.881 248.03C172.757 248.107 172.671 248.219 172.537 248.297C171.013 249.478 169.481 250.659 167.958 251.797C160.677 257.332 153.215 262.626 145.628 267.773C136.384 274.161 126.92 280.196 117.407 286.231C107.895 292.266 98.2485 298.043 88.4488 303.698C78.6491 309.354 68.7345 314.906 58.4941 319.95C67.2976 313.001 76.4555 306.526 85.6996 300.207C94.9436 293.887 104.456 287.783 113.911 281.74C123.366 275.696 133.07 269.885 142.917 264.238C150.724 259.72 158.656 255.289 166.77 251.125C168.686 250.142 170.515 249.202 172.441 248.263C172.584 248.185 172.757 248.107 172.881 248.03Z" fill="black"/>
<path d="M347.504 319.976C337.264 314.906 327.321 309.371 317.55 303.724C307.779 298.077 298.142 292.18 288.543 286.231C278.945 280.283 269.576 274.161 260.332 267.773C252.784 262.6 245.321 257.367 238.089 251.832C236.518 250.659 234.985 249.478 233.462 248.297C233.328 248.219 233.242 248.107 233.117 248.03C233.251 248.11 233.396 248.174 233.548 248.219C235.464 249.202 237.38 250.142 239.219 251.125C247.333 255.289 255.226 259.746 263.072 264.238C272.929 269.851 282.508 275.774 292.03 281.74C301.552 287.706 311.007 293.87 320.251 300.233C329.495 306.595 338.701 313.027 347.504 319.976Z" fill="black"/>
</g>
<path d="M348.203 351.754H57.7949V316.148L176.263 246.797C184.215 242.144 193.495 239.668 202.98 239.668C212.464 239.668 221.745 242.144 229.697 246.797L348.203 316.148V351.754Z" fill="#2758A5"/>
<path d="M0.271484 351.815L50.9559 351.608L101.631 351.53L203 351.384L304.369 351.53L355.053 351.608L405.728 351.815L355.053 352.03L304.369 352.099L203 352.246L101.631 352.099L50.9559 352.022L0.271484 351.815Z" fill="#263238"/>
</svg>
