<svg width="25" height="23" viewBox="0 0 25 23" fill="none" xmlns="http://www.w3.org/2000/svg">
<path d="M3.52016 3.57913H21.121C21.3266 3.57904 21.532 3.59208 21.7359 3.61819C21.6668 3.13294 21.5001 2.66672 21.2459 2.24763C20.9917 1.82854 20.6553 1.46526 20.2569 1.17971C19.8586 0.894149 19.4065 0.692223 18.928 0.586103C18.4494 0.479983 17.9544 0.471868 17.4726 0.562246L2.99763 3.03351H2.98113C2.07253 3.20726 1.26454 3.72133 0.722179 4.47072C1.53929 3.88953 2.51743 3.57784 3.52016 3.57913Z" fill="white"/>
<path d="M21.121 4.89941H3.52016C2.58687 4.90043 1.69209 5.27163 1.03216 5.93157C0.372219 6.59151 0.00101912 7.48628 0 8.41958V18.9801C0.00101912 19.9134 0.372219 20.8081 1.03216 21.4681C1.69209 22.128 2.58687 22.4992 3.52016 22.5002H21.121C22.0543 22.4992 22.949 22.128 23.609 21.4681C24.2689 20.8081 24.6401 19.9134 24.6411 18.9801V8.41958C24.6401 7.48628 24.2689 6.59151 23.609 5.93157C22.949 5.27163 22.0543 4.90043 21.121 4.89941ZM18.5083 15.4599C18.1602 15.4599 17.8199 15.3567 17.5305 15.1633C17.2411 14.9699 17.0155 14.695 16.8822 14.3734C16.749 14.0518 16.7142 13.6979 16.7821 13.3564C16.85 13.015 17.0176 12.7014 17.2638 12.4553C17.5099 12.2091 17.8236 12.0415 18.165 11.9736C18.5064 11.9056 18.8603 11.9405 19.1819 12.0737C19.5035 12.2069 19.7784 12.4325 19.9718 12.722C20.1652 13.0114 20.2684 13.3517 20.2684 13.6998C20.2684 14.1666 20.083 14.6143 19.7529 14.9444C19.4228 15.2745 18.9751 15.4599 18.5083 15.4599Z" fill="white"/>
<path d="M0.0275002 12.1323V6.65956C0.0275002 5.46765 0.68753 3.46941 2.97839 3.03654C4.92272 2.67187 6.84781 2.67188 6.84781 2.67188C6.84781 2.67188 8.11287 3.55192 7.06782 3.55192C6.02277 3.55192 6.05028 4.89948 7.06782 4.89948C8.08537 4.89948 7.06782 6.19204 7.06782 6.19204L2.97013 10.8397L0.0275002 12.1323Z" fill="white"/>
</svg>
