<svg xml:space="preserve" style="max-height: 500px" viewBox="0 462.95200000000006 1608.347022587269 363.74800000000005" y="0px" x="0px" xmlns:xlink="http://www.w3.org/1999/xlink" xmlns="http://www.w3.org/2000/svg" id="Layer_1" version="1.1" width="1608.347022587269" height="363.74800000000005">
<style type="text/css">
	.st0{fill:#FDF1D2;}
	.st1{fill:#FE7C04;}
</style>
<g>
	<path d="M7,661.2c0-71.7,56.8-130.9,143.7-130.9c26.3,0,62.8,5,81.3,17.4l1.4,46.8l-4.3,1.1&#10;&#9;&#9;C214.6,559,178,537,141.5,537c-56.8,0-96.9,37.6-96.9,108.2c0,68.5,40.4,132,109.6,132c39.7,0,67.1-24.1,79.8-61l4.6,0.7l-5.7,50.7&#10;&#9;&#9;c-18.8,8.5-45.8,17-89.1,17C59.2,784.7,7,740.7,7,661.2z" class="st0"/>
	<path d="M385.6,766.9v-58.5c-9.9,41.2-35.5,76.3-72.4,76.3c-26.3,0-48.3-16.7-48.3-46.5c0-36.5,37.3-50.7,81.3-63.2&#10;&#9;&#9;l39.4-11.4c-0.7-35.1-19.9-48.6-46.1-48.6c-19.9,0-39.4,8.5-57.5,30.2l-3.5-3.2c19.9-24.5,47.2-40.8,79.5-40.8&#10;&#9;&#9;c42.9,0,63.2,23.1,63.2,66.4v68.5c0,25.5,2.5,36.2,14.2,40.1v5h-35.5C390.6,781.1,385.6,776.2,385.6,766.9z M330.9,758.8&#10;&#9;&#9;c34.8,0,54.3-49,54.6-80.9v-9.2l-38,11c-16.7,4.6-49.7,16.7-49.7,46.1C297.9,749.2,314.6,758.8,330.9,758.8z" class="st0"/>
	<path d="M452.3,776.2c11.7-3.9,14.2-14.5,14.2-40.1v-81.6c0-20.9-5.3-24.5-14.2-28.4v-5l46.8-20.6l3.5,2.8v29.8&#10;&#9;&#9;c19.5-16,45.1-31.9,72.7-31.9c32.6,0,54.6,17,54.6,58.5v76.3c0,25.5,2.5,36.2,14.2,40.1v5h-64.6v-5c11.7-3.9,14.2-14.5,14.2-40.1&#10;&#9;&#9;v-69.9c0-31.9-13.8-50.7-40.1-50.7c-16.7,0-31.9,8.2-51.1,23.8v96.9c0,25.5,2.5,36.2,14.2,40.1v5h-64.6V776.2z" class="st0"/>
	<path d="M662.3,699.2c0-59.6,46.1-97.9,95.8-97.9c38,0,63.9,10.3,63.9,20.2c0,11-13.5,23.1-24.1,23.1&#10;&#9;&#9;c-9.9,0-25.9-11-53.2-37.3c-30.9,4.6-50.7,35.1-50.7,69.2c0,46.5,28.4,79.5,73.4,79.5c26.3,0,46.5-11.4,61.4-28l3.2,3.5&#10;&#9;&#9;c-16.3,24.8-44.4,53.2-85.5,53.2C702.8,784.7,662.3,754.2,662.3,699.2z" class="st0"/>
	<path d="M838.7,776.2c11.7-3.9,14.2-14.5,14.2-40.1V548c0-20.9-5.3-24.5-14.2-28.4v-5l46.8-20.6l3.5,2.8v136.3&#10;&#9;&#9;c19.5-16,45.1-31.9,72.7-31.9c32.6,0,54.6,17,54.6,58.5v76.3c0,25.5,2.5,36.2,14.2,40.1v5h-64.6v-5c11.7-3.9,14.2-14.5,14.2-40.1&#10;&#9;&#9;v-69.9c0-31.9-13.8-50.7-40.1-50.7c-16.7,0-31.9,8.2-51.1,23.8v96.9c0,25.5,2.5,36.2,14.2,40.1v5h-64.6V776.2z" class="st0"/>
	<path d="M1048.7,699.2c0-60.3,47.2-97.9,93.3-97.9c47.9,0,73.4,33,73.4,63.9H1081c-0.4,3.9-0.7,7.5-0.7,11.4&#10;&#9;&#9;c0,46.5,28.4,79.5,73.4,79.5c26.3,0,46.5-11.4,61.4-28l3.2,3.5c-16.3,24.8-44.4,53.2-85.5,53.2&#10;&#9;&#9;C1093.4,784.7,1048.7,756.6,1048.7,699.2z M1179.7,660.1c-4.6-29.1-24.1-52.2-48.6-52.5c-30.2-0.4-45.4,24.8-49.7,52.5H1179.7z" class="st0"/>
	<path d="M1234.3,776.2c11.7-3.9,14.2-14.5,14.2-40.1V548c0-20.9-5.3-24.5-14.2-28.4v-5l46.8-20.6l3.5,2.8v239.2&#10;&#9;&#9;c0,25.5,2.5,36.2,14.2,40.1v5h-64.6V776.2z" class="st0"/>
	<path d="M1321.6,776.2c11.7-3.9,14.2-14.5,14.2-40.1V548c0-20.9-5.3-24.5-14.2-28.4v-5l46.8-20.6l3.5,2.8v239.2&#10;&#9;&#9;c0,25.5,2.5,36.2,14.2,40.1v5h-64.6V776.2z" class="st0"/>
	<path d="M1409.2,697c0-57.5,46.1-95.8,94.7-95.8c44,0,94.4,25.9,94.4,88.4c0,60.7-52.5,95.1-94.4,95.1&#10;&#9;&#9;C1457.8,784.7,1409.2,757.3,1409.2,697z M1516.4,776.9c34.8,0,46.1-30.2,46.1-60.3c0-45.1-30.9-112.8-76.6-108.2&#10;&#9;&#9;c-30.9,3.2-41.2,31.6-41.2,62.1C1444.7,712.3,1469.5,776.9,1516.4,776.9z" class="st0"/>
</g>
</svg>